<svg width="24" height="24" viewBox="0 0 24 24" fill="none" xmlns="http://www.w3.org/2000/svg">
<path d="M16.1401 2.95998L7.11012 5.95998C1.04012 7.98998 1.04012 11.3 7.11012 13.32L9.79012 14.21L10.6801 16.89C12.7001 22.96 16.0201 22.96 18.0401 16.89L21.0501 7.86998C22.3901 3.81998 20.1901 1.60998 16.1401 2.95998ZM16.4601 8.33998L12.6601 12.16C12.5101 12.31 12.3201 12.38 12.1301 12.38C11.9401 12.38 11.7501 12.31 11.6001 12.16C11.3101 11.87 11.3101 11.39 11.6001 11.1L15.4001 7.27998C15.6901 6.98998 16.1701 6.98998 16.4601 7.27998C16.7501 7.56998 16.7501 8.04998 16.4601 8.33998Z" fill="white"/>
</svg>
