<svg width="21" height="21" viewBox="0 0 21 21" fill="none" xmlns="http://www.w3.org/2000/svg">
<path d="M18.7813 6.63611V14.9231C18.7813 15.4726 18.563 15.9996 18.1745 16.3881C17.786 16.7766 17.259 16.9949 16.7095 16.9949H4.27897C3.72951 16.9949 3.20255 16.7766 2.81402 16.3881C2.42549 15.9996 2.20721 15.4726 2.20721 14.9231V6.63611" stroke="#3CF75D" stroke-width="1.39222" stroke-linecap="round" stroke-linejoin="round"/>
<path d="M18.7813 6.63609C18.7813 6.08663 18.563 5.55967 18.1745 5.17114C17.786 4.78261 17.259 4.56433 16.7095 4.56433H4.27897C3.72951 4.56433 3.20255 4.78261 2.81402 5.17114C2.42549 5.55967 2.20721 6.08663 2.20721 6.63609L9.39622 11.1249C9.72549 11.3307 10.106 11.4398 10.4943 11.4398C10.8825 11.4398 11.263 11.3307 11.5923 11.1249L18.7813 6.63609Z" stroke="#3CF75D" stroke-width="1.39222" stroke-linecap="round" stroke-linejoin="round"/>
</svg>
