<svg width="21" height="21" viewBox="0 0 21 21" fill="none" xmlns="http://www.w3.org/2000/svg">
<path d="M17.0279 9.23868C17.0279 14.5876 11.5493 17.883 10.4107 18.5107C10.3477 18.5454 10.2768 18.5637 10.2048 18.5637C10.1328 18.5637 10.0619 18.5454 9.99883 18.5107C8.85945 17.883 3.38257 14.5876 3.38257 9.23868C3.38257 4.97453 5.94106 1.98962 10.2052 1.98962C14.4694 1.98962 17.0279 4.97453 17.0279 9.23868Z" stroke="#3CF75D" stroke-width="1.39222" stroke-linecap="round" stroke-linejoin="round"/>
<path d="M6.79395 8.81208C6.79395 9.71682 7.15335 10.5845 7.7931 11.2242C8.43285 11.864 9.30053 12.2234 10.2053 12.2234C11.11 12.2234 11.9777 11.864 12.6174 11.2242C13.2572 10.5845 13.6166 9.71682 13.6166 8.81208C13.6166 7.90734 13.2572 7.03966 12.6174 6.39991C11.9777 5.76016 11.11 5.40076 10.2053 5.40076C9.30053 5.40076 8.43285 5.76016 7.7931 6.39991C7.15335 7.03966 6.79395 7.90734 6.79395 8.81208V8.81208Z" stroke="#3CF75D" stroke-width="1.39222" stroke-linecap="round" stroke-linejoin="round"/>
</svg>
