<svg width="21" height="21" viewBox="0 0 21 21" fill="none" xmlns="http://www.w3.org/2000/svg">
<path d="M12.5889 18.0082L12.598 18.0145C13.3806 18.5128 14.3099 18.7292 15.2322 18.628C16.1545 18.5267 17.0147 18.1137 17.6706 17.4574L18.2403 16.8877C18.3666 16.7615 18.4667 16.6117 18.5351 16.4467C18.6034 16.2818 18.6386 16.1051 18.6386 15.9266C18.6386 15.7481 18.6034 15.5713 18.5351 15.4064C18.4667 15.2415 18.3666 15.0917 18.2403 14.9655L15.8372 12.5642C15.711 12.4379 15.5612 12.3378 15.3963 12.2694C15.2314 12.2011 15.0546 12.1659 14.8761 12.1659C14.6976 12.1659 14.5208 12.2011 14.3559 12.2694C14.191 12.3378 14.0412 12.4379 13.915 12.5642C13.6602 12.8189 13.3147 12.962 12.9544 12.962C12.5941 12.962 12.2486 12.8189 11.9938 12.5642L8.1513 8.72078C7.89658 8.46599 7.75348 8.12045 7.75348 7.76016C7.75348 7.39988 7.89658 7.05434 8.1513 6.79954C8.27756 6.67336 8.37772 6.52354 8.44606 6.35863C8.5144 6.19373 8.54957 6.01697 8.54957 5.83847C8.54957 5.65996 8.5144 5.48321 8.44606 5.3183C8.37772 5.1534 8.27756 5.00357 8.1513 4.87739L5.74907 2.47606C5.49427 2.22134 5.14873 2.07825 4.78845 2.07825C4.42816 2.07825 4.08262 2.22134 3.82782 2.47606L3.25716 3.04583C2.60097 3.7018 2.18822 4.56201 2.08709 5.48432C1.98597 6.40663 2.20253 7.33584 2.70098 8.11841L2.70642 8.12747C5.3389 12.0223 8.6936 15.3764 12.5889 18.0082V18.0082Z" stroke="#3CF75D" stroke-width="1.39222" stroke-linecap="round" stroke-linejoin="round"/>
</svg>
