<svg width="20" height="20" viewBox="0 0 20 20" fill="none" xmlns="http://www.w3.org/2000/svg">
<path fill-rule="evenodd" clip-rule="evenodd" d="M1.43335 10.0761C1.43335 6.50093 1.43335 4.71335 2.28528 3.4258C2.66571 2.85085 3.1581 2.35846 3.73305 1.97803C5.0206 1.1261 6.80818 1.1261 10.3834 1.1261C13.9585 1.1261 15.7461 1.1261 17.0336 1.97803C17.6086 2.35846 18.101 2.85085 18.4814 3.4258C19.3334 4.71335 19.3334 6.50093 19.3334 10.0761C19.3334 13.6513 19.3334 15.4388 18.4814 16.7264C18.101 17.3013 17.6086 17.7937 17.0336 18.1742C15.7461 19.0261 13.9585 19.0261 10.3834 19.0261C6.80818 19.0261 5.0206 19.0261 3.73305 18.1742C3.1581 17.7937 2.66571 17.3013 2.28528 16.7264C1.43335 15.4388 1.43335 13.6513 1.43335 10.0761ZM15.0166 10.0761C15.0166 12.6352 12.9421 14.7097 10.383 14.7097C7.82401 14.7097 5.74951 12.6352 5.74951 10.0761C5.74951 7.51712 7.82401 5.44262 10.383 5.44262C12.9421 5.44262 15.0166 7.51712 15.0166 10.0761ZM10.383 13.142C12.0763 13.142 13.4489 11.7694 13.4489 10.0761C13.4489 8.38291 12.0763 7.01027 10.383 7.01027C8.6898 7.01027 7.31716 8.38291 7.31716 10.0761C7.31716 11.7694 8.6898 13.142 10.383 13.142ZM15.1996 6.29892C15.8009 6.29892 16.2883 5.81147 16.2883 5.21018C16.2883 4.60888 15.8009 4.12144 15.1996 4.12144C14.5983 4.12144 14.1109 4.60888 14.1109 5.21018C14.1109 5.81147 14.5983 6.29892 15.1996 6.29892Z" fill="#3CF75D"/>
</svg>
