<svg width="20" height="19" viewBox="0 0 20 19" fill="none" xmlns="http://www.w3.org/2000/svg">
<path d="M1.2057 3.02886C1.2057 2.45486 1.40729 1.98131 1.81043 1.60823C2.21358 1.23513 2.73769 1.04858 3.38273 1.04858C4.01626 1.04858 4.52883 1.23225 4.92047 1.59962C5.32362 1.97845 5.5252 2.47208 5.5252 3.08052C5.5252 3.63156 5.32939 4.09074 4.93775 4.45811C4.5346 4.83694 4.00474 5.02636 3.34818 5.02636H3.3309C2.69736 5.02636 2.1848 4.83694 1.79316 4.45811C1.40152 4.07927 1.2057 3.60285 1.2057 3.02886ZM1.43032 18.0962V6.59336H5.26603V18.0962H1.43032ZM7.39123 18.0962H11.2269V11.6732C11.2269 11.2714 11.273 10.9614 11.3652 10.7433C11.5264 10.353 11.7712 10.023 12.0995 9.7532C12.4278 9.48342 12.8395 9.34853 13.3349 9.34853C14.625 9.34853 15.27 10.2153 15.27 11.9487V18.0962H19.1057V11.501C19.1057 9.80198 18.7026 8.51337 17.8962 7.63516C17.0899 6.75695 16.0245 6.31785 14.6998 6.31785C13.2139 6.31785 12.0563 6.95498 11.2269 8.22925V8.26369H11.2097L11.2269 8.22925V6.59336H7.39123C7.41426 6.96071 7.42578 8.10296 7.42578 10.0201C7.42578 11.9372 7.41426 14.6293 7.39123 18.0962Z" fill="#3CF75D"/>
</svg>
