<svg width="20" height="16" viewBox="0 0 20 16" fill="none" xmlns="http://www.w3.org/2000/svg">
<path d="M13.6215 0.817799V0.814575H14.4608L14.7675 0.875825C14.9719 0.915589 15.1576 0.9677 15.3243 1.03217C15.4911 1.09665 15.6525 1.17187 15.8086 1.25783C15.9646 1.34379 16.1061 1.43138 16.2331 1.52056C16.359 1.60868 16.472 1.70217 16.572 1.80102C16.671 1.90095 16.8254 1.92674 17.0353 1.87839C17.2451 1.83003 17.4711 1.76287 17.7132 1.67691C17.9553 1.59095 18.1947 1.49424 18.4314 1.38678C18.6682 1.27932 18.8124 1.21109 18.864 1.18207C18.9146 1.152 18.9415 1.13588 18.9447 1.13372L18.9479 1.12888L18.9641 1.12082L18.9802 1.11276L18.9963 1.10471L19.0125 1.09665L19.0157 1.09181L19.0206 1.08859L19.0254 1.08536L19.0286 1.08053L19.0448 1.07569L19.0609 1.07247L19.0577 1.09665L19.0528 1.12082L19.0448 1.145L19.0367 1.16918L19.0286 1.1853L19.0206 1.20142L19.0125 1.22559C19.0071 1.24171 19.0017 1.2632 18.9963 1.29007C18.991 1.31694 18.9399 1.42438 18.843 1.61243C18.7462 1.80049 18.6251 1.99122 18.4798 2.18464C18.3346 2.37806 18.2044 2.52419 18.0893 2.62306C17.973 2.72299 17.8961 2.79283 17.8584 2.83259C17.8208 2.87342 17.775 2.91103 17.7212 2.94542L17.6405 2.99861L17.6244 3.00667L17.6082 3.01473L17.605 3.01957L17.6002 3.02279L17.5953 3.02601L17.5921 3.03085L17.576 3.03891L17.5598 3.04697L17.5566 3.0518L17.5518 3.05503L17.5469 3.05825L17.5437 3.06309L17.5405 3.06792L17.5356 3.07115L17.5308 3.07437L17.5275 3.07921H17.6082L18.0602 2.9825C18.3615 2.91802 18.6493 2.84012 18.9237 2.74878L19.3595 2.60371L19.4079 2.5876L19.4321 2.57954L19.4483 2.57148L19.4644 2.56342L19.4806 2.55536L19.4967 2.5473L19.529 2.54246L19.5613 2.53924V2.57148L19.5532 2.5747L19.5451 2.57954L19.5419 2.58437L19.5371 2.5876L19.5322 2.59082L19.529 2.59565L19.5258 2.60049L19.5209 2.60371L19.5161 2.60694L19.5128 2.61177L19.5096 2.61661L19.5048 2.61983L19.4967 2.63595L19.4886 2.65207L19.4838 2.65529C19.4816 2.65852 19.4133 2.74984 19.2788 2.9293C19.1443 3.10983 19.0717 3.20116 19.0609 3.20332C19.0502 3.20654 19.0351 3.22266 19.0157 3.25167C18.9974 3.28175 18.8834 3.40157 18.6735 3.61111C18.4637 3.82065 18.2582 4.00707 18.057 4.17042C17.8547 4.33483 17.7525 4.53684 17.7503 4.77647C17.7471 5.01502 17.7347 5.28475 17.7132 5.58561C17.6916 5.88649 17.6513 6.21153 17.5921 6.56077C17.5329 6.91001 17.4415 7.30491 17.3177 7.74547C17.194 8.18603 17.0433 8.61586 16.8658 9.03494C16.6882 9.45402 16.5026 9.83011 16.3089 10.1632C16.1152 10.4963 15.9377 10.7784 15.7763 11.0094C15.6149 11.2405 15.4508 11.4581 15.284 11.6622C15.1172 11.8664 14.9063 12.0964 14.6513 12.3521C14.3952 12.6068 14.2553 12.7465 14.2316 12.7712C14.2069 12.7948 14.1014 12.8829 13.9153 13.0355C13.7302 13.1892 13.5311 13.3428 13.3181 13.4965C13.1061 13.6491 12.9113 13.7764 12.7338 13.8785C12.5562 13.9806 12.3421 14.0972 12.0914 14.2283C11.8417 14.3604 11.5716 14.4829 11.2811 14.5958C10.9906 14.7086 10.6839 14.8134 10.3611 14.9101C10.0383 15.0068 9.72623 15.082 9.42493 15.1357C9.12365 15.1895 8.782 15.2351 8.4 15.2727L7.82701 15.3292V15.3372H6.77786V15.3292L6.64067 15.3211C6.54921 15.3157 6.47388 15.3104 6.4147 15.305C6.35553 15.2996 6.13224 15.2701 5.74486 15.2163C5.35748 15.1626 5.05351 15.1089 4.83291 15.0551C4.61233 15.0014 4.28413 14.8993 3.84833 14.7489C3.41253 14.5985 3.03968 14.4464 2.72978 14.2928C2.42096 14.1402 2.22727 14.0434 2.14872 14.0026C2.07124 13.9629 1.98408 13.9134 1.88724 13.8543L1.74197 13.7657L1.73876 13.7608L1.7339 13.7576L1.72906 13.7544L1.72583 13.7496L1.70969 13.7415L1.69355 13.7334L1.69034 13.7286L1.68548 13.7254L1.68064 13.7222L1.67741 13.7173L1.6742 13.7125L1.66934 13.7093H1.66127V13.677L1.67741 13.6803L1.69355 13.6851L1.76618 13.6931C1.81461 13.6985 1.94643 13.7066 2.16163 13.7173C2.37685 13.7281 2.6055 13.7281 2.84761 13.7173C3.08972 13.7066 3.33722 13.6824 3.59008 13.6448C3.84296 13.6072 4.14156 13.5427 4.48589 13.4514C4.83023 13.36 5.14659 13.2515 5.43497 13.1258C5.72228 12.999 5.92672 12.9044 6.04832 12.8421C6.16883 12.7808 6.35283 12.6669 6.60031 12.5004L6.97155 12.2506L6.97478 12.2457L6.97962 12.2425L6.98448 12.2393L6.98769 12.2344L6.99092 12.2296L6.99576 12.2264L7.00062 12.2232L7.00383 12.2183L7.01997 12.2135L7.03611 12.2103L7.03934 12.1941L7.04418 12.178L7.04904 12.1748L7.05225 12.17L6.92313 12.1619C6.83705 12.1565 6.75365 12.1512 6.67295 12.1458C6.59224 12.1404 6.46581 12.1162 6.29364 12.0733C6.12149 12.0303 5.93587 11.9658 5.73679 11.8798C5.53773 11.7939 5.34404 11.6918 5.15572 11.5736C4.96743 11.4554 4.8313 11.357 4.74737 11.2786C4.66452 11.2012 4.55691 11.0916 4.42455 10.9498C4.29328 10.8069 4.17921 10.6602 4.08237 10.5098C3.98553 10.3593 3.89299 10.1858 3.80477 9.98915L3.67078 9.69579L3.66271 9.67162L3.65464 9.64744L3.6498 9.63132L3.64657 9.6152L3.67078 9.61843L3.69499 9.62326L3.87254 9.64744C3.99092 9.66356 4.17653 9.66892 4.42939 9.66356C4.68227 9.65819 4.85712 9.64744 4.95397 9.63132C5.05081 9.6152 5.11 9.60445 5.13151 9.59908L5.16379 9.59102L5.20415 9.58296L5.2445 9.57491L5.24773 9.57007L5.25257 9.56685L5.25743 9.56362L5.26064 9.55879L5.22836 9.55073L5.19608 9.54267L5.16379 9.53461L5.13151 9.52655L5.09923 9.51849C5.07772 9.51312 5.04006 9.50237 4.98625 9.48625C4.93245 9.47014 4.78718 9.41103 4.55045 9.30895C4.31373 9.20687 4.12542 9.10747 3.98553 9.01076C3.84529 8.91377 3.71157 8.8077 3.58524 8.69323C3.45934 8.57718 3.32108 8.42781 3.17042 8.24514C3.01978 8.06247 2.88528 7.85024 2.76691 7.60847C2.64855 7.36669 2.55977 7.13566 2.50058 6.91538C2.44164 6.69638 2.40274 6.47249 2.38439 6.24646L2.35532 5.90798L2.37146 5.9112L2.3876 5.91604L2.40374 5.9241L2.41988 5.93216L2.43602 5.94021L2.45216 5.94827L2.70234 6.0611C2.86914 6.13633 3.07627 6.2008 3.32376 6.25452C3.57126 6.30825 3.71921 6.33781 3.76763 6.34317L3.84026 6.35123H3.98553L3.98231 6.3464L3.97746 6.34317L3.97261 6.33995L3.96939 6.33511L3.96617 6.33028L3.96132 6.32705L3.95647 6.32383L3.95324 6.319L3.9371 6.31094L3.92096 6.30288L3.91775 6.29804L3.91289 6.29482L3.90805 6.29159L3.90482 6.28676L3.88868 6.2787L3.87254 6.27064L3.86933 6.26581C3.8661 6.26365 3.81983 6.22926 3.7305 6.16265C3.64226 6.09495 3.54973 6.00738 3.45288 5.89992C3.35604 5.79246 3.2592 5.67963 3.16235 5.56143C3.06533 5.44297 2.97891 5.31622 2.9041 5.18265C2.82879 5.04834 2.74915 4.87747 2.66522 4.67009C2.58237 4.46377 2.51942 4.25585 2.47637 4.04631C2.43334 3.83677 2.40913 3.62992 2.40374 3.42575C2.39837 3.22158 2.40374 3.04697 2.41988 2.9019C2.43602 2.75684 2.4683 2.59296 2.51673 2.41029C2.56515 2.22762 2.6351 2.0342 2.72655 1.83003L2.86375 1.52378L2.87182 1.49961L2.87989 1.47543L2.88475 1.4722L2.88796 1.46737L2.89119 1.46253L2.89603 1.45931L2.90089 1.46253L2.9041 1.46737L2.90733 1.4722L2.91217 1.47543L2.91703 1.47865L2.92024 1.48349L2.92347 1.48832L2.92831 1.49155L2.93638 1.50766L2.94445 1.52378L2.94931 1.52701L2.95252 1.53184L3.17042 1.77362C3.31569 1.9348 3.48786 2.1148 3.68692 2.31358C3.886 2.51237 3.99629 2.61553 4.01781 2.62306C4.03934 2.63165 4.06623 2.65636 4.09851 2.6972C4.13079 2.73696 4.2384 2.83206 4.42132 2.9825C4.60426 3.13293 4.84368 3.30755 5.13958 3.50634C5.43551 3.70513 5.7637 3.90124 6.12416 4.09466C6.48465 4.28808 6.87203 4.46269 7.28629 4.61851C7.70058 4.77432 7.99111 4.8764 8.15789 4.92476C8.32469 4.97311 8.60983 5.03489 9.01334 5.11012C9.41686 5.18534 9.72085 5.2337 9.92529 5.25518C10.1297 5.27667 10.2696 5.28903 10.3449 5.29226L10.4579 5.29548L10.4547 5.2713L10.4499 5.24712L10.4176 5.04565C10.3961 4.91133 10.3853 4.72328 10.3853 4.4815C10.3853 4.23973 10.4041 4.01676 10.4418 3.81259C10.4795 3.60842 10.536 3.40157 10.6113 3.19203C10.6866 2.9825 10.7603 2.81432 10.8324 2.68753C10.9056 2.56181 11.0013 2.41835 11.1197 2.25717C11.2381 2.09599 11.3914 1.92943 11.5797 1.7575C11.768 1.58556 11.9832 1.43244 12.2253 1.29813C12.4674 1.16381 12.6907 1.06172 12.8952 0.991877C13.0996 0.922036 13.2718 0.876357 13.4117 0.854871C13.5516 0.833385 13.6215 0.821023 13.6215 0.817799Z" fill="#3CF75D"/>
</svg>
