<svg width="22" height="16" viewBox="0 0 22 16" fill="none" xmlns="http://www.w3.org/2000/svg">
<path d="M11.3584 15.0175L7.31877 14.942C6.01083 14.9157 4.69964 14.9682 3.41734 14.6956C1.46667 14.2884 1.32848 12.2917 1.18388 10.6168C0.98463 8.26209 1.06177 5.86467 1.43777 3.52964C1.65004 2.21944 2.48541 1.43764 3.77727 1.35257C8.13826 1.04382 12.5282 1.08041 16.8796 1.22445C17.3391 1.23765 17.8018 1.30983 18.255 1.39198C20.4918 1.79266 20.5463 4.05541 20.6913 5.96023C20.8359 7.8847 20.7749 9.81905 20.4985 11.7304C20.2768 13.313 19.8525 14.6401 18.0621 14.7682C15.8189 14.9358 13.6272 15.0706 11.3776 15.0277C11.3777 15.0175 11.3648 15.0175 11.3584 15.0175ZM8.98349 11.0109C10.6739 10.019 12.3322 9.0437 14.0129 8.05848C12.3193 7.06661 10.6643 6.09127 8.98349 5.10605V11.0109Z" fill="#3CF75D"/>
</svg>
