<svg width="150" height="50" viewBox="0 0 150 50" fill="none" xmlns="http://www.w3.org/2000/svg">
<path d="M9.16256 0.5H140.749C143.93 0.5 146.084 1.16725 147.451 2.51425C148.816 3.8596 149.5 5.98483 149.5 9.14706V40.9118C149.5 44.0665 148.816 46.1759 147.452 47.5081C146.086 48.843 143.932 49.5 140.749 49.5H9.14778C5.97119 49.5 3.84565 48.8464 2.50389 47.5179C1.16328 46.1905 0.5 44.085 0.5 40.9265V9.14706C0.5 5.91715 0.838089 3.81413 2.00785 2.48898C3.16286 1.18054 5.25437 0.5 9.16256 0.5Z" stroke="#333333"/>
<path fill-rule="evenodd" clip-rule="evenodd" d="M39.1039 32.6807C38.3502 34.3425 37.9808 35.0925 37.0202 36.5631C35.6606 38.6219 33.7542 41.1807 31.3749 41.1954C29.2616 41.2101 28.7295 39.8278 25.8626 39.8425C23.0103 39.8572 22.4044 41.2101 20.3059 41.1954C17.9414 41.1807 16.1236 38.8572 14.764 36.7984C10.966 31.0484 10.567 24.2984 12.9167 20.7101C14.5867 18.166 17.2025 16.666 19.6704 16.666C22.1827 16.666 23.764 18.0337 25.833 18.0337C27.8428 18.0337 29.0694 16.666 31.9808 16.666C34.1827 16.666 36.5029 17.8572 38.1581 19.916C32.7345 22.9013 33.6212 30.6219 39.1039 32.6807Z" fill="#333333"/>
<path fill-rule="evenodd" clip-rule="evenodd" d="M29.7946 14.4011C30.8439 13.0482 31.6567 11.1511 31.3611 9.20996C29.632 9.32761 27.6222 10.4158 26.4399 11.8423C25.3759 13.1364 24.4892 15.0482 24.8291 16.9158C26.7059 16.96 28.6567 15.8423 29.7946 14.4011Z" fill="#333333"/>
<path fill-rule="evenodd" clip-rule="evenodd" d="M136.612 35.3859H128.987C129.016 36.4153 129.386 37.3124 130.095 37.9153C130.731 38.4447 131.573 38.6947 132.593 38.6947C133.731 38.6947 134.75 38.5036 135.681 38.1359L136.08 39.8859C135.002 40.3565 133.716 40.5771 132.238 40.5771C130.465 40.5771 129.075 40.0624 128.056 39.0183C127.051 37.9741 126.534 36.5918 126.534 34.8418C126.534 33.1212 127.006 31.6947 127.952 30.5477C128.942 29.3271 130.287 28.7241 131.957 28.7241C133.612 28.7241 134.854 29.3271 135.696 30.5477C136.376 31.5183 136.716 32.7683 136.716 34.18C136.701 34.6359 136.671 35.0918 136.612 35.3859ZM125.765 31.2094C125.617 31.1653 125.218 31.1506 124.937 31.1506C124.036 31.1506 123.341 31.4889 122.854 32.1506C122.425 32.7389 122.203 33.4889 122.203 34.4006V40.2389H119.691V32.5624C119.691 31.2536 119.632 30.0918 119.588 28.9153H121.804L121.893 31.2683H121.967C122.233 30.533 122.662 29.8712 123.238 29.4153C123.8 29.0036 124.435 28.783 125.1 28.783C125.336 28.783 125.603 28.7683 125.75 28.7977V31.2094H125.765ZM116.573 38.9006C115.524 40.0477 114.12 40.6359 112.376 40.6359C110.691 40.6359 109.346 40.0771 108.356 38.9741C107.366 37.8712 106.864 36.4594 106.864 34.783C106.864 33.0183 107.381 31.5771 108.401 30.4447C109.435 29.3124 110.809 28.7536 112.553 28.7536C114.238 28.7536 115.583 29.2977 116.603 30.4153C117.578 31.4889 118.066 32.8859 118.066 34.5771C118.08 36.3418 117.578 37.7683 116.573 38.9006ZM106.11 30.9741H103.45V36.4153C103.45 37.8271 103.893 38.5183 104.883 38.5183C105.341 38.5183 105.681 38.4889 105.977 38.4006L106.036 40.3124C105.534 40.5036 104.869 40.5918 104.056 40.5918C103.051 40.5918 102.238 40.2977 101.676 39.68C101.1 39.0771 100.804 38.0477 100.804 36.6065V30.9741H99.1789V28.9153H100.804V26.9006L103.465 26.1506V28.9153H106.125V30.9741H106.11ZM97.169 39.2241C96.1345 40.1506 94.6862 40.6065 92.839 40.6065C91.1247 40.6065 89.7651 40.283 88.7306 39.6212L89.3217 37.5183C90.4301 38.1653 91.6567 38.5036 92.9867 38.5036C93.9473 38.5036 94.6862 38.283 95.233 37.8565C95.7651 37.43 96.0311 36.8565 96.0311 36.1212C96.0311 35.4889 95.8094 34.9447 95.3808 34.5036C94.9375 34.0624 94.2133 33.6653 93.1936 33.283C90.4153 32.2536 89.0261 30.7536 89.0261 28.7683C89.0261 27.4741 89.5138 26.4006 90.4892 25.5771C91.4646 24.7536 92.7651 24.3418 94.3907 24.3418C95.839 24.3418 97.036 24.5918 97.9966 25.0918L97.3611 27.1506C96.4596 26.6653 95.4547 26.43 94.3168 26.43C93.4153 26.43 92.7207 26.6506 92.2183 27.0771C91.7897 27.4741 91.5828 27.9447 91.5828 28.5036C91.5828 29.1212 91.8192 29.6359 92.3069 30.0477C92.7355 30.4153 93.504 30.8271 94.6124 31.2683C95.9867 31.8124 96.9769 32.4594 97.6271 33.1947C98.2626 33.93 98.5877 34.8418 98.5877 35.93C98.5729 37.283 98.1 38.3859 97.169 39.2241ZM82.4793 39.1359C81.5335 40.1359 80.3513 40.6359 78.9473 40.6359C77.4399 40.6359 76.4202 40.0918 75.6813 39.0183V45.0918H73.169V32.7241C73.169 31.5036 73.1247 30.3859 73.0655 28.9153H75.2971L75.4449 30.8271H75.4892C76.3463 29.5036 77.6321 28.7683 79.3463 28.7683C80.6912 28.7683 81.8291 29.283 82.7306 30.3565C83.6321 31.4153 84.0902 32.8124 84.0902 34.5477C84.0606 36.4889 83.5434 38.0036 82.4793 39.1359ZM69.903 39.1359C68.9572 40.1359 67.7749 40.6359 66.371 40.6359C64.8488 40.6359 63.8439 40.0918 63.105 39.0183V45.0918H60.5926V32.7241C60.5926 31.5036 60.5335 30.3859 60.4744 28.9153H62.7059L62.8537 30.8271H62.8981C63.7552 29.5036 65.0409 28.7683 66.77 28.7683C68.1148 28.7683 69.238 29.283 70.1542 30.3565C71.0557 31.4153 71.5138 32.8124 71.5138 34.5477C71.499 36.4889 70.967 38.0036 69.903 39.1359ZM56.3069 40.2389L54.8291 35.68H49.6567L48.238 40.2389H45.6074L50.7059 24.5036H53.8685L59.0114 40.2389H56.3069ZM131.75 30.4742C130.923 30.4742 130.243 30.9006 129.726 31.5771C129.297 32.1212 129.046 32.7241 128.972 33.6065H134.263C134.277 32.7241 134.115 32.1359 133.775 31.5918C133.346 30.9006 132.667 30.4742 131.75 30.4742ZM52.2281 26.7094H52.1838C52.0212 27.4447 51.77 28.43 51.4301 29.7389L50.1148 33.9153H54.371L53.0409 29.7389C52.8931 29.3124 52.6123 28.18 52.2281 26.7094ZM78.504 30.7683C77.8685 30.7683 77.3069 30.9741 76.8045 31.3859C76.2872 31.8124 75.9473 32.3418 75.7995 33.0183C75.7257 33.3271 75.6813 33.5918 75.6813 33.7977V35.68C75.6813 36.5036 75.9473 37.2094 76.4498 37.783C76.9522 38.3418 77.6321 38.6359 78.4449 38.6359C79.4055 38.6359 80.1591 38.2683 80.6912 37.533C81.2232 36.7977 81.4892 35.8271 81.4892 34.6212C81.4892 33.5183 81.238 32.6065 80.7355 31.8859C80.1739 31.1506 79.435 30.7683 78.504 30.7683ZM112.465 30.6065C111.445 30.6065 110.676 31.0624 110.144 31.9594C109.686 32.7094 109.465 33.6065 109.465 34.6947C109.465 35.7389 109.686 36.6359 110.144 37.3859C110.691 38.283 111.46 38.7389 112.45 38.7389C113.41 38.7389 114.179 38.283 114.726 37.3565C115.199 36.6065 115.435 35.6947 115.435 34.6506C115.435 33.6065 115.213 32.7094 114.755 31.9594C114.223 31.0477 113.455 30.6065 112.465 30.6065ZM65.9276 30.7683C65.3069 30.7683 64.7306 30.9741 64.2281 31.3859C63.7109 31.8124 63.3857 32.3418 63.2232 33.0183C63.1493 33.3271 63.105 33.5918 63.105 33.7977V35.68C63.105 36.5036 63.3562 37.2094 63.8734 37.783C64.3759 38.3418 65.0409 38.6359 65.8685 38.6359C66.8291 38.6359 67.5828 38.2683 68.1148 37.533C68.6468 36.7977 68.9128 35.8271 68.9128 34.6212C68.9128 33.5183 68.6616 32.6065 68.1591 31.8859C67.5976 31.1506 66.8587 30.7683 65.9276 30.7683Z" fill="#333333"/>
<path d="M47.2773 12.9166C47.898 12.8137 48.7108 12.7549 49.5532 12.7549C51.0163 12.7549 52.0212 13.049 52.7453 13.6519C53.499 14.2696 53.9571 15.1814 53.9571 16.5196C53.9571 17.9019 53.4842 18.9461 52.7453 19.6078C51.9621 20.3137 50.7207 20.6666 49.2133 20.6666C48.3709 20.6666 47.7503 20.6225 47.2921 20.5637V12.9166H47.2773ZM48.7108 19.5049C48.903 19.5343 49.2133 19.5343 49.4941 19.5343C51.3562 19.549 52.4498 18.5343 52.4498 16.549C52.4645 14.8284 51.4596 13.8431 49.6714 13.8431C49.2133 13.8431 48.8882 13.8725 48.6961 13.9166V19.5049H48.7108Z" fill="#333333"/>
<path d="M60.5191 17.7242C60.5191 19.783 59.0561 20.7095 57.6226 20.7095C56.0265 20.7095 54.7852 19.6066 54.7852 17.8124C54.7852 15.9595 55.997 14.8271 57.7113 14.8271C59.396 14.8419 60.5191 16.0183 60.5191 17.7242ZM56.263 17.783C56.263 18.8713 56.795 19.6948 57.6669 19.6948C58.4797 19.6948 59.0413 18.9007 59.0413 17.7683C59.0413 16.886 58.6423 15.886 57.6669 15.886C56.662 15.886 56.263 16.8566 56.263 17.783Z" fill="#333333"/>
<path d="M62.4549 14.9746L63.046 17.5187C63.179 18.1217 63.2972 18.7246 63.4007 19.3423H63.4303C63.5485 18.7246 63.7258 18.107 63.8884 17.5334L64.6125 14.9746H65.7652L66.4746 17.4746C66.6519 18.1364 66.7997 18.7393 66.9327 19.357H66.9623C67.0509 18.7393 67.1839 18.1364 67.3317 17.4746L67.9524 14.9746H69.3564L67.583 20.5923H66.2677L65.5879 18.3128C65.4105 17.7246 65.2923 17.1952 65.1593 16.5187H65.1298C65.0115 17.2099 64.8637 17.7687 64.7012 18.3128L63.9771 20.5923H62.647L60.9771 14.9746H62.4549Z" fill="#333333"/>
<path d="M70.287 16.6516C70.287 16.0045 70.2722 15.4604 70.2427 14.9751H71.4988L71.5727 15.8134H71.6023C71.8387 15.3722 72.4594 14.8428 73.4052 14.8428C74.3954 14.8428 75.4151 15.4751 75.4151 17.2545V20.5928H73.9816V17.4163C73.9816 16.6075 73.686 15.9898 72.9028 15.9898C72.3412 15.9898 71.9422 16.3869 71.7944 16.8281C71.7501 16.9604 71.7353 17.1222 71.7353 17.284V20.5781H70.3018V16.6516H70.287Z" fill="#333333"/>
<path d="M76.9238 12.4014H78.3573V20.5925H76.9238V12.4014Z" fill="#333333"/>
<path d="M85.2726 17.7242C85.2726 19.783 83.8095 20.7095 82.376 20.7095C80.78 20.7095 79.5386 19.6066 79.5386 17.8124C79.5386 15.9595 80.7504 14.8271 82.4647 14.8271C84.1494 14.8419 85.2726 16.0183 85.2726 17.7242ZM81.0164 17.783C81.0164 18.8713 81.5484 19.6948 82.4203 19.6948C83.2332 19.6948 83.7947 18.9007 83.7947 17.7683C83.7947 16.886 83.3957 15.886 82.4203 15.886C81.4154 15.886 81.0164 16.8566 81.0164 17.783Z" fill="#333333"/>
<path d="M89.6153 20.5928L89.5266 19.9751H89.4971C89.1424 20.4163 88.5512 20.7251 87.8271 20.7251C86.6892 20.7251 86.0537 19.9016 86.0537 19.0487C86.0537 17.6222 87.3246 16.9163 89.4084 16.931V16.8428C89.4084 16.4751 89.2606 15.8575 88.2557 15.8575C87.6941 15.8575 87.1178 16.0339 86.7335 16.2692L86.4527 15.3428C86.8665 15.0928 87.6054 14.8428 88.4921 14.8428C90.2951 14.8428 90.8271 15.9898 90.8271 17.2104V19.2398C90.8271 19.7545 90.8567 20.2398 90.901 20.5928H89.6153ZM89.4379 17.8428C88.433 17.8134 87.4724 18.0339 87.4724 18.8869C87.4724 19.4457 87.8271 19.6957 88.2852 19.6957C88.8468 19.6957 89.2754 19.3281 89.3936 18.9163C89.4232 18.8134 89.4379 18.6957 89.4379 18.6075V17.8428Z" fill="#333333"/>
<path d="M97.554 12.4014V19.019C97.554 19.5925 97.5836 20.2249 97.5983 20.6072H96.3274L96.2683 19.7249H96.2387C95.8988 20.3425 95.219 20.7396 94.3914 20.7396C93.0466 20.7396 91.9826 19.5925 91.9826 17.872C91.9678 15.9896 93.15 14.872 94.5097 14.872C95.2929 14.872 95.8397 15.1955 96.1057 15.6072H96.1353V12.4014H97.554ZM96.1205 17.3131C96.1205 17.1955 96.1057 17.0631 96.0909 16.9455C95.9579 16.3867 95.5146 15.9455 94.8643 15.9455C93.9481 15.9455 93.4308 16.7543 93.4308 17.7984C93.4308 18.8278 93.9481 19.5778 94.8496 19.5778C95.4259 19.5778 95.9432 19.1808 96.0762 18.5778C96.1057 18.4455 96.1205 18.3131 96.1205 18.1661V17.3131Z" fill="#333333"/>
<path d="M106.848 17.7242C106.848 19.783 105.385 20.7095 103.951 20.7095C102.355 20.7095 101.114 19.6066 101.114 17.8124C101.114 15.9595 102.326 14.8271 104.04 14.8271C105.725 14.8419 106.848 16.0183 106.848 17.7242ZM102.592 17.783C102.592 18.8713 103.124 19.6948 103.996 19.6948C104.808 19.6948 105.37 18.9007 105.37 17.7683C105.37 16.886 104.971 15.886 103.996 15.886C103.005 15.886 102.592 16.8566 102.592 17.783Z" fill="#333333"/>
<path d="M108.018 16.6516C108.018 16.0045 108.003 15.4604 107.974 14.9751H109.23L109.304 15.8134H109.333C109.57 15.3722 110.19 14.8428 111.136 14.8428C112.126 14.8428 113.146 15.4751 113.146 17.2545V20.5928H111.713V17.4163C111.713 16.6075 111.417 15.9898 110.634 15.9898C110.072 15.9898 109.673 16.3869 109.525 16.8281C109.481 16.9604 109.466 17.1222 109.466 17.284V20.5781H108.033V16.6516H108.018Z" fill="#333333"/>
<path d="M118.701 13.3721V14.975H120.06V16.0338H118.701V18.5191C118.701 19.1956 118.893 19.5632 119.425 19.5632C119.661 19.5632 119.853 19.5338 119.986 19.4897L120.016 20.578C119.809 20.6515 119.439 20.7103 118.981 20.7103C118.464 20.7103 118.021 20.5338 117.755 20.2544C117.459 19.9309 117.311 19.4162 117.311 18.6809V16.0338H116.499V14.975H117.311V13.7103L118.701 13.3721Z" fill="#333333"/>
<path d="M121.125 12.4014H122.558V15.7543H122.588C122.765 15.4896 122.987 15.269 123.297 15.1072C123.578 14.9455 123.918 14.8572 124.272 14.8572C125.233 14.8572 126.238 15.4896 126.238 17.2984V20.6072H124.804V17.4455C124.804 16.622 124.509 16.019 123.711 16.019C123.149 16.019 122.765 16.3867 122.602 16.8131C122.558 16.9308 122.543 17.0778 122.543 17.2396V20.5925H121.11V12.4014H121.125Z" fill="#333333"/>
<path d="M128.78 18.181C128.81 19.1957 129.622 19.6368 130.524 19.6368C131.189 19.6368 131.662 19.5486 132.09 19.3868L132.297 20.3721C131.81 20.5633 131.145 20.7251 130.332 20.7251C128.499 20.7251 127.42 19.6074 127.42 17.8868C127.42 16.328 128.366 14.8574 130.184 14.8574C132.016 14.8574 132.622 16.3574 132.622 17.5927C132.622 17.8574 132.593 18.0633 132.578 18.1957H128.78V18.181ZM131.263 17.1957C131.278 16.681 131.041 15.828 130.095 15.828C129.209 15.828 128.839 16.6221 128.78 17.1957H131.263Z" fill="#333333"/>
</svg>
