<svg width="193" height="64" viewBox="0 0 193 64" fill="none" xmlns="http://www.w3.org/2000/svg">
<path d="M11.7892 0.5H181.097C185.207 0.5 188.023 1.35691 189.822 3.11942C191.617 4.8797 192.5 7.64484 192.5 11.7082V52.3671C192.5 56.4209 191.617 59.1661 189.823 60.9096C188.025 62.6564 185.208 63.5 181.097 63.5H11.7701C7.66733 63.5 4.8858 62.6608 3.1199 60.9214C1.35577 59.1838 0.5 56.4435 0.5 52.3859V11.7082C0.5 7.57679 0.931285 4.83407 2.47513 3.09421C4.00496 1.37014 6.75355 0.5 11.7892 0.5Z" stroke="white"/>
<path fill-rule="evenodd" clip-rule="evenodd" d="M50.3139 41.8309C49.3441 43.9579 48.8688 44.9179 47.6328 46.8003C45.8835 49.4356 43.4305 52.7109 40.3692 52.7297C37.6501 52.7485 36.9655 50.9791 33.2767 50.9979C29.6068 51.0167 28.8272 52.7485 26.1271 52.7297C23.0847 52.7109 20.7459 49.7367 18.9966 47.1014C14.1098 39.7414 13.5964 31.1014 16.6197 26.5085C18.7684 23.252 22.134 21.332 25.3095 21.332C28.542 21.332 30.5766 23.0826 33.2386 23.0826C35.8246 23.0826 37.4029 21.332 41.1488 21.332C43.982 21.332 46.9673 22.8567 49.097 25.492C42.1185 29.3132 43.2594 39.1956 50.3139 41.8309Z" fill="white"/>
<path fill-rule="evenodd" clip-rule="evenodd" d="M38.3361 18.4328C39.6862 16.701 40.732 14.2728 40.3517 11.7881C38.1269 11.9387 35.5409 13.3316 34.0198 15.1575C32.6507 16.814 31.5098 19.261 31.9471 21.6516C34.362 21.7081 36.872 20.2775 38.3361 18.4328Z" fill="white"/>
<path fill-rule="evenodd" clip-rule="evenodd" d="M175.775 45.2937H165.963C166.001 46.6113 166.476 47.7596 167.389 48.5313C168.207 49.209 169.291 49.529 170.603 49.529C172.067 49.529 173.379 49.2843 174.577 48.8137L175.09 51.0537C173.702 51.656 172.048 51.9384 170.146 51.9384C167.865 51.9384 166.077 51.2796 164.765 49.9431C163.472 48.6066 162.807 46.8372 162.807 44.5972C162.807 42.3949 163.415 40.569 164.632 39.1008C165.906 37.5384 167.636 36.7666 169.785 36.7666C171.915 36.7666 173.512 37.5384 174.596 39.1008C175.47 40.3431 175.908 41.9431 175.908 43.7502C175.889 44.3337 175.851 44.9172 175.775 45.2937ZM161.818 39.9478C161.628 39.8913 161.114 39.8725 160.753 39.8725C159.593 39.8725 158.699 40.3055 158.072 41.1525C157.52 41.9055 157.235 42.8655 157.235 44.0325V51.5055H154.003V41.6796C154.003 40.0043 153.927 38.5172 153.87 37.0113H156.722L156.836 40.0231H156.931C157.273 39.0819 157.825 38.2349 158.566 37.6513C159.289 37.1243 160.106 36.8419 160.962 36.8419C161.266 36.8419 161.609 36.8231 161.799 36.8608V39.9478H161.818ZM149.991 49.7925C148.641 51.2608 146.834 52.0137 144.59 52.0137C142.423 52.0137 140.692 51.2984 139.418 49.8866C138.144 48.4749 137.498 46.6678 137.498 44.5219C137.498 42.2631 138.163 40.4184 139.475 38.969C140.806 37.5196 142.575 36.8043 144.819 36.8043C146.986 36.8043 148.717 37.5008 150.029 38.9313C151.284 40.3055 151.911 42.0937 151.911 44.2584C151.93 46.5172 151.284 48.3431 149.991 49.7925ZM136.528 39.6466H133.105V46.6113C133.105 48.4184 133.676 49.3031 134.95 49.3031C135.539 49.3031 135.977 49.2655 136.357 49.1525L136.433 51.5996C135.787 51.8443 134.931 51.9572 133.885 51.9572C132.592 51.9572 131.546 51.5808 130.824 50.7902C130.082 50.0184 129.702 48.7008 129.702 46.856V39.6466H127.61V37.0113H129.702V34.4325L133.124 33.4725V37.0113H136.547V39.6466H136.528ZM125.024 50.2066C123.693 51.3925 121.83 51.976 119.453 51.976C117.247 51.976 115.498 51.5619 114.167 50.7149L114.927 48.0231C116.353 48.8513 117.932 49.2843 119.643 49.2843C120.879 49.2843 121.83 49.0019 122.533 48.456C123.218 47.9102 123.56 47.176 123.56 46.2349C123.56 45.4255 123.275 44.729 122.723 44.1643C122.153 43.5996 121.221 43.0913 119.909 42.6019C116.334 41.2843 114.547 39.3643 114.547 36.8231C114.547 35.1666 115.175 33.7925 116.43 32.7384C117.685 31.6843 119.358 31.1572 121.449 31.1572C123.313 31.1572 124.853 31.4772 126.089 32.1172L125.271 34.7525C124.111 34.1313 122.818 33.8302 121.354 33.8302C120.194 33.8302 119.301 34.1125 118.654 34.6584C118.103 35.1666 117.837 35.769 117.837 36.4843C117.837 37.2749 118.141 37.9337 118.768 38.4608C119.32 38.9313 120.309 39.4584 121.735 40.0231C123.503 40.7196 124.777 41.5478 125.614 42.489C126.431 43.4302 126.85 44.5972 126.85 45.9902C126.831 47.7219 126.222 49.1337 125.024 50.2066ZM106.124 50.0937C104.907 51.3737 103.385 52.0137 101.579 52.0137C99.6395 52.0137 98.3274 51.3172 97.3767 49.9431V57.7172H94.1442V41.8866C94.1442 40.3243 94.0872 38.8937 94.0111 37.0113H96.8823L97.0725 39.4584H97.1295C98.2324 37.7643 99.8867 36.8231 102.092 36.8231C103.823 36.8231 105.287 37.4819 106.447 38.8561C107.607 40.2113 108.196 41.9996 108.196 44.2208C108.158 46.7055 107.493 48.6443 106.124 50.0937ZM89.9419 50.0937C88.725 51.3737 87.2038 52.0137 85.3974 52.0137C83.4389 52.0137 82.1459 51.3172 81.1951 49.9431V57.7172H77.9626V41.8866C77.9626 40.3243 77.8866 38.8937 77.8105 37.0113H80.6817L80.8719 39.4584H80.9289C82.0318 37.7643 83.6861 36.8231 85.9108 36.8231C87.6411 36.8231 89.0863 37.4819 90.2652 38.8561C91.4251 40.2113 92.0145 41.9996 92.0145 44.2208C91.9955 46.7055 91.311 48.6443 89.9419 50.0937ZM72.4483 51.5055L70.5469 45.6702H63.8917L62.0663 51.5055H58.6816L65.2417 31.3643H69.3109L75.928 51.5055H72.4483ZM169.519 39.0066C168.454 39.0066 167.579 39.5525 166.914 40.4184C166.362 41.1149 166.039 41.8866 165.944 43.016H172.751C172.77 41.8866 172.561 41.1337 172.124 40.4372C171.572 39.5525 170.698 39.0066 169.519 39.0066ZM67.2003 34.1878H67.1432C66.9341 35.129 66.6108 36.3902 66.1735 38.0655L64.4811 43.4113H69.9574L68.2461 38.0655C68.0559 37.5196 67.6946 36.0702 67.2003 34.1878ZM101.009 39.3831C100.191 39.3831 99.4683 39.6466 98.8218 40.1737C98.1563 40.7196 97.719 41.3972 97.5288 42.2631C97.4338 42.6584 97.3767 42.9972 97.3767 43.2608V45.6702C97.3767 46.7243 97.719 47.6278 98.3655 48.3619C99.012 49.0772 99.8867 49.4537 100.932 49.4537C102.168 49.4537 103.138 48.9831 103.823 48.0419C104.507 47.1008 104.85 45.8584 104.85 44.3149C104.85 42.9031 104.526 41.736 103.88 40.8137C103.157 39.8725 102.206 39.3831 101.009 39.3831ZM144.705 39.176C143.392 39.176 142.404 39.7596 141.719 40.9078C141.13 41.8678 140.845 43.016 140.845 44.409C140.845 45.7455 141.13 46.8937 141.719 47.8537C142.423 49.0019 143.412 49.5855 144.685 49.5855C145.921 49.5855 146.91 49.0019 147.614 47.816C148.222 46.856 148.526 45.689 148.526 44.3525C148.526 43.016 148.241 41.8678 147.652 40.9078C146.967 39.7408 145.978 39.176 144.705 39.176ZM84.827 39.3831C84.0283 39.3831 83.2868 39.6466 82.6403 40.1737C81.9747 40.7196 81.5564 41.3972 81.3473 42.2631C81.2522 42.6584 81.1951 42.9972 81.1951 43.2608V45.6702C81.1951 46.7243 81.5184 47.6278 82.1839 48.3619C82.8304 49.0772 83.6861 49.4537 84.7509 49.4537C85.9869 49.4537 86.9566 48.9831 87.6411 48.0419C88.3257 47.1008 88.6679 45.8584 88.6679 44.3149C88.6679 42.9031 88.3447 41.736 87.6982 40.8137C86.9756 39.8725 86.0249 39.3831 84.827 39.3831Z" fill="white"/>
<path d="M60.8301 16.5323C61.6287 16.4005 62.6745 16.3252 63.7584 16.3252C65.6408 16.3252 66.9338 16.7017 67.8655 17.4734C68.8353 18.264 69.4248 19.4311 69.4248 21.144C69.4248 22.9134 68.8163 24.2499 67.8655 25.097C66.8578 26.0005 65.2605 26.4522 63.321 26.4522C62.2372 26.4522 61.4386 26.3958 60.8491 26.3205V16.5323H60.8301ZM62.6745 24.9652C62.9217 25.0028 63.321 25.0028 63.6823 25.0028C66.0782 25.0217 67.4853 23.7228 67.4853 21.1817C67.5043 18.9793 66.2113 17.7181 63.9105 17.7181C63.321 17.7181 62.9027 17.7558 62.6555 17.8123V24.9652H62.6745Z" fill="white"/>
<path d="M77.868 22.6868C77.868 25.322 75.9855 26.5079 74.1411 26.5079C72.0875 26.5079 70.4902 25.0962 70.4902 22.7997C70.4902 20.4279 72.0494 18.9785 74.2552 18.9785C76.4228 18.9973 77.868 20.5032 77.868 22.6868ZM72.3917 22.762C72.3917 24.155 73.0762 25.2091 74.1981 25.2091C75.2439 25.2091 75.9665 24.1926 75.9665 22.7432C75.9665 21.6138 75.4531 20.3338 74.1981 20.3338C72.9051 20.3338 72.3917 21.5762 72.3917 22.762Z" fill="white"/>
<path d="M80.3585 19.167L81.1191 22.4235C81.2902 23.1952 81.4424 23.967 81.5755 24.7576H81.6135C81.7656 23.967 81.9938 23.1764 82.2029 22.4423L83.1347 19.167H84.6178L85.5305 22.367C85.7587 23.2141 85.9489 23.9858 86.12 24.7764H86.158C86.2721 23.9858 86.4432 23.2141 86.6334 22.367L87.432 19.167H89.2384L86.9566 26.3576H85.2643L84.3896 23.4399C84.1615 22.687 84.0093 22.0093 83.8382 21.1435H83.8002C83.6481 22.0282 83.4579 22.7435 83.2488 23.4399L82.317 26.3576H80.6057L78.457 19.167H80.3585Z" fill="white"/>
<path d="M90.436 21.3133C90.436 20.4851 90.4169 19.7886 90.3789 19.1675H91.9952L92.0902 20.2404H92.1283C92.4325 19.6757 93.2311 18.998 94.4481 18.998C95.7221 18.998 97.0341 19.8075 97.0341 22.0851V26.358H95.1897V22.2922C95.1897 21.2569 94.8094 20.4663 93.8016 20.4663C93.079 20.4663 92.5656 20.9745 92.3755 21.5392C92.3184 21.7086 92.2994 21.9157 92.2994 22.1228V26.3392H90.455V21.3133H90.436Z" fill="white"/>
<path d="M98.975 15.873H100.819V26.3578H98.975V15.873Z" fill="white"/>
<path d="M109.718 22.6868C109.718 25.322 107.835 26.5079 105.991 26.5079C103.937 26.5079 102.34 25.0962 102.34 22.7997C102.34 20.4279 103.899 18.9785 106.105 18.9785C108.272 18.9973 109.718 20.5032 109.718 22.6868ZM104.241 22.762C104.241 24.155 104.926 25.2091 106.048 25.2091C107.094 25.2091 107.816 24.1926 107.816 22.7432C107.816 21.6138 107.303 20.3338 106.048 20.3338C104.755 20.3338 104.241 21.5762 104.241 22.762Z" fill="white"/>
<path d="M115.305 26.358L115.191 25.5675H115.153C114.697 26.1322 113.936 26.5275 113.004 26.5275C111.54 26.5275 110.723 25.4733 110.723 24.3816C110.723 22.5557 112.358 21.6522 115.039 21.671V21.558C115.039 21.0875 114.849 20.2969 113.556 20.2969C112.833 20.2969 112.092 20.5228 111.597 20.8239L111.236 19.638C111.768 19.318 112.719 18.998 113.86 18.998C116.18 18.998 116.864 20.4663 116.864 22.0286V24.6263C116.864 25.2851 116.902 25.9063 116.959 26.358H115.305ZM115.077 22.838C113.784 22.8004 112.548 23.0828 112.548 24.1745C112.548 24.8898 113.004 25.2098 113.594 25.2098C114.316 25.2098 114.868 24.7392 115.02 24.2122C115.058 24.0804 115.077 23.9298 115.077 23.8169V22.838Z" fill="white"/>
<path d="M125.52 15.873V24.3436C125.52 25.0778 125.558 25.8872 125.577 26.3766H123.941L123.865 25.2472H123.827C123.39 26.0378 122.515 26.546 121.45 26.546C119.72 26.546 118.351 25.0778 118.351 22.8754C118.332 20.466 119.853 19.0354 121.603 19.0354C122.61 19.0354 123.314 19.4495 123.656 19.9766H123.694V15.873H125.52ZM123.675 22.1601C123.675 22.0095 123.656 21.8401 123.637 21.6895C123.466 20.9742 122.896 20.4095 122.059 20.4095C120.88 20.4095 120.214 21.4448 120.214 22.7813C120.214 24.0989 120.88 25.0589 122.04 25.0589C122.781 25.0589 123.447 24.5507 123.618 23.7789C123.656 23.6095 123.675 23.4401 123.675 23.2519V22.1601Z" fill="white"/>
<path d="M137.477 22.6868C137.477 25.322 135.595 26.5079 133.75 26.5079C131.697 26.5079 130.1 25.0962 130.1 22.7997C130.1 20.4279 131.659 18.9785 133.865 18.9785C136.032 18.9973 137.477 20.5032 137.477 22.6868ZM132.001 22.762C132.001 24.155 132.686 25.2091 133.807 25.2091C134.853 25.2091 135.576 24.1926 135.576 22.7432C135.576 21.6138 135.062 20.3338 133.807 20.3338C132.533 20.3338 132.001 21.5762 132.001 22.762Z" fill="white"/>
<path d="M138.983 21.3133C138.983 20.4851 138.964 19.7886 138.926 19.1675H140.542L140.637 20.2404H140.675C140.979 19.6757 141.778 18.998 142.995 18.998C144.269 18.998 145.581 19.8075 145.581 22.0851V26.358H143.737V22.2922C143.737 21.2569 143.356 20.4663 142.348 20.4663C141.626 20.4663 141.112 20.9745 140.922 21.5392C140.865 21.7086 140.846 21.9157 140.846 22.1228V26.3392H139.002V21.3133H138.983Z" fill="white"/>
<path d="M152.728 17.1152V19.167H154.477V20.5223H152.728V23.7035C152.728 24.5694 152.975 25.0399 153.659 25.0399C153.964 25.0399 154.211 25.0023 154.382 24.9458L154.42 26.3388C154.154 26.4329 153.678 26.5082 153.089 26.5082C152.423 26.5082 151.853 26.2823 151.511 25.9246C151.13 25.5105 150.94 24.8517 150.94 23.9105V20.5223H149.895V19.167H150.94V17.5482L152.728 17.1152Z" fill="white"/>
<path d="M155.847 15.873H157.692V20.1648H157.73C157.958 19.826 158.243 19.5436 158.642 19.3366C159.004 19.1295 159.441 19.0166 159.897 19.0166C161.133 19.0166 162.426 19.826 162.426 22.1413V26.3766H160.582V22.3295C160.582 21.2754 160.202 20.5036 159.175 20.5036C158.452 20.5036 157.958 20.9742 157.749 21.5201C157.692 21.6707 157.673 21.8589 157.673 22.066V26.3578H155.828V15.873H155.847Z" fill="white"/>
<path d="M165.697 23.2707C165.735 24.5695 166.78 25.1343 167.94 25.1343C168.796 25.1343 169.405 25.0213 169.956 24.8143L170.222 26.0754C169.595 26.3201 168.739 26.5272 167.693 26.5272C165.335 26.5272 163.947 25.0966 163.947 22.8943C163.947 20.899 165.164 19.0166 167.503 19.0166C169.861 19.0166 170.64 20.9366 170.64 22.5178C170.64 22.8566 170.602 23.1201 170.583 23.2895H165.697V23.2707ZM168.891 22.0095C168.91 21.3507 168.606 20.259 167.389 20.259C166.248 20.259 165.773 21.2754 165.697 22.0095H168.891Z" fill="white"/>
</svg>
