<svg width="539" height="382" viewBox="0 0 539 382" fill="none" xmlns="http://www.w3.org/2000/svg">
<g clip-path="url(#clip0_1_1026)">
<path opacity="0.1" d="M179.17 381.525C205.415 381.525 226.691 378.108 226.691 373.893C226.691 369.678 205.415 366.26 179.17 366.26C152.925 366.26 131.649 369.678 131.649 373.893C131.649 378.108 152.925 381.525 179.17 381.525Z" fill="#6C63FF"/>
<path opacity="0.1" d="M437.489 381.74C470.239 381.74 496.788 378.323 496.788 374.108C496.788 369.892 470.239 366.475 437.489 366.475C404.739 366.475 378.19 369.892 378.19 374.108C378.19 378.323 404.739 381.74 437.489 381.74Z" fill="#6C63FF"/>
<path opacity="0.1" d="M6.74964 164.939H56.246V232.402H10.3732C10.2513 233.095 10.1343 233.792 10.0075 234.49H56.246V288.897C56.1631 288.873 56.09 288.844 56.0119 288.814C54.7049 288.297 53.4076 287.751 52.1103 287.166L51.2813 286.79C49.9807 286.176 48.6802 285.526 47.3797 284.84C46.9261 284.601 46.4726 284.352 46.0239 284.098C38.8039 280.054 32.245 274.929 26.5745 268.902C26.4087 268.741 26.2526 268.57 26.0868 268.414C25.2968 267.556 24.5213 266.687 23.7703 265.8L22.9412 264.824C22.0536 263.737 21.1952 262.62 20.3613 261.489C20.2393 261.323 20.1223 261.157 19.9955 261.001C16.6038 256.298 13.7876 251.206 11.6071 245.834C11.5388 245.673 11.4803 245.497 11.4169 245.346C10.7471 243.623 10.1538 241.883 9.63681 240.128C9.41247 239.391 9.19788 238.664 9.01255 237.899C8.94428 237.674 8.88575 237.455 8.83211 237.235C6.06199 226.423 5.73523 215.192 5.73523 204.038C5.73523 202.736 5.73523 201.429 5.73523 200.136C5.73523 195.625 5.78888 191.085 5.86691 186.549C5.86691 185.374 5.91568 184.203 5.94006 183.023C6.00834 180.029 6.10588 177.034 6.23268 174.04C6.26194 173.206 6.30096 172.377 6.34485 171.548C6.34485 171.07 6.36924 170.592 6.41801 170.114C6.53505 168.378 6.63259 166.656 6.74964 164.939Z" fill="white"/>
<path opacity="0.1" d="M56.2462 89.824H29.0961C33.5095 82.9161 38.3316 76.2781 43.5368 69.9454C47.57 64.9904 51.8276 60.1622 56.2462 55.5096V89.824Z" fill="white"/>
<path opacity="0.1" d="M56.2462 91.9114V162.852H6.90588C6.90588 162.647 6.94002 162.437 6.95465 162.232C6.99855 161.672 7.04244 161.111 7.09121 160.555C7.14485 159.901 7.20338 159.243 7.26678 158.604C7.33018 157.965 7.39846 157.185 7.47161 156.478C7.54477 155.77 7.61304 155.054 7.69595 154.346C7.77886 153.639 7.85202 152.932 7.9398 152.23C8.02759 151.527 8.10562 150.815 8.19828 150.113C8.27144 149.528 8.34946 148.948 8.4275 148.362C8.53967 147.538 8.65672 146.709 8.78352 145.89C8.78352 145.768 8.81766 145.641 8.83716 145.524C9.7273 139.526 10.9402 133.581 12.4705 127.713C14.0724 121.558 16.1179 115.528 18.5911 109.668C21.2196 103.539 24.2972 97.6119 27.7988 91.9358L56.2462 91.9114Z" fill="white"/>
<path opacity="0.1" d="M68.063 164.934V232.402H173.781V164.934H68.063ZM68.063 234.485V292.423C68.6678 292.55 69.2677 292.672 69.8627 292.774C70.6722 292.93 71.4769 293.072 72.3011 293.194C72.4572 293.218 72.6181 293.242 72.7888 293.257C73.1107 293.311 73.4423 293.355 73.7642 293.399C74.5787 293.511 75.3883 293.603 76.2027 293.677C76.588 293.716 76.9782 293.75 77.3683 293.779L78.3096 293.852C78.8216 293.891 79.3288 293.92 79.8312 293.935C80.1433 293.935 80.4554 293.964 80.7773 293.974C81.0212 293.974 81.265 293.974 81.5186 293.974C81.7722 293.974 82.1331 293.974 82.4404 293.974C82.8598 293.974 83.2792 293.974 83.6937 293.974H84.2546C84.674 293.974 85.0934 293.974 85.508 293.935H85.5372C85.825 293.935 86.1176 293.935 86.4102 293.896C86.4914 293.901 86.5728 293.901 86.6541 293.896C86.8979 293.896 87.1418 293.896 87.3758 293.862H87.5465L89.1803 293.735C89.7168 293.686 90.2581 293.623 90.8044 293.564L91.9163 293.433C96.4401 292.799 100.914 291.847 105.304 290.585C115.165 287.834 124.811 283.986 134.668 281.167C147.411 277.534 161.491 275.749 173.806 280.192V234.485H68.063ZM173.781 89.8241V0.00487819C162.207 -0.12052 150.664 1.23323 139.433 4.03326C112.663 10.7586 88.6439 25.3456 68.063 43.9757V89.8192H73.3692V91.9016H68.063V162.852H173.781V91.9065H95.1546V89.8241H173.781ZM309.571 59.4844C302.948 59.2503 296.364 57.1532 290.409 53.9149C279.021 47.7212 269.926 38.1574 259.762 30.086C238.645 13.2751 212.456 3.13102 185.588 0.6145V89.8241H336.506L336.882 89.429L309.571 59.4844ZM323.319 57.0459L337.896 73.0424V52.8517C333.014 53.4565 328.737 54.8952 323.338 57.0264L323.319 57.0459ZM337.896 306.81V234.485H306.835C306.752 234.177 306.669 233.865 306.571 233.553C306.664 233.865 306.742 234.177 306.83 234.485H185.608V286.79C186.759 287.644 187.895 288.541 189.022 289.453C190.236 290.428 191.436 291.458 192.64 292.467L193.855 293.472C194.435 293.959 195.02 294.447 195.61 294.906C196.781 295.855 197.963 296.791 199.156 297.715C199.746 298.202 200.351 298.641 200.951 299.1C210.474 306.381 220.52 312.952 231.008 318.759C233.358 320.059 235.73 321.329 238.123 322.568C239.718 323.382 241.322 324.192 242.932 324.977C245.351 326.157 247.789 327.295 250.247 328.391C272.909 338.563 296.872 345.544 321.451 349.133C326.91 349.939 332.39 350.573 337.891 351.035V306.805H338.379L337.896 306.81ZM185.608 91.9065V162.852H337.916V91.9065H185.608ZM185.608 164.934V232.402H337.916V164.934H185.608ZM349.737 52.764V75.2858L368.343 54.8708C362.179 53.8759 355.977 53.1655 349.737 52.7396V52.764ZM349.737 164.959V232.402H497.875V164.934L349.737 164.959ZM497.334 312.165L497.856 234.485H349.737V351.81C359.279 352.211 368.836 352.097 378.365 351.469H378.531C383.083 351.183 387.614 350.766 392.123 350.22H392.226C416.284 347.42 439.809 341.143 462.064 331.585M526.44 176.044C525.884 174.732 525.303 173.43 524.713 172.142C523.611 169.704 522.446 167.334 521.246 164.964H509.687V232.402H538.91C538.896 213.304 534.062 193.796 526.454 176.02L526.44 176.044ZM509.687 234.509V301.324C517.92 293.433 524.874 284.405 529.883 274.086C535.906 261.659 538.661 248.204 538.886 234.499L509.687 234.509ZM509.687 145.3V162.857H520.163C516.994 156.813 513.502 150.944 509.702 145.275L509.687 145.3ZM409.222 66.0001C408.451 65.7074 407.681 65.4099 406.905 65.1222C398.727 62.102 390.37 59.5905 381.882 57.6019L353.41 88.8487L352.864 89.429L353.229 89.8289H454.563C440.45 80.1142 425.235 72.1072 409.236 65.9757L409.222 66.0001ZM457.533 91.9309H351.815L349.737 93.8329V162.852H367.948H367.977H497.895V129.42C486.142 115.207 472.578 102.595 457.548 91.9065L457.533 91.9309Z" fill="white"/>
<path opacity="0.1" d="M56.2462 127.694V162.852H6.90588C6.90588 162.647 6.94002 162.437 6.95465 162.232C6.99855 161.672 7.04244 161.111 7.09121 160.555C7.14485 159.901 7.20338 159.243 7.26678 158.604C7.33018 157.965 7.39846 157.185 7.47161 156.478C7.54477 155.77 7.61304 155.054 7.69595 154.346C7.77886 153.639 7.85202 152.932 7.9398 152.23C8.02759 151.528 8.10562 150.815 8.19828 150.113C8.27144 149.528 8.34946 148.948 8.4275 148.362C8.53967 147.538 8.65672 146.709 8.78352 145.89C8.78352 145.768 8.81766 145.641 8.83716 145.524C9.7273 139.526 10.9402 133.581 12.4705 127.713L56.2462 127.694Z" fill="white"/>
<path opacity="0.1" d="M6.74964 164.939H56.246V232.402H10.3732C10.2513 233.095 10.1343 233.792 10.0075 234.49H56.246V288.897C56.1631 288.873 56.0899 288.844 56.0119 288.814C54.7049 288.297 53.4076 287.751 52.1103 287.166L51.2813 286.79C49.9807 286.176 48.6802 285.526 47.3797 284.84C46.9261 284.601 46.4726 284.352 46.0239 284.098C38.8039 280.054 32.245 274.929 26.5745 268.902C26.4087 268.741 26.2526 268.57 26.0868 268.414C25.2968 267.556 24.5213 266.687 23.7703 265.8L22.9412 264.824C22.0536 263.737 21.1952 262.62 20.3613 261.489C20.2393 261.323 20.1223 261.157 19.9955 261.001C16.6038 256.298 13.7876 251.206 11.6071 245.834C11.5388 245.673 11.4803 245.497 11.4169 245.346C10.7471 243.623 10.1538 241.883 9.63681 240.128C9.41247 239.391 9.19788 238.664 9.01255 237.899C8.94428 237.674 8.88575 237.455 8.83211 237.235C6.06199 226.423 5.73523 215.192 5.73523 204.038C5.73523 202.736 5.73523 201.429 5.73523 200.136C5.73523 195.625 5.78888 191.085 5.86691 186.549C5.86691 185.374 5.91568 184.203 5.94006 183.023C6.00834 180.029 6.10588 177.034 6.23268 174.04C6.26194 173.206 6.30096 172.377 6.34485 171.548C6.34485 171.07 6.36924 170.592 6.41801 170.114C6.53505 168.378 6.63259 166.656 6.74964 164.939Z" fill="white"/>
<path opacity="0.1" d="M105.279 102.065V162.852H68.063V102.065H73.3692V81.4845H95.1497V102.065H105.279Z" fill="white"/>
<path opacity="0.1" d="M105.279 164.934H68.0678V232.397H105.279V164.934Z" fill="white"/>
<path opacity="0.1" d="M68.063 234.49H105.279V290.575C100.889 291.836 96.4157 292.786 91.8919 293.418L90.78 293.555C90.2338 293.618 89.6924 293.672 89.1559 293.725C88.6195 293.779 88.0635 293.818 87.5222 293.852H87.3515C87.1174 293.852 86.8638 293.881 86.6346 293.886H86.3858C86.0932 293.886 85.8006 293.916 85.508 293.925C85.0934 293.95 84.6789 293.955 84.2546 293.959C84.0741 293.959 83.9034 293.959 83.723 293.959C83.3036 293.959 82.889 293.959 82.4696 293.959H81.5479C81.2991 293.959 81.0602 293.959 80.8017 293.959L79.8604 293.925C79.3727 293.925 78.846 293.872 78.3388 293.838L77.4024 293.769L76.2368 293.662C75.4175 293.589 74.6031 293.496 73.7984 293.384L72.823 293.247L72.3353 293.179C71.5208 293.052 70.7161 292.916 69.8968 292.76C69.2969 292.657 68.7019 292.53 68.0972 292.409L68.063 234.49Z" fill="white"/>
<path opacity="0.1" d="M337.916 94.8864H307.23V162.847H337.916V94.8864Z" fill="#6C63FF"/>
<path opacity="0.1" d="M337.92 164.934V232.402H185.608V203.301H266.736V220.468H307.23V164.934H337.92Z" fill="white"/>
<path opacity="0.1" d="M338.403 306.825H337.916V351.083C332.421 350.618 326.942 349.986 321.48 349.186C296.889 345.586 272.916 338.591 250.247 328.401C243.702 325.455 237.291 322.239 231.012 318.754C220.525 312.944 210.478 306.373 200.951 299.095C198.558 297.261 196.196 295.385 193.864 293.467C192.25 292.135 190.646 290.77 189.022 289.443C187.895 288.531 186.759 287.634 185.608 286.776V234.49H306.825C306.742 234.177 306.659 233.865 306.571 233.558C306.664 233.865 306.752 234.177 306.835 234.49H337.916V306.796C338.081 306.8 338.242 306.815 338.403 306.825Z" fill="white"/>
<path opacity="0.1" d="M417.947 89.8241H397.951V83.6109H406.915V65.1028C407.692 65.3856 408.466 65.6766 409.236 65.9758V83.6109H417.947V89.8241Z" fill="white"/>
<path opacity="0.1" d="M466.121 162.852H367.958C367.958 162.852 367.958 162.852 367.992 162.876L367.948 162.852H349.737V94.8912H354.897V145.124H378.477V115.374H397.956V91.9114H417.951V115.394H437.43V145.144H466.121V162.852Z" fill="white"/>
<path opacity="0.1" d="M349.737 164.934V232.402H466.121V164.934H349.737ZM497.714 311.819L497.875 258.416H466.121V234.519H349.737V351.81C359.279 352.211 368.836 352.097 378.365 351.469H378.531C383.083 351.182 387.614 350.766 392.123 350.22H392.225C416.284 347.42 439.809 341.143 462.064 331.585" fill="white"/>
<path opacity="0.1" d="M511.755 234.49H538.905C538.666 248.189 535.916 261.645 529.897 274.071C524.889 284.396 517.929 293.423 509.707 301.309V258.392H511.755V234.49Z" fill="white"/>
<path opacity="0.1" d="M538.92 232.402H511.755V176.02H526.454C534.062 193.796 538.896 213.304 538.92 232.402Z" fill="white"/>
<path opacity="0.1" d="M337.921 113.78H321.48V135.087H337.921V113.78Z" fill="#6C63FF"/>
<path opacity="0.1" d="M337.921 157.945H321.48V162.852H337.921V157.945Z" fill="#6C63FF"/>
<path opacity="0.1" d="M337.921 164.934H321.48V179.248H337.921V164.934Z" fill="white"/>
<path opacity="0.1" d="M337.921 202.111H321.48V223.419H337.921V202.111Z" fill="white"/>
<path opacity="0.1" d="M337.921 246.277H321.48V267.585H337.921V246.277Z" fill="white"/>
<path opacity="0.1" d="M337.916 306.796C338.081 306.796 338.242 306.796 338.403 306.825H337.916V311.775H321.48V290.443H337.916V306.796Z" fill="white"/>
<path opacity="0.1" d="M337.916 334.599V351.059C332.421 350.594 326.942 349.962 321.48 349.162V334.599H337.916Z" fill="white"/>
<path opacity="0.1" d="M256.065 230.837H185.608V232.402H256.065V230.837Z" fill="#6C63FF"/>
<path opacity="0.1" d="M256.065 234.485H185.608V240.483H256.065V234.485Z" fill="white"/>
<path opacity="0.1" d="M256.065 260.147H185.608V269.794H256.065V260.147Z" fill="white"/>
<path opacity="0.1" d="M256.06 289.458V299.105H200.951C198.558 297.277 196.194 295.401 193.859 293.477C192.245 292.145 190.646 290.78 189.017 289.458H256.06Z" fill="white"/>
<path opacity="0.1" d="M256.061 318.764V328.401H250.242C243.704 325.452 237.294 322.234 231.012 318.749L256.061 318.764Z" fill="white"/>
<path opacity="0.1" d="M392.24 171.474H378.37V185.344H392.24V171.474Z" fill="white"/>
<path opacity="0.1" d="M91.9259 106.849H78.0558V120.72H91.9259V106.849Z" fill="white"/>
<path opacity="0.1" d="M91.9259 139.067H78.0558V152.937H91.9259V139.067Z" fill="white"/>
<path opacity="0.1" d="M91.9259 171.284H78.0558V185.154H91.9259V171.284Z" fill="white"/>
<path opacity="0.1" d="M91.9259 203.496H78.0558V217.366H91.9259V203.496Z" fill="white"/>
<path opacity="0.1" d="M91.9259 235.714H78.0558V249.584H91.9259V235.714Z" fill="#6C63FF"/>
<path opacity="0.1" d="M91.9259 267.931H78.0558V281.801H91.9259V267.931Z" fill="white"/>
<path opacity="0.1" d="M445.189 171.474H431.319V185.344H445.189V171.474Z" fill="#6C63FF"/>
<path opacity="0.1" d="M392.24 205.686H378.37V219.556H392.24V205.686Z" fill="white"/>
<path opacity="0.1" d="M445.189 205.686H431.319V219.556H445.189V205.686Z" fill="#6C63FF"/>
<path opacity="0.1" d="M392.24 239.893H378.37V253.763H392.24V239.893Z" fill="white"/>
<path opacity="0.1" d="M445.189 239.893H431.319V253.763H445.189V239.893Z" fill="#6C63FF"/>
<path opacity="0.1" d="M392.24 274.105H378.37V287.975H392.24V274.105Z" fill="white"/>
<path opacity="0.1" d="M445.189 274.105H431.319V287.975H445.189V274.105Z" fill="#6C63FF"/>
<path opacity="0.1" d="M392.24 308.317H378.37V322.187H392.24V308.317Z" fill="white"/>
<path opacity="0.1" d="M445.189 308.317H431.319V322.187H445.189V308.317Z" fill="white"/>
<path opacity="0.1" d="M378.37 351.469V342.524H392.235V350.196L378.37 351.469Z" fill="white"/>
<path opacity="0.1" d="M8.77856 145.514V153.449H56.2461V145.514H8.77856ZM13.5092 152.952H9.63691V146.002H13.5385L13.5092 152.952ZM18.235 152.952H14.3334V146.002H18.235V152.952ZM22.951 152.952H19.0495V146.002H22.951V152.952ZM27.6768 152.952H23.7801V146.002H27.6817L27.6768 152.952ZM32.3977 152.952H28.4962V146.002H32.3977V152.952ZM37.1235 152.952H33.2219V146.002H37.1235V152.952ZM41.8493 152.952H37.9477V146.002H41.8493V152.952ZM46.5702 152.952H42.6686V146.002H46.5702V152.952ZM51.2911 152.952H47.3895V146.002H51.2911V152.952ZM56.012 152.952H52.1104V146.002H56.012V152.952Z" fill="white"/>
<path opacity="0.1" d="M8.77856 168.602V176.537H56.2461V168.602H8.77856ZM13.5092 176.034H9.63691V169.104H13.5385L13.5092 176.034ZM18.235 176.034H14.3334V169.104H18.235V176.034ZM22.951 176.034H19.0495V169.104H22.951V176.034ZM27.6768 176.034H23.7801V169.104H27.6817L27.6768 176.034ZM32.3977 176.034H28.4962V169.104H32.3977V176.034ZM37.1235 176.034H33.2219V169.104H37.1235V176.034ZM41.8493 176.034H37.9477V169.104H41.8493V176.034ZM46.5702 176.034H42.6686V169.104H46.5702V176.034ZM51.2911 176.034H47.3895V169.104H51.2911V176.034ZM56.012 176.034H52.1104V169.104H56.012V176.034Z" fill="white"/>
<path opacity="0.1" d="M8.77856 191.699V199.648H56.2461V191.699H8.77856ZM13.5092 199.131H9.63691V192.196H13.5385L13.5092 199.131ZM18.235 199.131H14.3334V192.196H18.235V199.131ZM22.951 199.131H19.0495V192.196H22.951V199.131ZM27.6768 199.131H23.7801V192.196H27.6817L27.6768 199.131ZM32.3977 199.131H28.4962V192.196H32.3977V199.131ZM37.1235 199.131H33.2219V192.196H37.1235V199.131ZM41.8493 199.131H37.9477V192.196H41.8493V199.131ZM46.5702 199.131H42.6686V192.196H46.5702V199.131ZM51.2911 199.131H47.3895V192.196H51.2911V199.131ZM56.012 199.131H52.1104V192.196H56.012V199.131Z" fill="white"/>
<path opacity="0.1" d="M8.77856 214.797V222.722H56.2461V214.797H8.77856ZM13.5092 222.229H9.63691V215.289H13.5385L13.5092 222.229ZM18.235 222.229H14.3334V215.289H18.235V222.229ZM22.951 222.229H19.0495V215.289H22.951V222.229ZM27.6768 222.229H23.7801V215.289H27.6817L27.6768 222.229ZM32.3977 222.229H28.4962V215.289H32.3977V222.229ZM37.1235 222.229H33.2219V215.289H37.1235V222.229ZM41.8493 222.229H37.9477V215.289H41.8493V222.229ZM46.5702 222.229H42.6686V215.289H46.5702V222.229ZM51.2911 222.229H47.3895V215.289H51.2911V222.229ZM56.012 222.229H52.1104V215.289H56.012V222.229Z" fill="white"/>
<path opacity="0.1" d="M8.98334 237.889C9.17354 238.635 9.38812 239.381 9.61246 240.118V238.386H13.514V245.321H11.4267C11.4901 245.482 11.5535 245.658 11.6169 245.809H56.2461V237.889H8.98334ZM18.2496 245.321H14.348V238.386H18.2496V245.321ZM22.9656 245.321H19.064V238.386H22.9656V245.321ZM27.6914 245.321H23.7801V238.386H27.6816L27.6914 245.321ZM32.4123 245.321H28.5107V238.386H32.4123V245.321ZM37.1381 245.321H33.2365V238.386H37.1381V245.321ZM41.8639 245.321H37.9623V238.386H41.8639V245.321ZM46.5848 245.321H42.6832V238.386H46.5848V245.321ZM51.3057 245.321H47.4041V238.386H51.3057V245.321ZM56.0266 245.321H52.125V238.386H56.0266V245.321Z" fill="white"/>
<path opacity="0.1" d="M20.0054 260.986C20.1273 261.142 20.2443 261.318 20.3711 261.474H22.9511V264.805C23.229 265.137 23.5022 265.468 23.785 265.78V261.454H27.6866V268.414H26.1065C26.2625 268.575 26.4137 268.746 26.5942 268.902H56.2608V260.986H20.0054ZM32.3978 268.414H28.4962V261.484H32.3978V268.414ZM37.1235 268.414H33.222V261.484H37.1235V268.414ZM41.8493 268.414H37.9477V261.484H41.8493V268.414ZM46.5702 268.414H42.6686V261.484H46.5702V268.414ZM51.2911 268.414H47.3896V261.484H51.2911V268.414ZM56.012 268.414H52.1105V261.484H56.012V268.414Z" fill="#6C63FF"/>
<path opacity="0.1" d="M46.0436 284.079C46.4874 284.332 46.9409 284.566 47.3994 284.82V284.576H51.301V286.771L52.13 287.156V284.576H56.0316V288.795C56.1064 288.832 56.1849 288.861 56.2657 288.883V284.079H46.0436Z" fill="#6C63FF"/>
<path opacity="0.1" d="M306.571 233.553C306.664 233.865 306.742 234.177 306.83 234.485C306.752 234.177 306.669 233.865 306.571 233.553ZM73.3887 89.8094V91.8918H95.1741V89.8094H73.3887ZM306.571 233.553C306.664 233.865 306.742 234.177 306.83 234.485C306.752 234.177 306.669 233.865 306.571 233.553ZM306.571 233.553C306.664 233.865 306.742 234.177 306.83 234.485C306.752 234.177 306.669 233.865 306.571 233.553Z" fill="#6C63FF"/>
<path d="M225.121 185.164C225.121 185.164 223.199 184.896 223.199 182.096C223.199 179.297 221.824 174.069 221.824 174.069C221.824 174.044 220.634 164.963 218.991 163.52C217.347 162.076 215.235 153.6 215.235 153.6C215.235 153.6 214.874 149.001 214.138 148.011C213.402 147.021 212.407 144.597 210.939 141.139C209.471 137.682 203.35 135.287 203.35 135.287C203.35 135.287 192.284 128.869 189.148 126.777C188.863 126.605 188.597 126.404 188.353 126.177C187.807 125.46 185.427 125.445 185.427 125.445C185.179 123.875 184.94 122.071 184.862 120.437C184.862 120.261 184.862 120.086 184.837 119.91C188.334 117.843 190.968 114.584 192.255 110.732C192.314 110.546 192.362 110.351 192.416 110.166C192.625 110.097 192.818 109.985 192.982 109.837C193.146 109.689 193.277 109.509 193.367 109.308C193.65 108.678 193.655 107.942 194.006 107.357C194.416 106.664 195.196 106.294 195.81 105.772C197.361 104.455 197.761 102.236 197.688 100.217C197.639 98.583 197.376 96.9346 197.478 95.3106L197.508 94.9009C197.537 94.6571 197.571 94.4132 197.615 94.1791C197.854 92.9696 198.376 91.8284 198.668 90.6287C198.961 89.429 198.99 88.078 198.307 87.0441C197.308 85.5274 195.225 85.225 193.396 85.069C191.324 84.8934 189.47 85.1226 188.144 83.401C187.523 82.5012 186.824 81.6576 186.056 80.8796C185.783 80.626 183.13 79.0069 183.13 78.8996C180.541 77.7003 177.606 77.4752 174.864 78.2656C173.488 78.6655 172.191 79.319 170.796 79.6458C167.787 80.3578 164.325 79.5872 161.769 81.3088C160.345 82.2842 159.492 83.8351 158.692 85.3469C158.041 86.5922 157.381 87.8358 156.712 89.0778C155.634 91.1213 154.537 93.1989 154.083 95.4618C153.988 95.9542 153.929 96.453 153.907 96.9541V96.9785C153.907 97.159 153.907 97.3394 153.907 97.5199V97.7491C153.907 97.9198 153.907 98.0856 153.937 98.2368C153.966 98.388 153.961 98.4367 153.976 98.5391C153.99 98.6416 154.015 98.8708 154.044 99.0268C154.073 99.1829 154.132 99.456 154.19 99.6706C154.215 99.7633 154.249 99.851 154.278 99.9388C154.327 100.105 154.385 100.266 154.449 100.427C154.483 100.509 154.517 100.597 154.556 100.68C154.629 100.851 154.717 101.017 154.805 101.168C154.844 101.236 154.873 101.3 154.912 101.363C155.048 101.59 155.198 101.808 155.361 102.016C156.404 103.319 157.941 104.148 159.077 105.367C159.077 105.416 159.077 105.464 159.077 105.508C159.077 105.645 159.077 105.777 159.077 105.913C159.137 108.632 159.861 111.296 161.185 113.671C162.51 116.047 164.394 118.063 166.675 119.544C166.675 119.73 166.7 119.92 166.709 120.105C166.805 121.553 166.787 123.006 166.656 124.45C166.457 124.217 166.209 124.03 165.928 123.905C165.648 123.78 165.343 123.72 165.037 123.729C164.827 123.718 164.617 123.737 164.412 123.782L164.368 123.748V123.792C163.296 124.055 161.974 125.172 160.711 128.347C160.711 128.347 156.868 132.678 153.942 132.497C151.015 132.317 143.607 137.004 143.607 137.004C143.607 137.004 136.38 141.695 134.829 146.475C133.962 149.185 132.923 151.837 131.717 154.415L122.783 172.825L121.134 187.432C121.134 187.432 122.046 193.928 121.866 194.918C121.685 195.908 125.616 204.838 125.616 204.838C125.616 204.838 138.603 227.657 143.91 228.827L144.29 228.559C144.517 228.678 144.758 228.768 145.007 228.827L146.099 228.057C146.165 228.916 146.137 229.779 146.016 230.632C145.285 232.885 146.29 247.589 147.567 250.471C148.845 253.354 148.392 291.145 148.392 291.145L148.211 294.481C148.211 294.481 148.211 294.588 148.255 294.774L148.211 295.564L148.343 295.632C148.48 296.69 148.435 297.764 148.211 298.807C147.753 300.27 147.567 304.406 147.567 304.406C147.567 304.406 143.914 327.757 145.646 332.448C147.377 337.14 148.85 342.28 148.85 342.28C148.85 342.28 150.679 348.133 148.938 349.133C147.197 350.132 142.247 351.81 143.266 354.248C144.192 356.502 147.709 362.539 148.231 363.422L148.187 363.885L147.47 371.654C147.586 372.68 147.864 373.681 148.294 374.62C149.079 376.312 150.606 378.068 153.507 377.877C153.995 377.843 154.561 377.785 155.107 377.712C160.418 377 166.958 374.629 166.958 374.629C166.619 374.414 166.307 374.156 166.032 373.864C165.77 373.611 165.564 373.307 165.424 372.972C165.284 372.637 165.213 372.276 165.217 371.913C165.295 370.499 162.647 363.759 161.989 362.1C161.886 361.861 161.832 361.725 161.832 361.725C161.832 361.725 167.87 355.414 166.866 349.82C166.866 349.82 160.184 345.919 162.384 343.778C164.583 341.637 168.514 335.487 168.514 335.487C168.514 335.487 168.694 312.492 168.514 309.058C168.326 306.675 168.439 304.278 168.85 301.923C168.924 301.567 169.011 301.221 169.104 300.88C172.146 301.334 175.217 301.567 178.292 301.577C179.414 301.577 180.555 301.577 181.706 301.509C181.706 301.834 181.721 302.185 181.75 302.562C182.004 308.259 182.477 318.247 182.862 321.958C183.408 327.279 186.427 341.617 186.427 341.617C186.427 341.617 180.667 345.314 187.432 354.424C187.432 354.424 187.432 357.726 186.983 358.204C186.504 359.766 186.118 361.356 185.827 362.964C185.544 364.68 185.427 366.417 185.886 367.319C186.983 369.474 193.567 369.299 193.567 369.299L193.728 369.27C194.971 369.141 196.227 369.261 197.423 369.622C198.62 369.982 199.732 370.577 200.697 371.372C203.199 373.381 212.694 372.498 217.835 371.859C219.849 371.606 221.195 371.372 221.195 371.372C221.26 371.144 221.283 370.906 221.263 370.669C221.21 369.406 220.22 366.636 213.509 364.163C213.509 364.163 207.198 359.92 207.286 356.224H207.154H206.423C206.954 356.194 207.296 356.224 207.296 356.224C207.296 356.224 204.823 347.201 205.833 346.47C206.842 345.738 203.818 335.74 203.818 335.74C203.818 335.74 202.087 318.964 201.994 317.788C201.998 316.78 202.151 315.777 202.448 314.813L201.994 305.615C201.994 305.615 201.907 302.557 201.994 301.563C201.98 300.699 201.909 299.837 201.785 298.983C201.741 298.641 201.697 298.285 201.648 297.934C204.013 297.334 205.55 296.778 205.55 296.778L205.277 264.761C207.286 260.859 207.657 252.3 207.647 246.228C207.647 242.327 207.471 239.44 207.471 239.44L210.217 234.958C210.217 234.958 210.851 229.593 209.846 228.418C209.402 227.886 209.602 227.335 209.968 226.882C210.158 226.731 210.359 226.594 210.568 226.472C210.568 226.472 210.539 226.428 210.505 226.365C210.696 226.204 210.9 226.059 211.114 225.93C211.114 225.93 210.139 224.419 211.012 223.78C211.831 224.336 212.563 224.755 213.119 225.097C213.08 225.453 213.041 225.657 213.041 225.657L213.275 225.17C213.811 225.472 214.138 225.657 214.138 225.657C214.138 225.657 218.439 217.089 218.347 215.825C218.254 214.562 221.273 209.242 221.273 209.242C221.273 209.242 221.639 206.447 223.287 205.277C224.936 204.106 224.565 195.625 224.565 195.625C224.565 195.625 225.023 191.206 226.121 189.402C227.218 187.598 225.121 185.164 225.121 185.164ZM142.817 181.404L142.9 183.447C142.412 182.662 142.061 182.096 142.061 182.096L142.817 181.404Z" fill="url(#paint0_linear_1_1026)"/>
<path d="M214.372 221.956L213.319 226.442C213.319 226.442 204.882 222.136 203.36 216.664C201.838 211.192 205.906 209.115 205.906 209.115L213.767 212.446L214.372 221.956Z" fill="white"/>
<path opacity="0.1" d="M214.372 221.956L213.319 226.442C213.319 226.442 204.882 222.136 203.36 216.664C201.838 211.192 205.906 209.115 205.906 209.115L213.767 212.446L214.372 221.956Z" fill="black"/>
<path d="M167.022 374.659C167.022 374.659 159.218 377.526 153.854 377.887C151.006 378.077 149.508 376.331 148.738 374.649C148.317 373.714 148.045 372.718 147.933 371.698L148.631 363.968L149.001 359.852L160.399 356.892L162.013 361.827L162.164 362.203C162.813 363.851 165.412 370.557 165.334 371.957C165.331 372.315 165.4 372.671 165.538 373.002C165.675 373.333 165.878 373.632 166.134 373.883C166.396 374.178 166.694 374.439 167.022 374.659Z" fill="white"/>
<path d="M220.322 370.728C220.341 370.963 220.318 371.199 220.254 371.425C220.254 371.425 203.565 374.21 200.151 371.425C199.188 370.612 198.066 370.008 196.857 369.654C195.648 369.3 194.377 369.202 193.128 369.367C193.128 369.367 186.671 369.543 185.593 367.416C185.144 366.524 185.261 364.793 185.539 363.086C185.823 361.486 186.201 359.905 186.671 358.35L186.929 358.145L188.466 356.911L206.452 356.38H206.588C206.501 360.057 212.694 364.276 212.694 364.276C219.273 366.714 220.244 369.47 220.322 370.728Z" fill="white"/>
<path opacity="0.1" d="M220.322 370.728C220.339 370.963 220.314 371.199 220.249 371.425C220.249 371.425 203.565 374.21 200.151 371.425C199.189 370.612 198.068 370.009 196.859 369.655C195.651 369.301 194.381 369.203 193.133 369.367C193.133 369.367 186.671 369.543 185.598 367.416C185.149 366.519 185.261 364.793 185.539 363.086C188.027 363.334 191.953 363.954 193.494 365.432C195.825 367.68 199.775 369.923 202.199 370.099C204.096 370.221 215.445 370.582 220.322 370.728Z" fill="black"/>
<path opacity="0.1" d="M167.022 374.659C167.022 374.659 159.219 377.526 153.854 377.887C151.006 378.077 149.509 376.332 148.743 374.644C150.728 375.312 153.483 376.015 154.932 375.371C156.648 374.61 162.735 374.117 166.149 373.908C166.409 374.192 166.702 374.444 167.022 374.659Z" fill="black"/>
<path d="M178.6 143.563C172.162 141.062 163.881 132.795 165.949 128.933C166.408 127.958 166.681 126.906 166.754 125.831C166.887 124.371 166.906 122.904 166.812 121.441C166.667 119.046 166.379 116.662 165.949 114.302C165.949 114.302 186.047 114.755 184.876 117.715C184.535 118.584 184.481 120.091 184.574 121.778C184.667 123.465 184.91 125.372 185.164 126.987C185.515 129.201 185.866 130.888 185.866 130.888C185.866 130.888 184.637 132.61 183.916 132.702C183.194 132.795 187.837 147.128 178.6 143.563Z" fill="#FFB0B1"/>
<path opacity="0.1" d="M162.149 362.203L161.998 362.369C155.99 355.102 148.723 364.159 148.723 364.159L148.616 363.968L148.987 359.852L160.384 356.892L161.998 361.827L162.149 362.203Z" fill="black"/>
<path opacity="0.1" d="M206.593 356.892C206.593 356.892 202.204 356.799 199.863 358.867C197.522 360.935 186.208 359.316 186.695 358.867C186.84 358.645 186.927 358.39 186.949 358.126L188.485 356.892L206.472 356.36C206.54 356.687 206.593 356.892 206.593 356.892Z" fill="black"/>
<path d="M169.626 299.826C169.299 300.634 169.051 301.472 168.885 302.328C168.478 304.672 168.365 307.057 168.548 309.429C168.729 312.843 168.548 335.721 168.548 335.721C168.548 335.721 164.691 341.822 162.54 343.973C160.389 346.123 166.929 349.986 166.929 349.986C167.904 355.546 161.994 361.827 161.994 361.827C155.985 354.561 148.718 363.622 148.718 363.622C148.718 363.622 144.768 356.794 143.783 354.356C142.798 351.917 147.641 350.23 149.343 349.24C151.045 348.25 149.26 342.412 149.26 342.412C149.26 342.412 147.821 337.296 146.114 332.629C144.407 327.962 147.997 304.728 147.997 304.728C147.997 304.728 148.182 300.602 148.626 299.163C148.85 298.125 148.894 297.056 148.757 296.003C148.728 295.647 148.694 295.349 148.67 295.149C148.645 294.949 148.626 294.857 148.626 294.857L148.694 294.74L151.133 290.194C151.133 290.194 170.796 296.964 169.626 299.826Z" fill="#3A3A3A"/>
<path d="M206.593 356.355C206.593 356.355 202.204 356.263 199.863 358.306C197.522 360.35 186.208 358.755 186.695 358.306C187.183 357.858 187.144 354.536 187.144 354.536C180.507 345.475 186.169 341.798 186.169 341.798C186.169 341.798 183.204 327.532 182.667 322.241C182.292 318.544 181.828 308.61 181.58 302.938C181.472 300.499 181.409 298.822 181.409 298.822L186.832 297.729L187.529 297.588L200.609 294.964C200.609 294.964 200.97 297.403 201.214 299.397C201.336 300.249 201.404 301.107 201.419 301.967C201.331 302.943 201.419 305.996 201.419 305.996L201.863 315.15C201.573 316.11 201.423 317.107 201.419 318.11C201.507 319.276 203.209 335.965 203.209 335.965C203.209 335.965 206.169 345.924 205.16 346.64C204.15 347.357 206.593 356.355 206.593 356.355Z" fill="#3A3A3A"/>
<path opacity="0.1" d="M184.876 117.715C184.535 118.584 184.481 120.091 184.574 121.778C181.882 123.399 178.787 124.228 175.645 124.169C172.503 124.111 169.442 123.167 166.812 121.446C166.667 119.05 166.379 116.664 165.949 114.302C165.949 114.302 186.047 114.745 184.876 117.715Z" fill="black"/>
<path d="M192.645 106.937C192.649 108.695 192.373 110.441 191.826 112.112C190.604 115.854 188.098 119.044 184.752 121.118C181.406 123.192 177.434 124.016 173.539 123.444C169.644 122.873 166.076 120.943 163.466 117.995C160.856 115.048 159.373 111.273 159.277 107.337C159.277 107.201 159.277 107.074 159.277 106.937C159.239 104.722 159.643 102.521 160.464 100.464C161.286 98.4059 162.509 96.5324 164.062 94.9523C165.615 93.3723 167.468 92.1174 169.511 91.2608C171.554 90.4041 173.748 89.963 175.964 89.963C178.179 89.963 180.373 90.4041 182.416 91.2608C184.459 92.1174 186.312 93.3723 187.865 94.9523C189.418 96.5324 190.641 98.4059 191.463 100.464C192.284 102.521 192.688 104.722 192.65 106.937H192.645Z" fill="#FFB0B1"/>
<path opacity="0.1" d="M178.6 143.563C172.162 141.061 163.881 132.795 165.949 128.932C166.408 127.958 166.681 126.906 166.754 125.831L175.566 133.073L181.019 137.545L185.164 126.991C185.515 129.205 185.866 130.893 185.866 130.893C185.866 130.893 184.637 132.614 183.916 132.707C183.194 132.8 187.837 147.128 178.6 143.563Z" fill="black"/>
<path d="M201.39 175.571L194.03 299.202L184.432 299.831L159.579 228.145L163.657 143.037L164.515 125.055L175.566 134.131L181.023 138.603L185.291 127.742L193.226 134.658L201.39 175.571Z" fill="#3A3A3A"/>
<path opacity="0.1" d="M169.626 299.826C169.299 300.635 169.051 301.472 168.884 302.328C161.901 301.25 155.118 299.131 148.762 296.042L148.63 295.974L148.674 295.188L148.699 294.779L151.137 290.233C151.137 290.233 170.796 296.964 169.626 299.826Z" fill="black"/>
<path opacity="0.1" d="M186.944 302.348C185.159 302.651 183.358 302.856 181.55 302.962C181.443 300.524 181.38 298.846 181.38 298.846L186.803 297.754L186.944 302.348Z" fill="black"/>
<path opacity="0.1" d="M201.185 299.422C197.717 300.324 192.362 301.338 187.568 300.704L187.5 297.612L200.58 294.988C200.58 294.988 200.941 297.402 201.185 299.422Z" fill="black"/>
<path opacity="0.1" d="M187.48 301.27C167.485 304.684 149.172 294.896 149.172 294.896L149.347 291.579C149.347 291.579 149.801 253.983 148.543 251.1C147.284 248.218 146.304 233.602 147.016 231.359C147.728 229.115 144.417 195.474 144.417 195.474L143.88 181.818L124.246 173.864L133.024 155.566C134.21 153 135.23 150.361 136.077 147.665C137.604 142.915 144.69 138.247 144.69 138.247C144.69 138.247 151.957 133.585 154.829 133.761C157.702 133.936 161.467 129.635 161.467 129.635C164.247 122.548 166.763 125.757 166.763 125.757C166.763 126.094 166.763 125.757 166.626 126.806C165.651 134.585 182.399 159.165 182.638 159.599L184.232 198.449L185.847 247.613L187.48 301.27Z" fill="black"/>
<path d="M186.944 301.27C166.948 304.684 148.631 294.896 148.631 294.896L148.811 291.58C148.811 291.58 149.265 253.983 148.001 251.101C146.738 248.218 145.763 233.602 146.48 231.359C147.197 229.115 143.88 195.474 143.88 195.474L143.339 181.818L123.695 173.835L132.473 155.536C133.656 152.97 134.676 150.331 135.526 147.636C137.048 142.886 144.139 138.218 144.139 138.218C144.139 138.218 151.406 133.556 154.273 133.732C157.141 133.907 160.911 129.606 160.911 129.606C163.695 122.519 166.763 125.728 166.763 125.728C166.763 126.065 166.47 126.216 166.627 126.777C168.772 134.322 181.862 159.136 182.101 159.57L183.715 198.42L185.33 247.584L186.944 301.27Z" fill="white"/>
<path opacity="0.1" d="M181.555 160.677C179.404 159.779 168.012 146.772 168.012 146.772V143.812C167.597 142.837 165.134 143.432 163.135 144.114L163.993 126.133L164.968 126.943C167.105 134.482 181.306 160.243 181.555 160.677Z" fill="black"/>
<path d="M182.096 159.599C179.941 158.701 168.548 145.695 168.548 145.695V142.734C168.134 141.759 165.671 142.354 163.671 143.037L164.534 125.055L165.51 125.865C167.651 133.405 181.857 159.17 182.096 159.599Z" fill="white"/>
<path opacity="0.1" d="M149.172 224.467C149.44 224.467 163.076 223.034 163.076 223.034C163.076 223.034 171.333 239.269 170.792 243.219C170.25 247.17 169.27 250.666 165.949 250.047C162.628 249.428 148.075 250.535 148.075 250.535L149.172 224.467Z" fill="black"/>
<path d="M148.63 223.39C148.899 223.39 162.535 221.956 162.535 221.956C162.535 221.956 170.787 238.196 170.25 242.142C169.714 246.087 168.724 249.589 165.407 248.969C162.091 248.35 147.533 249.457 147.533 249.457L148.63 223.39Z" fill="white"/>
<path d="M158.906 215.767C158.906 215.767 171.421 222.492 171.689 224.545C171.957 226.599 165.32 223.648 163.886 223.292C162.942 223.065 161.981 222.915 161.013 222.843L151.449 223.102L158.906 215.767Z" fill="#FFB0B1"/>
<path opacity="0.1" d="M178.063 161.515C178.79 161.515 179.38 160.926 179.38 160.199C179.38 159.471 178.79 158.882 178.063 158.882C177.336 158.882 176.746 159.471 176.746 160.199C176.746 160.926 177.336 161.515 178.063 161.515Z" fill="black"/>
<path d="M178.063 160.979C178.79 160.979 179.38 160.39 179.38 159.662C179.38 158.935 178.79 158.346 178.063 158.346C177.336 158.346 176.746 158.935 176.746 159.662C176.746 160.39 177.336 160.979 178.063 160.979Z" fill="#3F3D56"/>
<path opacity="0.1" d="M180.487 218.518C181.214 218.518 181.804 217.928 181.804 217.201C181.804 216.474 181.214 215.884 180.487 215.884C179.76 215.884 179.17 216.474 179.17 217.201C179.17 217.928 179.76 218.518 180.487 218.518Z" fill="black"/>
<path d="M180.487 217.976C181.214 217.976 181.804 217.387 181.804 216.659C181.804 215.932 181.214 215.343 180.487 215.343C179.76 215.343 179.17 215.932 179.17 216.659C179.17 217.387 179.76 217.976 180.487 217.976Z" fill="#3F3D56"/>
<path opacity="0.1" d="M179.375 190.017C180.102 190.017 180.692 189.427 180.692 188.7C180.692 187.973 180.102 187.383 179.375 187.383C178.648 187.383 178.058 187.973 178.058 188.7C178.058 189.427 178.648 190.017 179.375 190.017Z" fill="black"/>
<path d="M179.375 189.48C180.102 189.48 180.692 188.891 180.692 188.163C180.692 187.436 180.102 186.847 179.375 186.847C178.648 186.847 178.058 187.436 178.058 188.163C178.058 188.891 178.648 189.48 179.375 189.48Z" fill="#3F3D56"/>
<path d="M209.729 222.57C209.729 222.57 210.627 223.916 209.729 224.545C208.832 225.175 209.817 226.696 209.817 226.696C209.817 226.696 207.579 228.008 208.564 229.188C209.549 230.369 208.925 235.699 208.925 235.699L206.233 240.157C206.233 240.157 206.393 243.029 206.403 246.911C206.403 252.968 206.047 261.484 204.077 265.366L204.35 297.217C204.35 297.217 194.923 300.66 187.032 299.612L185.861 248.501C185.861 248.501 187.568 219.517 188.197 213.958C188.566 211.071 188.716 208.161 188.646 205.252C188.646 205.252 188.378 196.552 187.476 192.514C187.476 192.514 186.5 175.02 186.403 170.177C186.359 167.86 186.481 161.101 186.617 154.673C186.769 147.645 186.939 141.018 186.939 141.018L185.159 126.933C185.159 126.933 186.939 126.752 187.476 127.469C187.716 127.694 187.977 127.895 188.256 128.069C191.328 130.147 202.185 136.536 202.185 136.536C202.185 136.536 208.193 138.925 209.632 142.349C211.07 145.773 212.07 148.201 212.768 149.177C213.465 150.152 213.845 154.737 213.845 154.737C213.845 154.737 215.913 163.174 217.528 164.603C219.142 166.032 220.322 175.122 220.322 175.122L206.057 186.339C206.057 186.339 204.804 204.999 204.535 205.72C204.267 206.442 209.729 222.57 209.729 222.57Z" fill="white"/>
<path d="M210.271 222.57C210.271 222.57 211.163 223.916 210.271 224.546C209.378 225.175 210.353 226.696 210.353 226.696C210.353 226.696 208.13 228.023 209.105 229.203C210.08 230.383 209.466 235.714 209.466 235.714L206.774 240.171C206.774 240.171 206.935 243.044 206.949 246.926C206.949 252.983 206.593 261.498 204.623 265.38L204.891 297.232C204.891 297.232 195.449 300.675 187.568 299.627L186.403 248.516C186.403 248.516 188.11 219.532 188.739 213.972C189.107 211.086 189.256 208.176 189.183 205.267C189.183 205.267 188.914 196.566 188.017 192.528C188.017 192.528 187.042 175.035 186.939 170.192C186.895 167.875 187.022 161.116 187.154 154.688C187.305 147.66 187.476 141.032 187.476 141.032L185.125 126.757C185.125 126.757 187.476 126.757 188.017 127.484C188.255 127.711 188.517 127.912 188.797 128.084C191.87 130.162 202.731 136.55 202.731 136.55C202.731 136.55 208.734 138.94 210.173 142.364C211.612 145.787 212.611 148.216 213.314 149.191C214.016 150.167 214.387 154.751 214.387 154.751C214.387 154.751 216.455 163.188 218.069 164.617C219.683 166.046 220.849 175.117 220.849 175.117L206.584 186.334C206.584 186.334 205.33 204.994 205.057 205.716C204.784 206.437 210.271 222.57 210.271 222.57Z" fill="white"/>
<path opacity="0.1" d="M193.187 145.173L194.474 148.928L187.695 155.756C187.846 148.733 188.017 142.1 188.017 142.1L185.666 127.825C185.666 127.825 188.017 127.825 188.558 128.552C188.796 128.779 189.057 128.978 189.339 129.147L195.103 145.778L193.187 145.173Z" fill="black"/>
<path d="M192.645 144.095L193.938 147.85L187.159 154.678C187.31 147.65 187.48 141.023 187.48 141.023L185.125 126.748C185.125 126.748 187.48 126.748 188.017 127.474C188.256 127.7 188.518 127.901 188.797 128.074L194.567 144.7L192.645 144.095Z" fill="white"/>
<path opacity="0.1" d="M192.645 106.937C192.649 108.695 192.373 110.441 191.826 112.112C191.734 112.126 191.64 112.122 191.549 112.099C191.459 112.077 191.374 112.036 191.299 111.98C191.172 107.591 189.012 103.47 186.354 99.9632C185.608 98.9044 184.703 97.9668 183.672 97.1833C182.629 96.4001 181.332 96.0333 180.033 96.1542C178.57 96.3542 177.278 97.3491 175.8 97.4759C173.849 97.6368 172.103 96.2859 170.167 96.2176C169.38 96.2251 168.604 96.4004 167.89 96.7317C167.176 97.0631 166.541 97.5429 166.027 98.1392C165.01 99.3425 164.254 100.744 163.808 102.255C163.041 104.547 162.623 106.94 162.569 109.356C162.545 110.722 162.413 112.434 161.145 112.931C161.24 111.927 161.126 110.914 160.81 109.956C160.493 108.998 159.981 108.116 159.306 107.366L159.277 107.337C159.277 107.201 159.277 107.074 159.277 106.937C159.239 104.722 159.643 102.521 160.464 100.464C161.286 98.4059 162.509 96.5324 164.062 94.9523C165.615 93.3723 167.468 92.1174 169.511 91.2608C171.554 90.4041 173.748 89.963 175.964 89.963C178.179 89.963 180.373 90.4041 182.416 91.2608C184.459 92.1174 186.312 93.3723 187.865 94.9523C189.418 96.5324 190.641 98.4059 191.463 100.464C192.284 102.521 192.688 104.722 192.65 106.937H192.645Z" fill="black"/>
<path d="M182.872 80.4408C180.338 79.2487 177.455 79.0232 174.766 79.8068C173.415 80.2067 172.143 80.8553 170.772 81.1821C167.846 81.8893 164.432 81.1236 161.92 82.8354C160.526 83.8108 159.687 85.3519 158.906 86.8492L156.956 90.5654C155.892 92.5991 154.82 94.6669 154.376 96.9055C153.932 99.144 154.2 101.651 155.619 103.45C156.653 104.762 158.18 105.586 159.301 106.82C159.973 107.571 160.483 108.452 160.799 109.409C161.114 110.365 161.229 111.377 161.135 112.38C162.408 111.892 162.53 110.176 162.559 108.81C162.614 106.394 163.031 104.001 163.798 101.709C164.243 100.198 164.999 98.7958 166.017 97.5931C166.531 96.9973 167.167 96.5178 167.88 96.1865C168.594 95.8552 169.371 95.6797 170.158 95.6716C172.108 95.7399 173.859 97.0859 175.791 96.925C177.254 96.803 178.551 95.8033 180.024 95.6082C181.322 95.4853 182.62 95.8523 183.662 96.6372C184.693 97.4196 185.596 98.3574 186.339 99.4171C189.002 102.924 191.163 107.035 191.29 111.434C191.841 111.839 192.636 111.312 192.909 110.688C193.182 110.064 193.192 109.332 193.538 108.737C193.938 108.049 194.703 107.684 195.303 107.167C196.825 105.855 197.205 103.645 197.147 101.641C197.088 99.6366 196.698 97.6029 197.078 95.6326C197.308 94.4231 197.825 93.2916 198.108 92.0968C198.39 90.9019 198.425 89.5607 197.756 88.5317C196.781 87.0198 194.728 86.7223 192.938 86.5809C190.904 86.4053 189.085 86.6297 187.788 84.9179C187.179 84.0246 186.494 83.1858 185.74 82.4111C185.481 82.1575 182.872 80.5481 182.872 80.4408Z" fill="#512E4E"/>
<path opacity="0.1" d="M129.864 183.286L124.768 173.864L123.153 188.402C123.153 188.402 124.051 194.859 123.87 195.849C123.69 196.839 127.547 205.716 127.547 205.716C127.547 205.716 140.291 228.413 145.495 229.583L163.076 217.02L158.414 211.1C158.414 211.1 156.799 210.471 156.395 211.1C156.395 211.1 147.738 196.205 146.841 195.128C145.943 194.05 146.119 191.899 146.119 191.899C146.119 191.899 144.773 190.465 145.222 189.119C145.67 187.773 142.622 183.106 142.622 183.106L145.402 180.506L129.864 183.286Z" fill="black"/>
<path d="M125.036 172.791L123.69 173.864L122.076 188.402C122.076 188.402 122.973 194.859 122.792 195.849C122.612 196.839 126.475 205.715 126.475 205.715C126.475 205.715 139.213 228.413 144.417 229.583L162.003 217.02L157.336 211.1C157.336 211.1 155.722 210.47 155.317 211.1C155.317 211.1 146.66 196.205 145.763 195.127C144.866 194.05 145.046 191.899 145.046 191.899C145.046 191.899 143.7 190.465 144.149 189.119C144.597 187.773 141.544 183.106 141.544 183.106L144.324 180.506L125.036 172.791Z" fill="white"/>
<path opacity="0.1" d="M208.564 229.744C209.539 230.929 208.924 236.25 208.924 236.25L206.232 240.708C206.232 240.708 206.393 243.585 206.403 247.462L201.877 248.877C201.468 249.004 201.035 249.033 200.612 248.959C200.19 248.885 199.792 248.711 199.451 248.452C199.11 248.193 198.835 247.856 198.651 247.469C198.466 247.082 198.377 246.657 198.39 246.229L199.17 221.058L209.729 225.097C208.832 225.721 209.817 227.252 209.817 227.252C209.817 227.252 207.578 228.559 208.564 229.744Z" fill="black"/>
<path d="M209.105 229.203C210.08 230.388 209.466 235.714 209.466 235.714L206.774 240.171C206.774 240.171 206.935 243.044 206.949 246.926L202.341 248.365C201.94 248.489 201.516 248.516 201.103 248.443C200.689 248.371 200.3 248.2 199.966 247.946C199.632 247.693 199.363 247.363 199.183 246.984C199.002 246.606 198.914 246.189 198.927 245.77L199.712 220.522L210.276 224.56C209.373 225.184 210.358 226.711 210.358 226.711C210.358 226.711 208.13 228.023 209.105 229.203Z" fill="white"/>
<path d="M212.602 217.206C212.602 217.206 211.885 221.785 210.09 222.053C208.295 222.322 207.491 229.461 205.701 229.208C203.911 228.954 205.096 222.57 205.159 221.332C205.223 220.093 203.209 214.962 204.716 213.797C206.223 212.631 210.992 213.797 210.992 213.797L212.602 217.206Z" fill="#FFB0B1"/>
<path opacity="0.1" d="M216.42 181.94L219.805 175.113C219.805 175.113 221.151 180.316 221.151 183.096C221.151 185.876 223.034 186.149 223.034 186.149C223.034 186.149 225.097 188.588 224.009 190.363C222.921 192.138 222.483 196.557 222.483 196.557C222.483 196.557 222.839 204.989 221.224 206.154C219.61 207.32 219.273 210.105 219.273 210.105C219.273 210.105 216.308 215.396 216.401 216.655C216.494 217.913 212.275 226.433 212.275 226.433C212.275 226.433 214.338 215.845 202.316 211.27C202.316 211.27 202.224 207.676 203.121 206.691C204.018 205.706 205.418 205.257 204.54 200.278C203.662 195.298 204.287 189.348 204.287 188.154C204.287 186.959 206.979 179.507 206.979 179.507L216.42 181.94Z" fill="black"/>
<path d="M217.884 174.137L220.839 175.113C220.839 175.113 222.19 180.316 222.19 183.096C222.19 185.876 224.072 186.149 224.072 186.149C224.072 186.149 226.135 188.588 225.048 190.363C223.96 192.138 223.526 196.557 223.526 196.557C223.526 196.557 223.882 204.989 222.268 206.154C220.654 207.32 220.293 210.105 220.293 210.105C220.293 210.105 217.333 215.396 217.425 216.655C217.518 217.913 213.294 226.433 213.294 226.433C213.294 226.433 215.362 215.845 203.336 211.27C203.336 211.27 203.248 207.676 204.145 206.691C205.043 205.706 206.442 205.257 205.564 200.278C204.687 195.298 205.311 189.348 205.311 188.154C205.311 186.959 208.003 179.507 208.003 179.507L217.884 174.137Z" fill="white"/>
<path opacity="0.1" d="M152.605 351.108C152.605 351.108 157.317 348.148 160.408 350.298C163.5 352.449 152.605 351.108 152.605 351.108Z" fill="black"/>
<path opacity="0.1" d="M189.212 341.954C189.212 341.954 193.382 341.417 196.883 345.187C200.385 348.957 189.212 341.954 189.212 341.954Z" fill="black"/>
<g opacity="0.1">
<path d="M195.313 106.099C194.713 106.615 193.943 106.986 193.543 107.674C193.201 108.264 193.192 108.991 192.918 109.625C192.645 110.259 191.85 110.776 191.299 110.376C191.172 105.986 189.007 101.865 186.349 98.3539C185.606 97.2942 184.703 96.3564 183.672 95.574C182.628 94.7893 181.329 94.4223 180.029 94.545C178.566 94.7449 177.278 95.7398 175.8 95.8618C173.849 96.0276 172.099 94.6767 170.162 94.6084C169.376 94.6162 168.6 94.7922 167.886 95.1244C167.173 95.4566 166.539 95.9375 166.027 96.5348C165.009 97.7356 164.253 99.136 163.808 100.646C163.041 102.938 162.624 105.331 162.569 107.747C162.54 109.108 162.413 110.805 161.155 111.312C161.184 111.672 161.184 112.034 161.155 112.395C162.423 111.907 162.55 110.19 162.579 108.825C162.633 106.409 163.051 104.015 163.818 101.724C164.263 100.212 165.018 98.8104 166.037 97.6077C166.55 97.0121 167.184 96.5326 167.897 96.2013C168.61 95.87 169.386 95.6944 170.172 95.6862C172.123 95.7545 173.879 97.1005 175.81 96.9396C177.273 96.8177 178.57 95.8179 180.038 95.6228C181.339 95.5001 182.638 95.8671 183.681 96.6518C184.713 97.4342 185.616 98.372 186.359 99.4317C189.017 102.938 191.182 107.05 191.309 111.449C191.86 111.853 192.655 111.327 192.928 110.702C193.201 110.078 193.211 109.347 193.552 108.752C193.952 108.064 194.723 107.698 195.323 107.181C196.844 105.869 197.225 103.66 197.166 101.656C197.166 101.592 197.166 101.529 197.166 101.47C197.074 103.206 196.61 104.977 195.313 106.099Z" fill="black"/>
<path d="M159.311 105.752C158.189 104.518 156.658 103.694 155.629 102.387C154.763 101.23 154.268 99.8373 154.21 98.3929C154.056 100.198 154.56 101.997 155.629 103.46C156.658 104.772 158.189 105.596 159.311 106.83C160.388 108.037 161.035 109.567 161.15 111.18C161.224 110.198 161.1 109.211 160.784 108.279C160.468 107.346 159.967 106.487 159.311 105.752Z" fill="black"/>
<path d="M198.117 91.0286C197.83 92.2235 197.317 93.3598 197.083 94.5644C196.945 95.3694 196.894 96.187 196.932 97.0029C196.949 96.5381 196.999 96.0752 197.083 95.6179C197.317 94.4084 197.83 93.2769 198.117 92.0821C198.285 91.423 198.339 90.7403 198.278 90.063C198.248 90.3883 198.194 90.711 198.117 91.0286Z" fill="black"/>
</g>
<path opacity="0.1" d="M64.7321 370.938C90.9773 370.938 112.253 367.52 112.253 363.305C112.253 359.09 90.9773 355.673 64.7321 355.673C38.4868 355.673 17.2109 359.09 17.2109 363.305C17.2109 367.52 38.4868 370.938 64.7321 370.938Z" fill="#6C63FF"/>
<path d="M66.2634 217.094H63.2056V285.942H66.2634V217.094Z" fill="#535461"/>
<path d="M85.4787 285.732L85.2885 288.834L85.0154 293.223L84.9032 295.047L84.635 299.436L84.5179 301.26L84.2448 305.649L81.1626 355.429C81.0286 357.57 80.0835 359.581 78.5197 361.05C76.9559 362.52 74.8909 363.338 72.7449 363.339H56.7192C54.5737 363.338 52.5092 362.52 50.9462 361.05C49.3832 359.58 48.4392 357.57 48.3064 355.429L45.2388 305.615L44.9657 301.226L44.8535 299.402L44.5804 295.013L44.4682 293.189L44.1951 288.799L44 285.698C43.9662 285.101 44.0546 284.503 44.26 283.942C44.4653 283.38 44.7833 282.866 45.1943 282.432C45.6053 281.998 46.1007 281.652 46.6501 281.416C47.1995 281.18 47.7914 281.059 48.3893 281.06H81.1674C81.7631 281.065 82.3514 281.192 82.8961 281.433C83.4407 281.675 83.9301 282.025 84.3341 282.463C84.7381 282.901 85.0481 283.417 85.2449 283.979C85.4418 284.541 85.5213 285.138 85.4787 285.732Z" fill="#3F3D56"/>
<path d="M85.2885 288.834L85.0154 293.208H44.4488L44.1757 288.834H85.2885Z" fill="#9D9CB5"/>
<path d="M84.9032 295.032L84.635 299.412H44.834L44.5609 295.032H84.9032Z" fill="#9D9CB5"/>
<path d="M84.518 301.241L84.2497 305.615H45.2193L44.9462 301.241H84.518Z" fill="#9D9CB5"/>
<path d="M39.5082 242.897C57.314 255.782 64.7465 275.934 64.7465 275.934C64.7465 275.934 43.2879 275.198 25.4772 262.313C7.66647 249.428 0.248596 229.281 0.248596 229.281C0.248596 229.281 21.6975 230.012 39.5082 242.897Z" fill="#3CB739"/>
<path d="M0.23407 229.281C0.23407 229.281 22.5121 241.644 29.6568 251.881C36.8016 262.118 64.7466 275.934 64.7466 275.934" fill="#3CB739"/>
<path d="M0.23407 229.281C0.23407 229.281 22.5121 241.644 29.6568 251.881C36.8016 262.118 64.7466 275.934 64.7466 275.934" stroke="#535461" stroke-width="0.975394" stroke-miterlimit="10"/>
<path d="M51.0033 216.942C60.6938 223.95 64.7466 234.919 64.7466 234.919C64.7466 234.919 53.0662 234.519 43.3708 227.511C33.6754 220.502 29.6324 209.529 29.6324 209.529C29.6324 209.529 41.3079 209.929 51.0033 216.942Z" fill="#3CB739"/>
<path d="M29.6324 209.529C29.6324 209.529 41.7565 216.259 45.6435 221.829C49.5304 227.398 64.7466 234.919 64.7466 234.919" fill="#3CB739"/>
<path d="M29.6324 209.529C29.6324 209.529 41.7565 216.259 45.6435 221.829C49.5304 227.398 64.7466 234.919 64.7466 234.919" stroke="#535461" stroke-width="0.975394" stroke-miterlimit="10"/>
<path d="M78.8169 234.363C67.6827 246.599 65.3271 262.591 65.3271 262.591C65.3271 262.591 81.0261 258.738 92.1505 246.497C103.275 234.255 105.64 218.269 105.64 218.269C105.64 218.269 89.951 222.126 78.8169 234.363Z" fill="#3CB739"/>
<path d="M105.65 218.274C105.65 218.274 91.1458 230.817 87.4588 239.459C83.7719 248.101 65.3271 262.591 65.3271 262.591" fill="#3CB739"/>
<path d="M105.65 218.274C105.65 218.274 91.1458 230.817 87.4588 239.459C83.7719 248.101 65.3271 262.591 65.3271 262.591" stroke="#535461" stroke-width="0.975394" stroke-miterlimit="10"/>
<path d="M487.536 230.057C487.536 230.057 479.484 189.997 482.566 185.013C482.566 185.013 482.679 180.38 482.493 174.474C482.493 174.249 482.493 174.025 482.493 173.796C483.036 174.157 483.601 174.483 484.186 174.771C487.026 176.23 490.286 176.651 493.403 175.961L490.965 173.245C490.379 172.596 489.77 171.894 489.643 171.035C489.516 170.177 489.867 169.411 490.17 168.646C492.486 162.793 492.608 155.434 488.146 150.967C484.376 147.211 483.459 142.364 479.367 138.935C476.378 136.424 474.734 132.741 473.183 129.181C471.871 126.172 470.55 123.139 469.799 119.949C469.213 117.457 468.979 114.877 468.175 112.444C467.37 110.01 465.863 107.645 463.507 106.557C462.668 106.172 461.737 105.952 460.971 105.44C459.967 104.762 459.362 103.66 458.635 102.694C454.943 97.8175 442.58 100.69 436.728 102.67C435.137 103.169 433.663 103.985 432.397 105.07L432.451 104.982C432.495 104.909 432.548 104.835 432.597 104.762C431.956 105.28 431.403 105.898 430.958 106.591C430.105 107.942 429.749 109.517 429.037 110.98C428.179 112.712 423.404 117.545 425.457 119.491C425.601 119.621 425.766 119.727 425.945 119.803C426.716 120.124 427.564 120.209 428.383 120.047L428.296 120.256C427.594 121.973 427.235 123.81 427.237 125.665C427.237 133.678 433.846 140.174 442.005 140.174C443.539 140.175 445.064 139.94 446.526 139.477C446.56 139.662 446.589 139.847 446.623 140.033C446.623 140.106 446.648 140.179 446.657 140.252L446.399 140.613C446.386 140.591 446.371 140.569 446.355 140.55L438.698 151.25C437.528 152.074 430.788 156.951 430.407 160.609C430.007 164.612 429.607 169.299 429.607 169.299L429.554 170.304C429.219 170.584 428.828 170.787 428.407 170.901C427.986 171.015 427.545 171.035 427.115 170.962C424.726 170.572 424.726 179.741 424.726 179.741C424.726 179.741 423.136 181.204 422.043 179.936C420.951 178.668 418.064 182.965 418.064 182.965L399.97 183.745L399.556 183.769L398.58 180.75C398.475 180.432 398.249 180.168 397.95 180.015C397.652 179.863 397.305 179.834 396.985 179.936C396.91 179.961 396.836 179.992 396.766 180.029L396.698 180.068L396.571 180.155L396.507 180.214C396.473 180.246 396.44 180.28 396.41 180.316L396.351 180.385L396.322 180.414C396.21 180.57 396.135 180.749 396.104 180.939C396.074 181.129 396.088 181.323 396.147 181.506L396.985 184.096C393.494 184.798 389.924 186.778 392.835 192.231L378.077 189.505L382.852 193.513L407.5 198.6C407.173 199.185 407.388 200.034 408.407 201.229C412.797 206.384 420.795 207.783 424.014 208.144C424.864 210.046 425.925 211.845 427.179 213.509L426.901 218.644C426.901 218.644 418.751 257.787 417.259 259.772C418.012 258.918 418.702 258.01 419.322 257.055C416.957 265.098 413.65 276.105 412.782 277.753C411.387 280.387 410.095 291.043 411.685 291.726C412.172 291.936 413.567 291.833 415.557 291.682V292.565L415.469 326.016C415.469 326.016 415.869 346.533 414.772 348.489C413.674 350.445 413.382 354.546 413.382 354.546C413.382 354.546 408.993 362.637 405.515 365.89C405.492 365.915 405.465 365.938 405.437 365.958L405.33 365.197C405.33 365.197 401.15 370.474 391.904 370.177C391.904 370.177 386.339 373.796 394.591 373.991C402.843 374.186 413.382 373.698 413.382 373.698C413.382 373.698 420.741 362.481 426.906 363.944V372.445H428.793V363.807C429.668 363.231 430.417 362.483 430.995 361.609C431.573 360.735 431.967 359.752 432.153 358.721C432.315 357.658 432.196 356.571 431.81 355.568C431.423 354.565 430.782 353.68 429.949 353C429.575 352.662 429.274 352.25 429.067 351.79C428.86 351.33 428.75 350.832 428.744 350.328L428.676 350.386C428.676 350.215 428.632 350.04 428.613 349.859C428.071 345.47 427.393 336.414 429.788 329.713C433.07 320.524 434.065 307.727 431.675 300.109C430.904 297.674 430.271 295.198 429.778 292.691C429.72 292.374 429.666 292.072 429.617 291.789C431.251 292.01 432.868 292.336 434.46 292.765C439.995 294.291 452.105 294.574 462.444 294.491C462.469 294.774 462.498 295.071 462.532 295.369C462.716 297.437 463.102 299.482 463.683 301.475C464.98 305.376 465.575 322.578 465.575 322.578C465.575 322.578 467.248 336.721 466.336 342.476C465.848 345.675 465.361 348.889 465.083 352.117V352.181C465.083 352.181 462.342 359.984 460.337 364.222C460.289 364.329 460.235 364.437 460.186 364.539C459.652 364.588 459.126 364.704 458.621 364.885C458.621 364.885 455.933 370.25 453.256 371.138C450.578 372.025 451.466 374.946 457.528 373.874C463.59 372.801 472.744 371.923 472.744 371.923L473.139 366.451L475.002 364.12L474.515 369.577L476.5 369.187L476.236 362.549L479.284 358.735C479.284 358.735 482.966 355.458 477.494 349.011V349.152C477.436 349.06 477.382 348.962 477.319 348.869V348.84C476.412 347.435 475.69 344.817 477.012 340.169C479.401 331.771 480.791 324.148 480.791 324.148C480.791 324.148 486.127 303.728 479.713 294.067H479.996C479.339 292.707 478.875 291.263 478.616 289.775C478.584 289.599 478.554 289.419 478.528 289.234C483.274 288.961 487.931 288.102 491.73 286.249C491.716 286.23 489.428 237.772 487.536 230.057ZM427.291 196.259V196.357L426.316 196.405L427.291 196.259ZM423.945 196.722C423.785 196.758 423.635 196.83 423.506 196.932C423.087 197.526 422.824 198.215 422.741 198.937L421.219 198.595C421.219 198.595 420.151 198.366 418.615 198.108L417.888 197.376C419.888 197.21 421.965 196.966 423.945 196.722Z" fill="url(#paint1_linear_1_1026)"/>
<path d="M474.29 362.617L473.71 369.528L475.656 369.138L475.363 361.642L474.29 362.617Z" fill="#3B3B3B"/>
<path d="M429.895 329.805C427.549 336.487 428.213 345.504 428.739 349.884C428.934 351.503 429.115 352.488 429.115 352.488C429.115 352.488 425.608 360.476 425.316 360.779C425.023 361.081 414.996 367.202 414.996 367.202L407.988 371.293C407.988 371.293 400.877 368.177 404.286 367.104C404.983 366.825 405.61 366.397 406.125 365.851C409.539 362.608 413.826 354.546 413.826 354.546C413.826 354.546 414.118 350.454 415.191 348.508C416.264 346.562 415.874 326.113 415.874 326.113L415.957 292.779V288.434L429.295 288.531C429.379 290.006 429.572 291.474 429.871 292.921C430.35 295.418 430.97 297.887 431.729 300.314C434.08 307.917 433.104 320.651 429.895 329.805Z" fill="#FFB0B1"/>
<path opacity="0.1" d="M429.115 352.488C429.115 352.488 425.608 360.476 425.316 360.779C425.023 361.081 414.996 367.202 414.996 367.202L407.988 371.293C407.988 371.293 400.877 368.177 404.286 367.104C404.983 366.825 405.61 366.397 406.125 365.851L406.427 367.982L408.763 367.884L428.759 349.893C428.934 351.503 429.115 352.488 429.115 352.488Z" fill="black"/>
<path d="M428.871 350.347L408.763 368.46L406.427 368.558L405.94 365.144C405.94 365.144 401.853 370.401 392.772 370.108C392.772 370.108 387.319 373.713 395.4 373.908C403.482 374.103 413.801 373.615 413.801 373.615C413.801 373.615 421.009 362.398 427.042 363.861V372.332H428.895V363.783C429.757 363.203 430.493 362.455 431.057 361.583C431.622 360.711 432.005 359.734 432.183 358.711C432.343 357.657 432.229 356.579 431.853 355.581C431.476 354.584 430.849 353.7 430.032 353.015C429.667 352.673 429.376 352.259 429.176 351.801C428.976 351.342 428.873 350.847 428.871 350.347Z" fill="#3B3B3B"/>
<path d="M476.143 340.222C474.846 344.856 475.553 347.465 476.441 348.864V348.894C477.579 350.622 478.371 352.555 478.772 354.585L478.85 355.024L469.701 368.363L464.736 370.313C464.736 370.313 456.753 367.587 458.211 366.807C458.577 366.617 459.147 365.602 459.801 364.202C461.752 359.984 464.444 352.2 464.444 352.2V352.137C464.727 348.923 465.175 345.719 465.673 342.529C466.565 336.789 464.926 322.699 464.926 322.699C464.926 322.699 464.341 305.567 463.073 301.67C462.501 299.689 462.12 297.657 461.937 295.603C461.674 293.165 461.615 291.155 461.615 291.155C461.615 291.155 466.872 283.84 476.509 291.74C477.28 292.371 477.958 293.106 478.523 293.925C485.181 303.396 479.821 324.26 479.821 324.26C479.821 324.26 478.48 331.849 476.143 340.222Z" fill="#FFB0B1"/>
<path opacity="0.1" d="M478.865 355.024L469.716 368.362L464.751 370.313C464.751 370.313 456.767 367.587 458.226 366.807C458.591 366.616 459.162 365.602 459.815 364.202C463.195 364.173 464.946 367.392 464.946 367.392L469.228 366.709C469.228 366.709 474.876 355.609 476.144 354.931C477.412 354.253 476.339 349.864 476.339 349.864V348.747C476.373 348.786 476.402 348.83 476.441 348.869V348.898C477.579 350.627 478.371 352.56 478.772 354.59L478.865 355.024Z" fill="black"/>
<path d="M465.239 367.68C465.239 367.68 462.8 363.203 458.128 364.856C458.128 364.856 455.499 370.221 452.871 371.089C450.242 371.957 451.12 374.883 457.06 373.815C463 372.747 471.954 371.864 471.954 371.864L472.344 366.407L478.382 358.716C478.382 358.716 481.981 355.453 476.626 349.03V350.147C476.626 350.147 477.699 354.536 476.431 355.214C475.163 355.892 469.535 366.997 469.535 366.997L465.239 367.68Z" fill="#3B3B3B"/>
<path opacity="0.1" d="M429.31 288.521C429.394 289.997 429.586 291.464 429.885 292.911C424.394 292.106 419.298 292.506 415.957 292.769V288.424L429.31 288.521Z" fill="black"/>
<path opacity="0.1" d="M479.065 295.14C479.065 295.14 471.262 295.52 461.956 295.598C461.693 293.16 461.635 291.15 461.635 291.15C461.635 291.15 466.892 283.835 476.529 291.735C477.299 292.366 477.977 293.101 478.543 293.92C478.694 294.336 478.868 294.743 479.065 295.14Z" fill="black"/>
<path d="M479.065 294.262C479.065 294.262 444.887 295.915 434.47 292.994C424.053 290.072 413.728 292.604 412.172 291.926C410.616 291.248 411.88 280.631 413.245 278.002C414.611 275.373 422.102 248.789 422.102 248.789L429.31 211.207L436.903 209.115L437.44 208.964L450.671 205.316L460.366 202.638C460.366 202.638 479.645 277.904 477.992 283.454C477.391 285.58 477.295 287.815 477.709 289.985C477.962 291.466 478.418 292.905 479.065 294.262Z" fill="#3B3B3B"/>
<path d="M404.184 185.505C404.184 185.505 397.356 192.821 402.526 196.898C407.695 200.975 411.095 197.288 411.095 197.288L404.184 185.505Z" fill="#C7DAF5"/>
<path opacity="0.1" d="M404.184 185.505C404.184 185.505 397.356 192.821 402.526 196.898C407.695 200.975 411.095 197.288 411.095 197.288L404.184 185.505Z" fill="black"/>
<path d="M459.347 137.409C459.347 137.409 458.547 138.169 457.343 139.291C455.626 140.896 453.085 143.242 450.832 145.207C447.711 147.923 445.136 149.918 446.058 148.216C446.979 146.514 446.804 143.549 446.345 140.774C446.311 140.588 446.282 140.403 446.248 140.223C445.868 138.185 445.365 136.172 444.741 134.195C444.741 134.195 449.784 127.679 452.573 125.109C453.612 124.134 454.339 123.734 454.383 124.412C454.431 125.324 455.114 127.338 455.963 129.474C455.987 129.542 456.011 129.606 456.041 129.674C456.606 131.137 457.245 132.639 457.806 133.936C458.664 135.926 459.347 137.409 459.347 137.409Z" fill="#FFB0B1"/>
<path opacity="0.1" d="M456.041 129.674C455.567 132.223 454.417 134.598 452.711 136.55C451.006 138.503 448.807 139.961 446.345 140.774C445.957 138.547 445.421 136.35 444.741 134.195C444.741 134.195 454.236 121.929 454.383 124.412C454.417 125.353 455.158 127.44 456.041 129.674Z" fill="black"/>
<path opacity="0.1" d="M445.399 144.051L446.628 142.32C446.628 142.32 447.443 147.284 450.437 145.095C453.432 142.905 453.578 161.574 453.578 161.574L450.364 209.627L427.14 208.237L427.798 185.018L430.427 173.313L436.928 156.297L440.795 150.674L445.399 144.051Z" fill="black"/>
<path d="M453.578 161.871L450.652 205.32L450.344 209.924L437.396 209.149L436.908 209.12L427.154 208.534L427.813 185.31L430.441 173.605L436.942 156.59L440.81 150.967L445.414 144.319L446.643 142.593C446.643 142.593 447.457 147.558 450.452 145.368L450.515 145.324C453.441 143.471 453.578 161.871 453.578 161.871Z" fill="#3B3B3B"/>
<path d="M430.768 169.538C430.768 169.538 429.603 171.977 427.262 171.582C424.921 171.187 424.926 180.36 424.926 180.36C424.926 180.36 423.37 181.823 422.297 180.555C421.224 179.287 418.395 183.574 418.395 183.574L400.672 184.354C400.672 184.354 408.558 187.958 407.012 198.863C407.012 198.863 433.787 197.205 434.665 194.674C435.543 192.143 430.768 169.538 430.768 169.538Z" fill="white"/>
<path opacity="0.03" d="M430.768 169.538C430.768 169.538 429.603 171.977 427.262 171.582C424.921 171.187 424.926 180.36 424.926 180.36C424.926 180.36 423.37 181.823 422.297 180.555C421.224 179.287 418.395 183.574 418.395 183.574L400.672 184.354C400.672 184.354 408.558 187.958 407.012 198.863C407.012 198.863 433.787 197.205 434.665 194.674C435.543 192.143 430.768 169.538 430.768 169.538Z" fill="black"/>
<path d="M379.263 190.085L383.935 194.074L422.395 202.155L417.625 197.288L379.263 190.085Z" fill="white"/>
<path d="M445.472 145.587C444.833 146.563 443.004 151.557 441.478 155.917C440.205 159.55 439.142 162.744 439.142 162.744C439.142 162.744 436.66 178.907 435.392 181.828C434.124 184.749 434.811 196.142 434.811 196.142L430.085 224.277C430.085 224.277 427.944 238.786 424.638 247.453C421.375 255.982 417.742 259.981 417.63 260.108C419.093 258.128 427.067 219.142 427.067 219.142L429.7 169.972C429.7 169.972 430.085 165.3 430.476 161.306C430.866 157.312 438.766 151.859 438.766 151.859L446.384 141.027C447.15 142.051 446.638 143.836 445.472 145.587Z" fill="white"/>
<path d="M425.608 208.778C425.608 208.778 414.391 208.29 408.958 201.765C403.525 195.24 421.517 199.161 421.517 199.161L426.194 200.234L425.608 208.778Z" fill="#FFB0B1"/>
<path opacity="0.1" d="M477.992 283.459C477.391 285.584 477.295 287.82 477.709 289.99C465.473 290.858 452.383 287.551 452.383 287.551C449.944 289.794 443.521 293.101 443.521 293.101L440.02 249.696C437.781 243.844 436.903 213.182 436.903 213.182C436.903 213.182 437.103 211.578 437.391 209.173C437.391 209.115 437.391 209.051 437.416 208.993C438.288 202.277 440.02 189.67 440.868 187.968C442.039 185.627 437.269 179.399 437.269 179.399L439.439 160.891L439.703 158.658C444.277 156.614 447.784 150.089 447.784 150.089L450.476 145.373C453.402 143.495 453.553 161.896 453.553 161.896L450.627 205.345L460.323 202.667C460.323 202.667 479.645 277.909 477.992 283.459Z" fill="black"/>
<path d="M490.55 286.459C477.211 293.082 452.968 286.946 452.968 286.946C450.53 289.19 444.107 292.496 444.107 292.496L440.6 249.091C438.366 243.239 437.489 212.577 437.489 212.577C437.489 212.577 440.307 189.7 441.478 187.364C441.819 186.681 441.653 185.666 441.249 184.574C439.259 179.374 438.527 173.778 439.113 168.241L440.049 160.287L440.307 158.058C444.887 156.01 448.393 149.484 448.393 149.484L450.832 145.212L455.319 137.34L457.445 133.614L457.806 133.941L460.561 136.438C460.561 136.438 461.732 137.414 463.488 138.877C467.306 142.096 473.905 147.763 477.309 151.23C480.303 154.283 481.25 166.158 481.523 175.098C481.703 180.984 481.596 185.598 481.596 185.598C478.577 190.568 486.473 230.466 486.473 230.466C488.311 238.177 490.55 286.459 490.55 286.459Z" fill="white"/>
<path opacity="0.03" d="M464.946 149.386C464.946 149.386 455.792 166.812 456.855 173.435C457.918 180.058 460.942 187.554 459.484 189.304C458.983 189.968 458.335 190.506 457.592 190.878C456.848 191.249 456.028 191.443 455.197 191.445C453.734 191.543 449.832 194.269 449.832 194.562C449.832 194.854 446.228 194.854 443.005 196.22C439.781 197.586 435.021 198.361 435.021 198.361C435.021 198.361 425.755 198.068 424.892 198.946C424.028 199.824 423.141 205.077 424.989 209.266C426.837 213.455 428.891 216.581 430.442 217.152C431.992 217.723 441.834 214.426 449.818 213.645C457.801 212.865 466.468 206.54 466.468 206.54C466.468 206.54 476.012 203.126 477.685 197.386C479.358 191.645 475.641 160.096 475.641 160.096C475.641 160.096 472.832 145.392 464.946 149.386Z" fill="black"/>
<path opacity="0.03" d="M463.776 147.923C463.776 147.923 454.622 165.354 455.694 171.972C456.767 178.59 459.781 186.091 458.318 187.846C457.819 188.51 457.172 189.049 456.429 189.421C455.686 189.792 454.867 189.986 454.036 189.987C452.573 190.085 448.672 192.811 448.672 193.104C448.672 193.396 445.068 193.396 441.844 194.757C438.62 196.118 433.86 196.898 433.86 196.898C433.86 196.898 424.594 196.605 423.736 197.483C422.877 198.361 421.98 203.618 423.833 207.803C425.686 211.987 427.735 215.118 429.286 215.689C430.837 216.26 440.678 212.963 448.662 212.187C456.645 211.412 465.312 205.077 465.312 205.077C465.312 205.077 474.851 201.663 476.504 195.927C478.158 190.192 474.461 158.633 474.461 158.633C474.461 158.633 471.662 143.934 463.776 147.923Z" fill="black"/>
<path d="M464.658 148.509C464.658 148.509 455.504 165.939 456.577 172.557C457.65 179.175 460.664 186.676 459.206 188.427C458.706 189.092 458.059 189.633 457.315 190.005C456.571 190.377 455.751 190.572 454.919 190.572C453.456 190.67 449.554 193.396 449.554 193.684C449.554 193.972 445.955 193.977 442.726 195.342C439.498 196.708 434.743 197.483 434.743 197.483C434.743 197.483 425.477 197.19 424.613 198.068C423.75 198.946 422.863 204.204 424.711 208.388C426.559 212.572 428.612 215.703 430.163 216.274C431.714 216.845 441.556 213.548 449.54 212.768C457.523 211.987 466.19 205.662 466.19 205.662C466.19 205.662 475.734 202.248 477.407 196.508C479.079 190.768 475.387 159.218 475.387 159.218C475.387 159.218 472.539 144.539 464.658 148.509Z" fill="white"/>
<path opacity="0.1" d="M464.458 195.259C464.458 195.259 457.143 193.796 459.689 196.235C462.234 198.673 462.22 200.809 465.336 200.712C468.453 200.614 464.458 195.259 464.458 195.259Z" fill="black"/>
<path opacity="0.1" d="M476.821 247.726C476.821 247.726 473.515 249.964 479.84 255.124C486.166 260.284 476.821 247.726 476.821 247.726Z" fill="black"/>
<path opacity="0.1" d="M470.511 266.127C470.511 266.419 469.34 276.856 473.72 279.465C478.099 282.074 470.511 266.127 470.511 266.127Z" fill="black"/>
<path d="M400.975 184.33C397.444 184.452 389.816 185.53 393.771 192.909C397.268 199.439 403.145 195.074 406.452 191.762C405.645 188.675 403.685 186.015 400.975 184.33Z" fill="#FFB0B1"/>
<path opacity="0.1" d="M463.488 139.174C459.742 141.735 456.601 143.895 455.987 144.344C454.309 145.587 451.11 152.888 449.047 156.614C447.403 159.614 442.063 160.384 440.049 160.574L440.307 158.346C444.887 156.297 448.393 149.772 448.393 149.772L457.445 133.902L460.561 136.736C460.561 136.736 461.732 137.711 463.488 139.174Z" fill="black"/>
<path d="M463.488 138.881C459.742 141.442 456.601 143.602 455.987 144.056C454.309 145.295 451.11 152.596 449.047 156.322C447.403 159.321 442.063 160.091 440.049 160.282L440.307 158.053C444.887 156.005 448.393 149.479 448.393 149.479L457.445 133.609L460.561 136.433C460.561 136.433 461.732 137.399 463.488 138.881Z" fill="#DCE7FF"/>
<path d="M456.28 126.455C456.282 129.383 455.394 132.242 453.734 134.653C451.773 137.504 448.856 139.558 445.51 140.443C442.165 141.327 438.613 140.982 435.5 139.472C432.387 137.961 429.919 135.385 428.542 132.21C427.166 129.035 426.974 125.472 428 122.168C429.026 118.863 431.203 116.036 434.135 114.199C437.068 112.362 440.561 111.637 443.983 112.156C447.404 112.675 450.526 114.402 452.782 117.026C455.038 119.649 456.279 122.995 456.28 126.455Z" fill="#FFB0B1"/>
<path opacity="0.1" d="M481.523 175.103C479.542 173.884 477.929 172.152 476.856 170.089C476.041 168.48 475.5 166.622 474.11 165.48C472.857 164.456 471.184 164.207 469.623 163.749C464.493 162.232 460.191 157.55 460.03 152.205C459.952 149.689 460.737 147.177 460.381 144.685C460.179 143.275 459.618 141.94 458.752 140.808C458.322 140.266 457.851 139.759 457.343 139.291C456.66 138.647 455.943 138.023 455.319 137.34C454.926 136.917 454.582 136.451 454.295 135.95C454.063 135.54 453.875 135.107 453.734 134.658C452.759 131.673 453.646 128.133 452.573 125.114L452.515 124.948C452.11 123.875 451.286 122.802 450.14 122.719C448.993 122.636 448.013 123.587 446.921 124.011C444.633 124.899 442.166 123.387 440.259 121.846C438.352 120.305 436.201 118.544 433.777 118.886C432.173 119.115 430.905 120.207 429.427 120.773C429.093 120.902 428.749 121.002 428.398 121.071C429.649 117.952 431.946 115.366 434.896 113.757C437.846 112.148 441.265 111.617 444.564 112.255C447.863 112.893 450.837 114.659 452.975 117.252C455.113 119.844 456.281 123.1 456.28 126.46C456.281 127.474 456.175 128.486 455.963 129.479C455.987 129.547 456.011 129.61 456.041 129.679C456.606 131.142 457.245 132.644 457.806 133.941L460.562 136.438C460.562 136.438 461.732 137.413 463.488 138.876C467.307 142.095 473.905 147.762 477.309 151.23C480.304 154.293 481.24 166.163 481.523 175.103Z" fill="black"/>
<path d="M429.256 111.863C429.954 110.444 430.3 108.854 431.134 107.508C432.358 105.557 434.494 104.309 436.689 103.553C442.419 101.578 454.529 98.7099 458.148 103.553C458.86 104.528 459.45 105.611 460.435 106.284C461.186 106.796 462.093 107.015 462.917 107.401C465.224 108.483 466.697 110.844 467.482 113.253C468.267 115.662 468.501 118.247 469.077 120.729C469.813 123.914 471.106 126.933 472.393 129.932C473.91 133.473 475.519 137.145 478.446 139.647C482.44 143.061 483.323 147.894 487.029 151.64C491.418 156.087 491.277 163.427 489.014 169.255C488.716 170.021 488.38 170.821 488.497 171.635C488.614 172.45 489.219 173.191 489.789 173.84L492.189 176.546C486.512 177.917 480.089 174.952 477.446 169.748C476.631 168.138 476.09 166.285 474.695 165.139C473.447 164.115 471.769 163.871 470.213 163.413C465.083 161.891 460.781 157.204 460.62 151.859C460.542 149.348 461.327 146.836 460.971 144.349C460.773 142.929 460.21 141.584 459.338 140.447C457.996 138.696 455.973 137.521 454.88 135.57C453.032 132.307 454.436 128.069 453.105 124.568C452.695 123.495 451.876 122.422 450.73 122.339C449.584 122.256 448.603 123.207 447.506 123.631C445.224 124.519 442.756 123.012 440.849 121.466C438.942 119.92 436.791 118.164 434.363 118.51C432.758 118.735 431.495 119.827 430.017 120.398C428.925 120.817 426.711 121.193 425.755 120.271C423.736 118.413 428.413 113.599 429.256 111.863Z" fill="#591D4B"/>
<path opacity="0.1" d="M478.801 168.138C477.982 166.529 477.446 164.676 476.051 163.535C474.802 162.51 473.125 162.262 471.564 161.803C466.438 160.287 462.137 155.6 461.971 150.255C461.893 147.743 462.678 145.226 462.327 142.739C462.123 141.328 461.56 139.994 460.693 138.862C459.347 137.111 457.323 135.936 456.236 133.985C454.387 130.727 455.792 126.489 454.456 122.983C454.051 121.915 453.227 120.842 452.085 120.754C450.944 120.666 449.954 121.627 448.862 122.051C446.579 122.939 444.107 121.427 442.205 119.886C440.303 118.345 438.142 116.584 435.718 116.925C434.114 117.155 432.846 118.247 431.373 118.813C430.28 119.232 428.061 119.613 427.106 118.691C425.096 116.74 429.773 111.936 430.612 110.21C431.309 108.786 431.656 107.201 432.495 105.855C432.538 105.782 432.587 105.708 432.636 105.635C432.009 106.155 431.467 106.771 431.031 107.459C430.198 108.805 429.851 110.385 429.154 111.814C428.31 113.541 423.633 118.359 425.647 120.295C426.623 121.222 428.817 120.842 429.91 120.422C431.373 119.852 432.651 118.759 434.255 118.535C436.694 118.189 438.84 119.949 440.742 121.49C442.644 123.031 445.131 124.543 447.403 123.656C448.496 123.231 449.452 122.275 450.622 122.363C451.793 122.451 452.573 123.519 452.997 124.592C454.329 128.094 452.924 132.332 454.773 135.594C455.865 137.511 457.889 138.711 459.23 140.471C460.103 141.609 460.666 142.953 460.864 144.373C461.22 146.86 460.435 149.372 460.513 151.884C460.674 157.248 464.975 161.915 470.106 163.437C471.652 163.896 473.339 164.139 474.588 165.164C475.987 166.31 476.538 168.163 477.338 169.772C479.982 174.976 486.405 177.941 492.081 176.571L490.95 175.293C486.029 175.366 481.05 172.567 478.801 168.138Z" fill="black"/>
<path opacity="0.1" d="M445.18 145.88C444.541 146.855 442.712 151.849 441.185 156.209C439.756 155.653 438.459 152.108 438.459 152.108L446.077 141.271C446.857 142.344 446.345 144.124 445.18 145.88Z" fill="black"/>
<path d="M445.472 145.587C444.833 146.563 443.005 151.557 441.478 155.917C440.049 155.366 438.752 151.815 438.752 151.815L446.37 140.984C447.15 142.052 446.638 143.837 445.472 145.587Z" fill="#DCE7FF"/>
<path d="M401.18 195.41L396.956 182.091C396.906 181.935 396.888 181.771 396.901 181.608C396.915 181.445 396.961 181.286 397.036 181.14C397.111 180.995 397.214 180.866 397.34 180.76C397.465 180.655 397.61 180.575 397.766 180.526C398.08 180.428 398.42 180.458 398.713 180.609C399.005 180.761 399.226 181.022 399.326 181.335L403.55 194.64L403.13 197.425L401.18 195.41Z" fill="#BE8B87"/>
<path opacity="0.1" d="M397.356 180.921C397.671 180.821 398.013 180.851 398.306 181.002C398.599 181.154 398.821 181.416 398.922 181.73L403.145 195.035L402.828 197.122L403.135 197.444L403.555 194.659L399.307 181.355C399.206 181.041 398.985 180.781 398.693 180.629C398.401 180.477 398.061 180.447 397.746 180.545C397.482 180.631 397.253 180.803 397.098 181.033C397.18 180.989 397.267 180.951 397.356 180.921Z" fill="white"/>
<path d="M401.18 195.411L403.55 194.659L403.204 196.942L403.13 197.444L402.438 196.722L401.18 195.411Z" fill="#EFC8C4"/>
<path d="M402.438 196.722C402.479 196.67 402.531 196.627 402.589 196.596C402.623 196.574 402.663 196.562 402.704 196.562C402.744 196.562 402.784 196.574 402.818 196.596C402.852 196.636 402.879 196.68 402.901 196.727C402.934 196.781 402.977 196.827 403.03 196.862C403.082 196.896 403.142 196.919 403.204 196.927L403.131 197.415L402.438 196.722Z" fill="#727A9C"/>
<path d="M396.932 186.822C396.932 186.822 405.403 186.773 403.408 190.377C401.414 193.981 398.297 194.415 398.297 194.415L396.932 186.822Z" fill="#FFB0B1"/>
<path d="M344.246 25.0773H343.88C329.327 25.0773 316.457 32.7781 309.054 44.1414C301.65 32.7781 288.78 25.0773 274.227 25.0773H273.861C262.94 25.1814 252.501 29.5915 244.812 37.3491C237.124 45.1068 232.808 55.5852 232.802 66.5072C232.802 80.0701 238.742 99.3146 250.325 115.15C272.393 145.324 309.054 171.723 309.054 171.723C309.054 171.723 345.714 145.329 367.777 115.15C379.365 99.3146 385.3 80.0701 385.3 66.5072C385.294 55.586 380.979 45.1084 373.292 37.3508C365.605 29.5933 355.167 25.1827 344.246 25.0773ZM339.013 117.472C337.356 117.465 335.739 116.958 334.375 116.016C333.011 115.074 331.964 113.742 331.371 112.195H322.67C322.097 112.191 321.54 112.009 321.075 111.673C320.611 111.337 320.263 110.865 320.08 110.322L317.408 102.27L308.951 131.82C308.787 132.388 308.442 132.888 307.969 133.245C307.496 133.601 306.92 133.794 306.327 133.795H306.157C305.539 133.765 304.95 133.524 304.488 133.112C304.027 132.7 303.72 132.142 303.621 131.532L294.906 79.1142L288.536 110.132C288.39 110.721 288.051 111.244 287.573 111.618C287.095 111.992 286.505 112.195 285.898 112.195H273.642C273.275 112.21 272.908 112.151 272.564 112.021C272.22 111.892 271.906 111.693 271.64 111.439C271.375 111.184 271.163 110.879 271.019 110.541C270.875 110.203 270.8 109.839 270.8 109.471C270.8 109.103 270.875 108.739 271.019 108.401C271.163 108.063 271.375 107.757 271.64 107.503C271.906 107.248 272.22 107.05 272.564 106.92C272.908 106.79 273.275 106.732 273.642 106.747H283.752L292.774 65.0441C292.922 64.4276 293.28 63.8816 293.786 63.4995C294.292 63.1175 294.915 62.9231 295.549 62.9496C296.183 62.9761 296.787 63.2218 297.26 63.6448C297.732 64.0677 298.043 64.6417 298.139 65.2685L307.039 118.74L314.618 92.3015C314.776 91.7447 315.11 91.2539 315.569 90.9023C316.029 90.5507 316.59 90.3572 317.169 90.3507H317.223C317.796 90.3509 318.354 90.5321 318.818 90.8683C319.283 91.2046 319.629 91.6789 319.807 92.2235L324.64 106.762H331.263C331.734 105.331 332.591 104.058 333.74 103.084C334.888 102.11 336.284 101.472 337.772 101.24C339.26 101.009 340.783 101.193 342.173 101.773C343.563 102.353 344.766 103.305 345.649 104.525C346.532 105.746 347.061 107.186 347.177 108.688C347.293 110.189 346.992 111.694 346.307 113.035C345.622 114.376 344.58 115.502 343.295 116.289C342.01 117.075 340.534 117.491 339.028 117.491L339.013 117.472Z" fill="url(#paint2_linear_1_1026)"/>
</g>
<defs>
<linearGradient id="paint0_linear_1_1026" x1="173.781" y1="377.902" x2="173.781" y2="77.8023" gradientUnits="userSpaceOnUse">
<stop stop-color="#808080" stop-opacity="0.25"/>
<stop offset="0.54" stop-color="#808080" stop-opacity="0.12"/>
<stop offset="1" stop-color="#808080" stop-opacity="0.1"/>
</linearGradient>
<linearGradient id="paint1_linear_1_1026" x1="435.723" y1="374.108" x2="435.723" y2="100.022" gradientUnits="userSpaceOnUse">
<stop stop-color="#808080" stop-opacity="0.25"/>
<stop offset="0.54" stop-color="#808080" stop-opacity="0.12"/>
<stop offset="1" stop-color="#808080" stop-opacity="0.1"/>
</linearGradient>
<linearGradient id="paint2_linear_1_1026" x1="309.051" y1="25.0773" x2="309.051" y2="171.723" gradientUnits="userSpaceOnUse">
<stop stop-color="#FF6161"/>
<stop offset="1" stop-color="#C63E3E"/>
</linearGradient>
<clipPath id="clip0_1_1026">
<rect width="538.925" height="381.74" fill="white"/>
</clipPath>
</defs>
</svg>
