<svg width="229" height="67" viewBox="0 0 229 67" fill="none" xmlns="http://www.w3.org/2000/svg">
<g id="Frame" clip-path="url(#clip0_218_7235)">
<path id="Vector" d="M40.4569 48.9218C40.4569 48.9218 38.5032 59.2745 22.7625 67C33.5057 55.4605 34.7312 47.532 34.7312 47.532C34.7312 47.532 34.4208 46.3258 37.4926 45.8261C40.5643 45.3264 67.8479 29.5436 51.6059 12.2812C32.4871 -4.24724 11.8443 11.9338 7.84152 19.0659C7.84152 19.0659 -0.203899 32.4948 6.41308 40.4585C13.0301 48.4221 20.3394 50.9361 28.4405 40.1657C31.751 32.7876 24.9072 27.3302 24.9072 27.3302C24.6218 26.9867 24.466 26.5572 24.466 26.1141C24.466 25.6711 24.6218 25.2415 24.9072 24.8981C25.886 23.4928 28.2177 21.2052 31.1462 23.8636C34.0747 26.5221 38.1412 32.3465 36.4103 38.9828C34.6795 45.6192 27.2587 51.5958 19.5714 52.4078C11.8841 53.2198 -0.577919 45.7714 0.0229012 33.5254C0.623721 21.2793 7.91712 8.15105 24.2308 1.7333C40.5444 -4.68446 56.8064 8.51801 59.4165 12.1329C62.0267 15.7477 68.2896 25.7062 55.9588 37.7297C47.6906 45.8456 40.4569 48.9218 40.4569 48.9218Z" fill="#22C38A"/>
<path id="Vector_2" d="M92.7099 22.6339V32.2137C92.1882 32.5288 91.6349 32.7904 91.0587 32.9945C90.4326 33.2199 89.7936 33.4089 89.1448 33.5605C88.4816 33.715 87.8092 33.8285 87.1315 33.9001C86.4947 33.9711 85.8545 34.0075 85.2136 34.0094C83.6765 34.0359 82.1498 33.757 80.7254 33.1897C79.4725 32.6801 78.3401 31.9226 77.399 30.9645C76.49 30.03 75.7847 28.9235 75.326 27.7127C74.8495 26.4645 74.6081 25.1418 74.6137 23.8089C74.6009 22.4274 74.8617 21.0565 75.3817 19.7725C75.8638 18.5632 76.583 17.4584 77.4985 16.5207C78.4233 15.5933 79.5306 14.8602 80.7532 14.3658C82.0758 13.8338 83.4939 13.5683 84.9232 13.585C86.4447 13.5359 87.9624 13.7636 89.3995 14.2565C90.4911 14.6652 91.4823 15.2958 92.3081 16.1069L90.4061 18.1134C89.6705 17.4047 88.7867 16.8613 87.8158 16.5207C86.8871 16.2171 85.9141 16.0642 84.9351 16.0678C83.9176 16.0496 82.9077 16.2433 81.9721 16.6363C81.0366 17.0293 80.1966 17.6126 79.5078 18.3476C78.8452 19.0606 78.3327 19.8951 77.9998 20.8031C77.6411 21.7659 77.4606 22.7838 77.4666 23.8089C77.4562 24.8559 77.6563 25.8946 78.0555 26.8656C78.4278 27.7806 78.9778 28.6159 79.6749 29.3249C80.3882 30.0398 81.2418 30.6053 82.1843 30.9871C83.1267 31.3689 84.1384 31.5591 85.1579 31.5462C86.064 31.5512 86.9681 31.4636 87.8556 31.2846C88.6136 31.1441 89.345 30.89 90.0242 30.5312V25.1089H85.6473V22.6339H92.7099Z" fill="#22C38A"/>
<path id="Vector_3" d="M97.6035 14.073H104.555C105.622 14.0404 106.686 14.2128 107.686 14.5805C108.424 14.8646 109.089 15.3059 109.632 15.8726C110.096 16.3752 110.435 16.9765 110.623 17.6293C110.804 18.2395 110.897 18.8715 110.901 19.507C110.904 20.7456 110.442 21.9418 109.604 22.8681C109.165 23.3447 108.644 23.7412 108.064 24.0393C107.434 24.365 106.744 24.5653 106.035 24.6287L111.657 33.4902H108.303L103.281 24.941H100.289V33.5019H97.6035V14.073ZM100.289 22.6339H103.815C104.334 22.6347 104.853 22.5942 105.366 22.5129C105.847 22.441 106.312 22.2878 106.739 22.0601C107.143 21.8365 107.476 21.5083 107.702 21.1114C107.94 20.6089 108.064 20.0613 108.064 19.507C108.064 18.9527 107.94 18.4051 107.702 17.9026C107.474 17.5074 107.141 17.1797 106.739 16.954C106.305 16.733 105.835 16.5865 105.351 16.5206C104.837 16.4393 104.318 16.3989 103.799 16.3996H100.273L100.289 22.6339Z" fill="#22C38A"/>
<path id="Vector_4" d="M120.904 14.073H123.335L131.81 33.5019H128.679L126.689 28.7003H117.287L115.297 33.5019H112.166L120.904 14.073ZM125.714 26.3971L122.022 17.4771H121.966L118.218 26.3971H125.714Z" fill="#22C38A"/>
<path id="Vector_5" d="M134.396 14.073H141.36C142.427 14.04 143.491 14.2124 144.491 14.5805C145.23 14.8637 145.894 15.3051 146.437 15.8726C146.901 16.3752 147.24 16.9765 147.428 17.6293C147.804 18.8552 147.804 20.1628 147.428 21.3886C147.238 22.0407 146.899 22.6416 146.437 23.1453C145.893 23.7104 145.229 24.1504 144.491 24.4336C143.491 24.8017 142.427 24.9741 141.36 24.941H137.07V33.502H134.396V14.073ZM137.082 22.6339H140.604C141.123 22.6347 141.642 22.5942 142.155 22.5129C142.636 22.4411 143.101 22.2878 143.528 22.0601C143.932 21.8365 144.265 21.5083 144.491 21.1115C144.732 20.6097 144.857 20.0618 144.857 19.507C144.857 18.9523 144.732 18.4044 144.491 17.9026C144.263 17.5074 143.93 17.1798 143.528 16.954C143.095 16.7335 142.627 16.5869 142.143 16.5207C141.63 16.4394 141.111 16.3989 140.592 16.3996H137.07L137.082 22.6339Z" fill="#22C38A"/>
<path id="Vector_6" d="M150.969 14.073H163.749V16.5441H153.655V22.3333H163.045V24.8044H153.655V31.0504H164.239V33.5215H150.969V14.073Z" fill="#22C38A"/>
<path id="Vector_7" d="M165.346 14.073H168.449L174.266 29.8793H174.322L180.366 14.073H183.303L175.5 33.5019H172.993L165.346 14.073Z" fill="#22C38A"/>
<path id="Vector_8" d="M185.678 14.073H188.364V33.5019H185.678V14.073Z" fill="#22C38A"/>
<path id="Vector_9" d="M193.451 14.073H196.977L207.887 30.0432H207.943V14.073H210.624V33.5019H207.21L196.189 17.5317H196.133V33.5019H193.447L193.451 14.073Z" fill="#22C38A"/>
<path id="Vector_10" d="M215.719 14.073H228.499V16.5441H218.405V22.3333H227.799V24.8044H218.405V31.0504H229.004V33.5215H215.719V14.073Z" fill="#22C38A"/>
</g>
<defs>
<clipPath id="clip0_218_7235">
<rect width="229" height="67" fill="white"/>
</clipPath>
</defs>
</svg>
