<svg width="193" height="64" viewBox="0 0 193 64" fill="none" xmlns="http://www.w3.org/2000/svg">
<path d="M11.7892 0.5H181.097C185.207 0.5 188.023 1.35691 189.822 3.11942C191.617 4.8797 192.5 7.64484 192.5 11.7082V52.3671C192.5 56.4209 191.617 59.1661 189.823 60.9096C188.025 62.6564 185.208 63.5 181.097 63.5H11.7701C7.66733 63.5 4.8858 62.6608 3.1199 60.9214C1.35577 59.1838 0.5 56.4435 0.5 52.3859V11.7082C0.5 7.57679 0.931285 4.83407 2.47513 3.09421C4.00496 1.37014 6.75355 0.5 11.7892 0.5Z" stroke="white"/>
<path d="M94.8272 36.7058C91.2714 36.7058 88.4382 39.3599 88.4382 43.0305C88.4382 46.5505 91.2524 49.3552 94.8272 49.3552C98.3829 49.3552 101.216 46.7011 101.216 43.0305C101.216 39.2093 98.3829 36.7058 94.8272 36.7058ZM94.8272 46.7011C92.8877 46.7011 91.2714 45.0823 91.2714 42.8799C91.2714 40.6776 92.9067 39.0588 94.8272 39.0588C96.7667 39.0588 98.3829 40.527 98.3829 42.8799C98.3829 45.0823 96.7477 46.7011 94.8272 46.7011ZM81.0034 36.7058C77.4477 36.7058 74.6145 39.3599 74.6145 43.0305C74.6145 46.5505 77.4287 49.3552 81.0034 49.3552C84.5782 49.3552 87.3924 46.7011 87.3924 43.0305C87.3924 39.2093 84.5782 36.7058 81.0034 36.7058ZM81.0034 46.7011C79.0639 46.7011 77.4477 45.0823 77.4477 42.8799C77.4477 40.6776 79.0829 39.0588 81.0034 39.0588C82.9239 39.0588 84.5592 40.527 84.5592 42.8799C84.5782 45.0823 82.9429 46.7011 81.0034 46.7011ZM64.5176 38.6258V41.2799H70.9066C70.7545 42.7482 70.165 43.9341 69.4234 44.6682C68.5297 45.5529 67.0466 46.5882 64.5176 46.5882C60.5055 46.5882 57.5392 43.5011 57.5392 39.5293C57.5392 35.5576 60.6576 32.4705 64.5176 32.4705C66.5902 32.4705 68.2255 33.3552 69.4234 34.3905L71.3629 32.4705C69.7277 31.0023 67.6551 29.8164 64.6888 29.8164C59.3456 29.8164 54.744 34.2211 54.744 39.5293C54.744 44.8376 59.3456 49.2423 64.6888 49.2423C67.6551 49.2423 69.7467 48.3576 71.5151 46.4564C73.3024 44.687 73.8919 42.1835 73.8919 40.2823C73.8919 39.6988 73.8919 39.1152 73.7398 38.6635L64.5176 38.6258ZM131.944 40.6776C131.355 39.2093 129.871 36.7058 126.601 36.7058C123.33 36.7058 120.668 39.2093 120.668 43.0305C120.668 46.5505 123.349 49.3552 126.905 49.3552C129.719 49.3552 131.507 47.5858 132.096 46.5693L130.024 45.1011C129.282 46.1364 128.388 46.8705 126.905 46.8705C125.422 46.8705 124.528 46.287 123.787 44.9505L132.248 41.4305L131.944 40.6776ZM123.33 42.7293C123.33 40.3764 125.27 39.0588 126.601 39.0588C127.647 39.0588 128.673 39.6423 128.978 40.3764L123.33 42.7293ZM116.352 48.7717H119.166V30.3999H116.352V48.7717ZM111.902 38.0235C111.161 37.2893 109.963 36.5552 108.48 36.5552C105.361 36.5552 102.395 39.3411 102.395 42.8799C102.395 46.4188 105.209 49.0541 108.48 49.0541C109.963 49.0541 111.161 48.3199 111.75 47.5858H111.902V48.4705C111.902 50.8235 110.571 52.1411 108.48 52.1411C106.845 52.1411 105.666 50.9741 105.361 49.9388L102.985 50.9741C103.726 52.5929 105.513 54.6446 108.632 54.6446C111.902 54.6446 114.565 52.7246 114.565 48.1693V36.9882H111.883L111.902 38.0235ZM108.632 46.7011C106.692 46.7011 105.076 45.0823 105.076 42.8799C105.076 40.6776 106.711 39.0588 108.632 39.0588C110.552 39.0588 112.055 40.6776 112.055 42.8799C112.055 45.0823 110.571 46.7011 108.632 46.7011ZM144.874 30.3811H138.2V48.7529H141.014V41.8446H144.874C147.993 41.8446 150.959 39.6423 150.959 36.1035C150.959 32.5646 147.993 30.3811 144.874 30.3811ZM145.026 39.2093H141.014V32.8846H145.026C147.099 32.8846 148.297 34.6541 148.297 35.9717C148.145 37.5905 146.947 39.2093 145.026 39.2093ZM162.101 36.5552C160.029 36.5552 157.937 37.4399 157.196 39.3411L159.725 40.3764C160.314 39.3411 161.208 39.0588 162.254 39.0588C163.737 39.0588 165.068 39.9435 165.22 41.4117V41.5623C164.783 41.2611 163.585 40.8282 162.406 40.8282C159.725 40.8282 157.063 42.2964 157.063 44.9505C157.063 47.4541 159.287 49.0729 161.664 49.0729C163.604 49.0729 164.478 48.1882 165.22 47.3035H165.372V48.7717H168.053V41.7129C167.749 38.4752 165.22 36.5552 162.101 36.5552ZM161.797 46.7011C160.904 46.7011 159.573 46.2682 159.573 45.0823C159.573 43.6141 161.208 43.1623 162.539 43.1623C163.718 43.1623 164.326 43.4635 165.068 43.7458C164.783 45.5341 163.299 46.7011 161.797 46.7011ZM177.408 37.007L174.29 44.9505H174.138L170.867 37.007H167.901L172.807 48.1882L169.993 54.3623H172.807L180.375 37.007H177.408ZM152.442 48.7717H155.256V30.3999H152.442V48.7717Z" fill="white"/>
<path d="M59.8956 19.4633H64.5162C64.5352 19.5762 64.5732 19.6892 64.5732 19.8398C64.5922 19.9904 64.5922 20.1409 64.5922 20.2915C64.5922 20.8939 64.4971 21.4586 64.307 21.9857C64.1169 22.5127 63.8316 22.9833 63.4323 23.4162C63.014 23.868 62.5006 24.2068 61.9111 24.4515C61.3217 24.6962 60.6562 24.8092 59.8956 24.8092C59.211 24.8092 58.5645 24.6962 57.9561 24.4515C57.3476 24.2068 56.8152 23.868 56.3778 23.4351C55.9215 23.0021 55.5792 22.4939 55.313 21.8915C55.0468 21.2892 54.9137 20.6492 54.9137 19.9339C54.9137 19.2186 55.0468 18.5786 55.313 17.9762C55.5792 17.3739 55.9405 16.8657 56.3778 16.4327C56.8342 15.9998 57.3476 15.6609 57.9561 15.4162C58.5645 15.1715 59.211 15.0586 59.8956 15.0586C60.6562 15.0586 61.3407 15.1904 61.9492 15.4539C62.5576 15.7174 63.071 16.0751 63.4894 16.5457L62.2724 17.7315C61.9682 17.4115 61.6259 17.1668 61.2456 16.9974C60.8653 16.828 60.409 16.7339 59.8956 16.7339C59.4582 16.7339 59.0589 16.8092 58.6786 16.9598C58.2983 17.1104 57.9561 17.3362 57.6708 17.5998C57.3856 17.8821 57.1574 18.2209 56.9863 18.6162C56.8152 19.0115 56.7201 19.4445 56.7201 19.9339C56.7201 20.4233 56.8152 20.8562 56.9863 21.2515C57.1574 21.6468 57.3856 21.9857 57.6899 22.268C57.9751 22.5504 58.3173 22.7574 58.7167 22.908C59.0969 23.0586 59.5153 23.1339 59.9526 23.1339C60.447 23.1339 60.8843 23.0586 61.2266 22.9268C61.5689 22.7762 61.8731 22.6068 62.1203 22.3809C62.2914 22.2304 62.4436 22.0233 62.5767 21.7786C62.7098 21.5339 62.8048 21.2704 62.8809 20.9692H59.8956V19.4633Z" fill="white"/>
<path d="M67.8814 16.9224V19.0871H71.6653V20.7624H67.8814V22.9271H72.0836V24.6024H66.094V15.2471H72.0836V16.9224H67.8814Z" fill="white"/>
<path d="M75.7154 24.6024V16.9224H73.0724V15.2471H80.1269V16.9224H77.4838V24.6024H75.7154Z" fill="white"/>
<path d="M84.3104 15.2471H86.0978V24.5835H84.3104V15.2471Z" fill="white"/>
<path d="M89.9761 24.6024V16.9224H87.333V15.2471H94.3875V16.9224H91.7444V24.6024H89.9761Z" fill="white"/>
<path d="M102.774 24.8097C102.07 24.8097 101.424 24.678 100.815 24.4332C100.207 24.1885 99.6934 23.8309 99.2561 23.398C98.8188 22.965 98.4765 22.438 98.2293 21.8356C97.9821 21.2332 97.849 20.5932 97.849 19.9156C97.849 19.238 97.9821 18.598 98.2293 17.9956C98.4765 17.3932 98.8188 16.885 99.2561 16.4332C99.6934 16.0003 100.207 15.6427 100.815 15.398C101.424 15.1532 102.07 15.0215 102.774 15.0215C103.477 15.0215 104.124 15.1532 104.732 15.398C105.341 15.6427 105.854 16.0003 106.292 16.4332C106.729 16.8662 107.071 17.3932 107.318 17.9956C107.566 18.598 107.699 19.238 107.699 19.9156C107.699 20.5932 107.566 21.2332 107.318 21.8356C107.071 22.438 106.729 22.9462 106.292 23.398C105.854 23.8309 105.322 24.1885 104.732 24.4332C104.124 24.678 103.477 24.8097 102.774 24.8097ZM102.774 23.1344C103.211 23.1344 103.629 23.0591 104.01 22.9085C104.39 22.758 104.732 22.5321 105.018 22.2497C105.303 21.9674 105.531 21.6285 105.683 21.2332C105.854 20.838 105.93 20.405 105.93 19.9156C105.93 19.445 105.854 18.9932 105.683 18.598C105.512 18.2027 105.303 17.8638 105.018 17.5815C104.732 17.2991 104.39 17.0921 104.01 16.9227C103.629 16.7532 103.211 16.6968 102.774 16.6968C102.336 16.6968 101.918 16.7721 101.538 16.9227C101.158 17.0732 100.815 17.2991 100.53 17.5815C100.245 17.8638 100.017 18.2027 99.8646 18.598C99.6934 18.9932 99.6174 19.4262 99.6174 19.9156C99.6174 20.3862 99.6934 20.838 99.8646 21.2332C100.036 21.6285 100.245 21.9674 100.53 22.2497C100.815 22.5321 101.158 22.7391 101.538 22.9085C101.918 23.078 102.336 23.1344 102.774 23.1344Z" fill="white"/>
<path d="M109.142 15.2471H111.215L115.018 21.5153H115.132L115.018 19.7082V15.2471H116.786V24.5835H114.923L110.911 17.9577H110.796L110.911 19.7647V24.5835H109.142V15.2471Z" fill="white"/>
<path fill-rule="evenodd" clip-rule="evenodd" d="M41.2055 26.3715L18.1025 13.2139L36.3567 31.1715L41.2055 26.3715Z" fill="white"/>
<path fill-rule="evenodd" clip-rule="evenodd" d="M15.9719 13.3457C15.8768 13.4963 15.7817 13.6845 15.7817 13.8916V51.1245C15.7817 51.2375 15.8388 51.3504 15.8768 51.4633L35.1958 32.301L15.9719 13.3457Z" fill="white"/>
<path fill-rule="evenodd" clip-rule="evenodd" d="M36.3566 33.3926L17.4178 52.1785C17.4749 52.1596 17.5319 52.1408 17.589 52.1032L41.5286 38.4749L36.3566 33.3926Z" fill="white"/>
<path fill-rule="evenodd" clip-rule="evenodd" d="M50.2759 31.5299L42.632 27.1816L37.479 32.2828L42.9362 37.6663L50.2759 33.4875C51.0365 33.0546 51.0365 31.9628 50.2759 31.5299Z" fill="white"/>
</svg>
