<svg width="150" height="50" viewBox="0 0 150 50" fill="none" xmlns="http://www.w3.org/2000/svg">
<path d="M9.16256 0.5H140.749C143.93 0.5 146.084 1.16725 147.451 2.51425C148.816 3.8596 149.5 5.98483 149.5 9.14706V40.9118C149.5 44.0665 148.816 46.1759 147.452 47.5081C146.086 48.843 143.932 49.5 140.749 49.5H9.14778C5.97119 49.5 3.84565 48.8464 2.50389 47.5179C1.16328 46.1905 0.5 44.085 0.5 40.9265V9.14706C0.5 5.91715 0.838089 3.81413 2.00785 2.48898C3.16286 1.18054 5.25437 0.5 9.16256 0.5Z" stroke="#333333"/>
<path d="M73.6996 28.6763C70.936 28.6763 68.7341 30.7498 68.7341 33.6175C68.7341 36.3675 70.9213 38.5587 73.6996 38.5587C76.4631 38.5587 78.6651 36.4851 78.6651 33.6175C78.6651 30.6322 76.4631 28.6763 73.6996 28.6763ZM73.6996 36.4851C72.1922 36.4851 70.936 35.2204 70.936 33.4998C70.936 31.7792 72.207 30.5145 73.6996 30.5145C75.207 30.5145 76.4631 31.6616 76.4631 33.4998C76.4631 35.2204 75.1922 36.4851 73.6996 36.4851ZM62.9557 28.6763C60.1922 28.6763 57.9902 30.7498 57.9902 33.6175C57.9902 36.3675 60.1774 38.5587 62.9557 38.5587C65.7341 38.5587 67.9213 36.4851 67.9213 33.6175C67.9213 30.6322 65.7341 28.6763 62.9557 28.6763ZM62.9557 36.4851C61.4484 36.4851 60.1922 35.2204 60.1922 33.4998C60.1922 31.7792 61.4631 30.5145 62.9557 30.5145C64.4484 30.5145 65.7193 31.6616 65.7193 33.4998C65.7341 35.2204 64.4631 36.4851 62.9557 36.4851ZM50.1429 30.1763V32.2498H55.1085C54.9902 33.3969 54.5321 34.3234 53.9557 34.8969C53.2612 35.5881 52.1084 36.3969 50.1429 36.3969C47.0247 36.3969 44.7193 33.9851 44.7193 30.8822C44.7193 27.7792 47.1429 25.3675 50.1429 25.3675C51.7538 25.3675 53.0247 26.0587 53.9557 26.8675L55.4631 25.3675C54.1922 24.2204 52.5814 23.2939 50.2759 23.2939C46.1232 23.2939 42.5469 26.7351 42.5469 30.8822C42.5469 35.0292 46.1232 38.4704 50.2759 38.4704C52.5814 38.4704 54.207 37.7792 55.5814 36.2939C56.9705 34.9116 57.4286 32.9557 57.4286 31.4704C57.4286 31.0145 57.4286 30.5587 57.3104 30.2057L50.1429 30.1763ZM102.547 31.7792C102.089 30.6322 100.936 28.6763 98.3942 28.6763C95.8523 28.6763 93.7833 30.6322 93.7833 33.6175C93.7833 36.3675 95.8671 38.5587 98.6306 38.5587C100.818 38.5587 102.207 37.1763 102.665 36.3822L101.054 35.2351C100.478 36.0439 99.7833 36.6175 98.6306 36.6175C97.4779 36.6175 96.7833 36.1616 96.207 35.1175L102.783 32.3675L102.547 31.7792ZM95.8523 33.3822C95.8523 31.5439 97.3597 30.5145 98.3942 30.5145C99.207 30.5145 100.005 30.9704 100.241 31.5439L95.8523 33.3822ZM90.4287 38.1028H92.6158V23.7498H90.4287V38.1028ZM86.9705 29.7057C86.3942 29.1322 85.4631 28.5587 84.3104 28.5587C81.8868 28.5587 79.5814 30.7351 79.5814 33.4998C79.5814 36.2645 81.7686 38.3234 84.3104 38.3234C85.4631 38.3234 86.3942 37.7498 86.8523 37.1763H86.9705V37.8675C86.9705 39.7057 85.936 40.7351 84.3104 40.7351C83.0395 40.7351 82.1232 39.8234 81.8868 39.0145L80.0395 39.8234C80.6158 41.0881 82.005 42.691 84.4286 42.691C86.9705 42.691 89.0395 41.191 89.0395 37.6322V28.8969H86.9557L86.9705 29.7057ZM84.4286 36.4851C82.9213 36.4851 81.6651 35.2204 81.6651 33.4998C81.6651 31.7792 82.936 30.5145 84.4286 30.5145C85.9213 30.5145 87.0887 31.7792 87.0887 33.4998C87.0887 35.2204 85.936 36.4851 84.4286 36.4851ZM112.596 23.7351H107.409V38.0881H109.596V32.691H112.596C115.02 32.691 117.325 30.9704 117.325 28.2057C117.325 25.441 115.02 23.7351 112.596 23.7351ZM112.714 30.6322H109.596V25.691H112.714C114.325 25.691 115.256 27.0734 115.256 28.1028C115.138 29.3675 114.207 30.6322 112.714 30.6322ZM125.985 28.5587C124.374 28.5587 122.749 29.2498 122.173 30.7351L124.138 31.5439C124.596 30.7351 125.291 30.5145 126.104 30.5145C127.256 30.5145 128.291 31.2057 128.409 32.3528V32.4704C128.069 32.2351 127.138 31.8969 126.222 31.8969C124.138 31.8969 122.069 33.0439 122.069 35.1175C122.069 37.0734 123.798 38.3381 125.645 38.3381C127.153 38.3381 127.833 37.6469 128.409 36.9557H128.527V38.1028H130.611V32.5881C130.374 30.0587 128.409 28.5587 125.985 28.5587ZM125.749 36.4851C125.054 36.4851 124.02 36.1469 124.02 35.2204C124.02 34.0734 125.291 33.7204 126.325 33.7204C127.241 33.7204 127.714 33.9557 128.291 34.1763C128.069 35.5734 126.916 36.4851 125.749 36.4851ZM137.882 28.9116L135.458 35.1175H135.34L132.798 28.9116H130.493L134.305 37.6469L132.118 42.4704H134.305L140.187 28.9116H137.882ZM118.478 38.1028H120.665V23.7498H118.478V38.1028Z" fill="#333333"/>
<path d="M46.5511 15.2058H50.1423C50.157 15.2941 50.1866 15.3823 50.1866 15.4999C50.2014 15.6176 50.2014 15.7352 50.2014 15.8529C50.2014 16.3235 50.1275 16.7646 49.9797 17.1764C49.8319 17.5882 49.6102 17.9558 49.2999 18.2941C48.9748 18.647 48.5758 18.9117 48.1176 19.1029C47.6595 19.2941 47.1423 19.3823 46.5511 19.3823C46.0191 19.3823 45.5166 19.2941 45.0437 19.1029C44.5708 18.9117 44.157 18.647 43.8171 18.3088C43.4625 17.9705 43.1964 17.5735 42.9895 17.1029C42.7826 16.6323 42.6792 16.1323 42.6792 15.5735C42.6792 15.0146 42.7826 14.5146 42.9895 14.0441C43.1964 13.5735 43.4772 13.1764 43.8171 12.8382C44.1718 12.4999 44.5708 12.2352 45.0437 12.0441C45.5166 11.8529 46.0191 11.7646 46.5511 11.7646C47.1423 11.7646 47.6743 11.8676 48.1472 12.0735C48.6201 12.2794 49.0191 12.5588 49.3442 12.9264L48.3984 13.8529C48.162 13.6029 47.896 13.4117 47.6004 13.2794C47.3048 13.147 46.9501 13.0735 46.5511 13.0735C46.2112 13.0735 45.9009 13.1323 45.6053 13.2499C45.3097 13.3676 45.0437 13.5441 44.8221 13.7499C44.6004 13.9705 44.423 14.2352 44.29 14.5441C44.157 14.8529 44.0831 15.1911 44.0831 15.5735C44.0831 15.9558 44.157 16.2941 44.29 16.6029C44.423 16.9117 44.6004 17.1764 44.8368 17.397C45.0585 17.6176 45.3245 17.7794 45.6349 17.897C45.9304 18.0146 46.2556 18.0735 46.5955 18.0735C46.9797 18.0735 47.3196 18.0146 47.5856 17.9117C47.8516 17.7941 48.0881 17.6617 48.2802 17.4852C48.4132 17.3676 48.5314 17.2058 48.6349 17.0146C48.7383 16.8235 48.8122 16.6176 48.8713 16.3823H46.5511V15.2058Z" fill="#333333"/>
<path d="M52.7578 13.22V14.9111H55.6987V16.22H52.7578V17.9111H56.0238V19.22H51.3687V11.9111H56.0238V13.22H52.7578Z" fill="#333333"/>
<path d="M58.8462 19.22V13.22H56.792V11.9111H62.2748V13.22H60.2206V19.22H58.8462Z" fill="#333333"/>
<path d="M65.5264 11.9111H66.9155V19.2053H65.5264V11.9111Z" fill="#333333"/>
<path d="M69.9292 19.22V13.22H67.875V11.9111H73.3578V13.22H71.3036V19.22H69.9292Z" fill="#333333"/>
<path d="M79.8764 19.3824C79.3296 19.3824 78.8272 19.2795 78.3543 19.0883C77.8813 18.8971 77.4823 18.6177 77.1424 18.2795C76.8025 17.9412 76.5365 17.5295 76.3444 17.0589C76.1523 16.5883 76.0488 16.0883 76.0488 15.5589C76.0488 15.0295 76.1523 14.5295 76.3444 14.0589C76.5365 13.5883 76.8025 13.1912 77.1424 12.8383C77.4823 12.5001 77.8813 12.2206 78.3543 12.0295C78.8272 11.8383 79.3296 11.7354 79.8764 11.7354C80.4232 11.7354 80.9257 11.8383 81.3986 12.0295C81.8715 12.2206 82.2705 12.5001 82.6104 12.8383C82.9503 13.1765 83.2163 13.5883 83.4084 14.0589C83.6006 14.5295 83.704 15.0295 83.704 15.5589C83.704 16.0883 83.6006 16.5883 83.4084 17.0589C83.2163 17.5295 82.9503 17.9265 82.6104 18.2795C82.2705 18.6177 81.8567 18.8971 81.3986 19.0883C80.9257 19.2795 80.4232 19.3824 79.8764 19.3824ZM79.8764 18.0736C80.2163 18.0736 80.5414 18.0148 80.837 17.8971C81.1326 17.7795 81.3986 17.603 81.6203 17.3824C81.8419 17.1618 82.0193 16.8971 82.1375 16.5883C82.2705 16.2795 82.3296 15.9412 82.3296 15.5589C82.3296 15.1912 82.2705 14.8383 82.1375 14.5295C82.0045 14.2206 81.8419 13.9559 81.6203 13.7354C81.3986 13.5148 81.1326 13.353 80.837 13.2206C80.5414 13.0883 80.2163 13.0442 79.8764 13.0442C79.5365 13.0442 79.2114 13.103 78.9158 13.2206C78.6203 13.3383 78.3543 13.5148 78.1326 13.7354C77.9109 13.9559 77.7336 14.2206 77.6153 14.5295C77.4823 14.8383 77.4232 15.1765 77.4232 15.5589C77.4232 15.9265 77.4823 16.2795 77.6153 16.5883C77.7483 16.8971 77.9109 17.1618 78.1326 17.3824C78.3543 17.603 78.6203 17.7648 78.9158 17.8971C79.2114 18.0295 79.5365 18.0736 79.8764 18.0736Z" fill="#333333"/>
<path d="M84.8262 11.9111H86.437L89.3927 16.8082H89.4813L89.3927 15.3964V11.9111H90.7671V19.2053H89.3188L86.2006 14.0288H86.1119L86.2006 15.4405V19.2053H84.8262V11.9111Z" fill="#333333"/>
<path fill-rule="evenodd" clip-rule="evenodd" d="M32.025 20.6027L14.0693 10.3232L28.2565 24.3527L32.025 20.6027Z" fill="#333333"/>
<path fill-rule="evenodd" clip-rule="evenodd" d="M12.4134 10.4268C12.3395 10.5444 12.2656 10.6915 12.2656 10.8532V39.9415C12.2656 40.0297 12.31 40.1179 12.3395 40.2062L27.3543 25.2356L12.4134 10.4268Z" fill="#333333"/>
<path fill-rule="evenodd" clip-rule="evenodd" d="M28.2563 26.0879L13.5371 40.7644C13.5814 40.7497 13.6258 40.7349 13.6701 40.7055L32.276 30.0585L28.2563 26.0879Z" fill="#333333"/>
<path fill-rule="evenodd" clip-rule="evenodd" d="M39.0747 24.6324L33.1338 21.2354L29.1289 25.2206L33.3703 29.4265L39.0747 26.1618C39.6658 25.8236 39.6658 24.9706 39.0747 24.6324Z" fill="#333333"/>
</svg>
