<svg width="177" height="20" viewBox="0 0 177 20" fill="none" xmlns="http://www.w3.org/2000/svg">
<path d="M7.27273 19.026V10.861H10.1513L10.5823 7.67887H7.27265V5.64725C7.27265 4.72596 7.54132 4.09816 8.92902 4.09816L10.6988 4.09737V1.25135C10.3927 1.21264 9.34207 1.12598 8.11991 1.12598C5.56815 1.12598 3.82117 2.60887 3.82117 5.3322V7.67887H0.935173V10.861H3.82117V19.0259H7.27273V19.026Z" fill="#3CF75D"/>
<path d="M45.6215 2.8178V2.81458H46.4608L46.7675 2.87582C46.9719 2.91559 47.1576 2.9677 47.3243 3.03217C47.4911 3.09665 47.6525 3.17187 47.8086 3.25783C47.9646 3.34379 48.1061 3.43138 48.2331 3.52056C48.359 3.60868 48.472 3.70217 48.572 3.80102C48.671 3.90095 48.8254 3.92674 49.0353 3.87839C49.2451 3.83003 49.4711 3.76287 49.7132 3.67691C49.9553 3.59095 50.1947 3.49424 50.4314 3.38678C50.6682 3.27932 50.8124 3.21109 50.864 3.18207C50.9146 3.152 50.9415 3.13588 50.9447 3.13372L50.9479 3.12888L50.9641 3.12082L50.9802 3.11276L50.9963 3.10471L51.0125 3.09665L51.0157 3.09181L51.0206 3.08859L51.0254 3.08536L51.0286 3.08053L51.0448 3.07569L51.0609 3.07247L51.0577 3.09665L51.0528 3.12082L51.0448 3.145L51.0367 3.16918L51.0286 3.1853L51.0206 3.20142L51.0125 3.22559C51.0071 3.24171 51.0017 3.2632 50.9963 3.29007C50.991 3.31694 50.9399 3.42438 50.843 3.61243C50.7462 3.80049 50.6251 3.99122 50.4798 4.18464C50.3346 4.37806 50.2044 4.52419 50.0893 4.62306C49.973 4.72299 49.8961 4.79283 49.8584 4.83259C49.8208 4.87342 49.775 4.91103 49.7212 4.94542L49.6405 4.99861L49.6244 5.00667L49.6082 5.01473L49.605 5.01957L49.6002 5.02279L49.5953 5.02601L49.5921 5.03085L49.576 5.03891L49.5598 5.04697L49.5566 5.0518L49.5518 5.05503L49.5469 5.05825L49.5437 5.06309L49.5405 5.06792L49.5356 5.07115L49.5308 5.07437L49.5275 5.07921H49.6082L50.0602 4.9825C50.3615 4.91802 50.6493 4.84012 50.9237 4.74878L51.3595 4.60371L51.4079 4.5876L51.4321 4.57954L51.4483 4.57148L51.4644 4.56342L51.4806 4.55536L51.4967 4.5473L51.529 4.54246L51.5613 4.53924V4.57148L51.5532 4.5747L51.5451 4.57954L51.5419 4.58437L51.5371 4.5876L51.5322 4.59082L51.529 4.59565L51.5258 4.60049L51.5209 4.60371L51.5161 4.60694L51.5128 4.61177L51.5096 4.61661L51.5048 4.61983L51.4967 4.63595L51.4886 4.65207L51.4838 4.65529C51.4816 4.65852 51.4133 4.74984 51.2788 4.9293C51.1443 5.10983 51.0717 5.20116 51.0609 5.20332C51.0502 5.20654 51.0351 5.22266 51.0157 5.25167C50.9974 5.28175 50.8834 5.40157 50.6735 5.61111C50.4637 5.82065 50.2582 6.00707 50.057 6.17042C49.8547 6.33483 49.7525 6.53684 49.7503 6.77647C49.7471 7.01502 49.7347 7.28475 49.7132 7.58561C49.6916 7.88649 49.6513 8.21153 49.5921 8.56077C49.5329 8.91001 49.4415 9.30491 49.3177 9.74547C49.194 10.186 49.0433 10.6159 48.8658 11.0349C48.6882 11.454 48.5026 11.8301 48.3089 12.1632C48.1152 12.4963 47.9377 12.7784 47.7763 13.0094C47.6149 13.2405 47.4508 13.4581 47.284 13.6622C47.1172 13.8664 46.9063 14.0964 46.6513 14.3521C46.3952 14.6068 46.2553 14.7465 46.2316 14.7712C46.2069 14.7948 46.1014 14.8829 45.9153 15.0355C45.7302 15.1892 45.5311 15.3428 45.3181 15.4965C45.1061 15.6491 44.9113 15.7764 44.7338 15.8785C44.5562 15.9806 44.3421 16.0972 44.0914 16.2283C43.8417 16.3604 43.5716 16.4829 43.2811 16.5958C42.9906 16.7086 42.6839 16.8134 42.3611 16.9101C42.0383 17.0068 41.7262 17.082 41.4249 17.1357C41.1236 17.1895 40.782 17.2351 40.4 17.2727L39.827 17.3292V17.3372H38.7779V17.3292L38.6407 17.3211C38.5492 17.3157 38.4739 17.3104 38.4147 17.305C38.3555 17.2996 38.1322 17.2701 37.7449 17.2163C37.3575 17.1626 37.0535 17.1089 36.8329 17.0551C36.6123 17.0014 36.2841 16.8993 35.8483 16.7489C35.4125 16.5985 35.0397 16.4464 34.7298 16.2928C34.421 16.1402 34.2273 16.0434 34.1487 16.0026C34.0712 15.9629 33.9841 15.9134 33.8872 15.8543L33.742 15.7657L33.7388 15.7608L33.7339 15.7576L33.7291 15.7544L33.7258 15.7496L33.7097 15.7415L33.6936 15.7334L33.6903 15.7286L33.6855 15.7254L33.6806 15.7222L33.6774 15.7173L33.6742 15.7125L33.6693 15.7093H33.6613V15.677L33.6774 15.6803L33.6936 15.6851L33.7662 15.6931C33.8146 15.6985 33.9464 15.7066 34.1616 15.7173C34.3769 15.7281 34.6055 15.7281 34.8476 15.7173C35.0897 15.7066 35.3372 15.6824 35.5901 15.6448C35.843 15.6072 36.1416 15.5427 36.4859 15.4514C36.8302 15.36 37.1466 15.2515 37.435 15.1258C37.7223 14.999 37.9267 14.9044 38.0483 14.8421C38.1688 14.7808 38.3528 14.6669 38.6003 14.5004L38.9715 14.2506L38.9748 14.2457L38.9796 14.2425L38.9845 14.2393L38.9877 14.2344L38.9909 14.2296L38.9958 14.2264L39.0006 14.2232L39.0038 14.2183L39.02 14.2135L39.0361 14.2103L39.0393 14.1941L39.0442 14.178L39.049 14.1748L39.0523 14.17L38.9231 14.1619C38.837 14.1565 38.7537 14.1512 38.6729 14.1458C38.5922 14.1404 38.4658 14.1162 38.2936 14.0733C38.1215 14.0303 37.9359 13.9658 37.7368 13.8798C37.5377 13.7939 37.344 13.6918 37.1557 13.5736C36.9674 13.4554 36.8313 13.357 36.7474 13.2786C36.6645 13.2012 36.5569 13.0916 36.4246 12.9498C36.2933 12.8069 36.1792 12.6602 36.0824 12.5098C35.9855 12.3593 35.893 12.1858 35.8048 11.9891L35.6708 11.6958L35.6627 11.6716L35.6546 11.6474L35.6498 11.6313L35.6466 11.6152L35.6708 11.6184L35.695 11.6233L35.8725 11.6474C35.9909 11.6636 36.1765 11.6689 36.4294 11.6636C36.6823 11.6582 36.8571 11.6474 36.954 11.6313C37.0508 11.6152 37.11 11.6045 37.1315 11.5991L37.1638 11.591L37.2041 11.583L37.2445 11.5749L37.2477 11.5701L37.2526 11.5668L37.2574 11.5636L37.2606 11.5588L37.2284 11.5507L37.1961 11.5427L37.1638 11.5346L37.1315 11.5266L37.0992 11.5185C37.0777 11.5131 37.0401 11.5024 36.9862 11.4863C36.9325 11.4701 36.7872 11.411 36.5504 11.309C36.3137 11.2069 36.1254 11.1075 35.9855 11.0108C35.8453 10.9138 35.7116 10.8077 35.5852 10.6932C35.4593 10.5772 35.3211 10.4278 35.1704 10.2451C35.0198 10.0625 34.8853 9.85024 34.7669 9.60847C34.6485 9.36669 34.5598 9.13566 34.5006 8.91538C34.4416 8.69638 34.4027 8.47249 34.3844 8.24646L34.3553 7.90798L34.3715 7.9112L34.3876 7.91604L34.4037 7.9241L34.4199 7.93216L34.436 7.94021L34.4522 7.94827L34.7023 8.0611C34.8691 8.13633 35.0763 8.2008 35.3238 8.25452C35.5713 8.30825 35.7192 8.33781 35.7676 8.34317L35.8403 8.35123H35.9855L35.9823 8.3464L35.9775 8.34317L35.9726 8.33995L35.9694 8.33511L35.9662 8.33028L35.9613 8.32705L35.9565 8.32383L35.9532 8.319L35.9371 8.31094L35.921 8.30288L35.9178 8.29804L35.9129 8.29482L35.9081 8.29159L35.9048 8.28676L35.8887 8.2787L35.8725 8.27064L35.8693 8.26581C35.8661 8.26365 35.8198 8.22926 35.7305 8.16265C35.6423 8.09495 35.5497 8.00738 35.4529 7.89992C35.356 7.79246 35.2592 7.67963 35.1624 7.56143C35.0653 7.44297 34.9789 7.31622 34.9041 7.18265C34.8288 7.04834 34.7492 6.87747 34.6652 6.67009C34.5824 6.46377 34.5194 6.25585 34.4764 6.04631C34.4333 5.83677 34.4091 5.62992 34.4037 5.42575C34.3984 5.22158 34.4037 5.04697 34.4199 4.9019C34.436 4.75684 34.4683 4.59296 34.5167 4.41029C34.5651 4.22762 34.6351 4.0342 34.7266 3.83003L34.8637 3.52378L34.8718 3.49961L34.8799 3.47543L34.8847 3.4722L34.888 3.46737L34.8912 3.46253L34.896 3.45931L34.9009 3.46253L34.9041 3.46737L34.9073 3.4722L34.9122 3.47543L34.917 3.47865L34.9202 3.48349L34.9235 3.48832L34.9283 3.49155L34.9364 3.50766L34.9445 3.52378L34.9493 3.52701L34.9525 3.53184L35.1704 3.77362C35.3157 3.9348 35.4879 4.1148 35.6869 4.31358C35.886 4.51237 35.9963 4.61553 36.0178 4.62306C36.0393 4.63165 36.0662 4.65636 36.0985 4.6972C36.1308 4.73696 36.2384 4.83206 36.4213 4.9825C36.6043 5.13293 36.8437 5.30755 37.1396 5.50634C37.4355 5.70513 37.7637 5.90124 38.1242 6.09466C38.4847 6.28808 38.872 6.46269 39.2863 6.61851C39.7006 6.77432 39.9911 6.8764 40.1579 6.92476C40.3247 6.97311 40.6098 7.03489 41.0133 7.11012C41.4169 7.18534 41.7209 7.2337 41.9253 7.25518C42.1297 7.27667 42.2696 7.28903 42.3449 7.29226L42.4579 7.29548L42.4547 7.2713L42.4499 7.24712L42.4176 7.04565C42.3961 6.91133 42.3853 6.72328 42.3853 6.4815C42.3853 6.23973 42.4041 6.01676 42.4418 5.81259C42.4795 5.60842 42.536 5.40157 42.6113 5.19203C42.6866 4.9825 42.7603 4.81432 42.8324 4.68753C42.9056 4.56181 43.0013 4.41835 43.1197 4.25717C43.2381 4.09599 43.3914 3.92943 43.5797 3.7575C43.768 3.58556 43.9832 3.43244 44.2253 3.29813C44.4674 3.16381 44.6907 3.06172 44.8952 2.99188C45.0996 2.92204 45.2718 2.87636 45.4117 2.85487C45.5516 2.83339 45.6215 2.82102 45.6215 2.8178Z" fill="#3CF75D"/>
<path fill-rule="evenodd" clip-rule="evenodd" d="M74.4333 10.0761C74.4333 6.50093 74.4333 4.71335 75.2853 3.4258C75.6657 2.85085 76.1581 2.35846 76.7331 1.97803C78.0206 1.1261 79.8082 1.1261 83.3834 1.1261C86.9585 1.1261 88.7461 1.1261 90.0336 1.97803C90.6086 2.35846 91.101 2.85085 91.4814 3.4258C92.3334 4.71335 92.3334 6.50093 92.3334 10.0761C92.3334 13.6513 92.3334 15.4388 91.4814 16.7264C91.101 17.3013 90.6086 17.7937 90.0336 18.1742C88.7461 19.0261 86.9585 19.0261 83.3834 19.0261C79.8082 19.0261 78.0206 19.0261 76.7331 18.1742C76.1581 17.7937 75.6657 17.3013 75.2853 16.7264C74.4333 15.4388 74.4333 13.6513 74.4333 10.0761ZM88.0166 10.0761C88.0166 12.6352 85.9421 14.7097 83.383 14.7097C80.824 14.7097 78.7495 12.6352 78.7495 10.0761C78.7495 7.51712 80.824 5.44262 83.383 5.44262C85.9421 5.44262 88.0166 7.51712 88.0166 10.0761ZM83.383 13.142C85.0763 13.142 86.4489 11.7694 86.4489 10.0761C86.4489 8.38291 85.0763 7.01027 83.383 7.01027C81.6898 7.01027 80.3172 8.38291 80.3172 10.0761C80.3172 11.7694 81.6898 13.142 83.383 13.142ZM88.1996 6.29892C88.8009 6.29892 89.2883 5.81147 89.2883 5.21018C89.2883 4.60888 88.8009 4.12144 88.1996 4.12144C87.5983 4.12144 87.1109 4.60888 87.1109 5.21018C87.1109 5.81147 87.5983 6.29892 88.1996 6.29892Z" fill="#3CF75D"/>
<path d="M115.206 4.02886C115.206 3.45486 115.407 2.98131 115.81 2.60823C116.214 2.23513 116.738 2.04858 117.383 2.04858C118.016 2.04858 118.529 2.23225 118.92 2.59962C119.324 2.97845 119.525 3.47208 119.525 4.08052C119.525 4.63156 119.329 5.09074 118.938 5.45811C118.535 5.83694 118.005 6.02636 117.348 6.02636H117.331C116.697 6.02636 116.185 5.83694 115.793 5.45811C115.402 5.07927 115.206 4.60285 115.206 4.02886ZM115.43 19.0962V7.59336H119.266V19.0962H115.43ZM121.391 19.0962H125.227V12.6732C125.227 12.2714 125.273 11.9614 125.365 11.7433C125.526 11.353 125.771 11.023 126.099 10.7532C126.428 10.4834 126.84 10.3485 127.335 10.3485C128.625 10.3485 129.27 11.2153 129.27 12.9487V19.0962H133.106V12.501C133.106 10.802 132.703 9.51337 131.896 8.63516C131.09 7.75695 130.024 7.31785 128.7 7.31785C127.214 7.31785 126.056 7.95498 125.227 9.22925V9.26369H125.21L125.227 9.22925V7.59336H121.391C121.414 7.96071 121.426 9.10296 121.426 11.0201C121.426 12.9372 121.414 15.6293 121.391 19.0962Z" fill="#3CF75D"/>
<path d="M166.358 17.0175L162.319 16.942C161.011 16.9157 159.7 16.9682 158.417 16.6956C156.467 16.2884 156.328 14.2917 156.184 12.6168C155.985 10.2621 156.062 7.86467 156.438 5.52964C156.65 4.21944 157.485 3.43764 158.777 3.35257C163.138 3.04382 167.528 3.08041 171.88 3.22445C172.339 3.23765 172.802 3.30983 173.255 3.39198C175.492 3.79266 175.546 6.05541 175.691 7.96023C175.836 9.8847 175.775 11.8191 175.499 13.7304C175.277 15.313 174.853 16.6401 173.062 16.7682C170.819 16.9358 168.627 17.0706 166.378 17.0277C166.378 17.0175 166.365 17.0175 166.358 17.0175ZM163.983 13.0109C165.674 12.019 167.332 11.0437 169.013 10.0585C167.319 9.06661 165.664 8.09127 163.983 7.10605V13.0109Z" fill="#3CF75D"/>
</svg>
